Sprat.glyphspackage
{
glyphname = exclam;
layers = (
{
layerId = "B6803316-6B37-45A2-910F-F0CA711B465A";
shapes = (
{
closed = 1;
nodes = (
(176,199,l),
(206,700,l),
(96,700,l),
(126,199,l)
);
},
{
closed = 1;
nodes = (
(181,-14,o),
(208,9,o),
(208,44,cs),
(208,79,o),
(181,101,o),
(151,101,cs),
(121,101,o),
(94,79,o),
(94,44,cs),
(94,9,o),
(121,-14,o),
(151,-14,cs)
);
}
);
width = 302;
},
{
layerId = "1127FDDC-7967-4E0A-BDB2-81E1CCE90981";
shapes = (
{
closed = 1;
nodes = (
(200,199,l),
(230,700,l),
(120,700,l),
(150,199,l)
);
},
{
closed = 1;
nodes = (
(223,-15,o),
(250,10,o),
(250,45,cs),
(250,80,o),
(223,105,o),
(175,105,cs),
(127,105,o),
(100,80,o),
(100,45,cs),
(100,10,o),
(127,-15,o),
(175,-15,cs)
);
}
);
width = 350;
},
{
layerId = "52EA2D2A-A4E3-47AA-B963-53B6A9E26FA1";
shapes = (
{
closed = 1;
nodes = (
(254,229,l),
(324,700,l),
(34,700,l),
(104,229,l)
);
},
{
closed = 1;
nodes = (
(227,-15,o),
(271,12,o),
(271,66,cs),
(271,123,o),
(227,151,o),
(182,151,cs),
(137,151,o),
(93,124,o),
(93,68,cs),
(93,12,o),
(137,-15,o),
(183,-15,cs)
);
}
);
width = 363;
},
{
layerId = "ECEC25EE-2268-427F-924A-A8A033D1E43A";
shapes = (
{
closed = 1;
nodes = (
(63,149,l),
(77,700,l),
(31,700,l),
(43,149,l)
);
},
{
closed = 1;
nodes = (
(70,-15,o),
(86,-2,o),
(86,18,cs),
(86,38,o),
(70,51,o),
(53,51,cs),
(36,51,o),
(20,37,o),
(20,18,cs),
(20,-2,o),
(36,-15,o),
(53,-15,cs)
);
}
);
width = 106;
},
{
layerId = "92782D03-6C32-4A0E-AEF4-B0D65DFAA275";
shapes = (
{
closed = 1;
nodes = (
(278,239,l),
(348,700,l),
(58,700,l),
(128,239,l)
);
},
{
closed = 1;
nodes = (
(268,-15,o),
(313,15,o),
(313,74,cs),
(313,134,o),
(268,165,o),
(203,165,cs),
(137,165,o),
(90,134,o),
(90,74,cs),
(90,15,o),
(137,-15,o),
(202,-15,cs)
);
}
);
width = 409;
},
{
layerId = "C70D92E6-6044-4AAB-ADF3-B84826DC9CB7";
shapes = (
{
closed = 1;
nodes = (
(166,149,l),
(183,700,l),
(131,700,l),
(146,149,l)
);
},
{
closed = 1;
nodes = (
(173,-15,o),
(189,-5,o),
(189,15,cs),
(189,34,o),
(173,43,o),
(156,43,cs),
(140,43,o),
(123,34,o),
(123,15,cs),
(123,-5,o),
(140,-15,o),
(156,-15,cs)
);
}
);
width = 313;
}
);
unicode = 33;
}
{
glyphname = numbersign;
layers = (
{
layerId = "B6803316-6B37-45A2-910F-F0CA711B465A";
shapes = (
{
closed = 1;
nodes = (
(75,0,l),
(138,0,l),
(313,610,l),
(250,610,l)
);
},
{
closed = 1;
nodes = (
(305,0,l),
(368,0,l),
(543,610,l),
(480,610,l)
);
},
{
closed = 1;
nodes = (
(98,398,l),
(577,398,l),
(577,430,l),
(98,430,l)
);
},
{
closed = 1;
nodes = (
(58,198,l),
(532,198,l),
(532,230,l),
(58,230,l)
);
}
);
width = 630;
},
{
layerId = "1127FDDC-7967-4E0A-BDB2-81E1CCE90981";
shapes = (
{
closed = 1;
nodes = (
(90,0,l),
(153,0,l),
(328,610,l),
(265,610,l)
);
},
{
closed = 1;
nodes = (
(440,0,l),
(503,0,l),
(678,610,l),
(615,610,l)
);
},
{
closed = 1;
nodes = (
(123,398,l),
(722,398,l),
(722,430,l),
(123,430,l)
);
},
{
closed = 1;
nodes = (
(83,198,l),
(677,198,l),
(677,230,l),
(83,230,l)
);
}
);
width = 796;
},
{
layerId = "52EA2D2A-A4E3-47AA-B963-53B6A9E26FA1";
shapes = (
{
closed = 1;
nodes = (
(52,0,l),
(165,0,l),
(340,610,l),
(227,610,l)
);
},
{
closed = 1;
nodes = (
(282,0,l),
(395,0,l),
(570,610,l),
(457,610,l)
);
},
{
closed = 1;
nodes = (
(75,385,l),
(594,385,l),
(594,430,l),
(75,430,l)
);
},
{
closed = 1;
nodes = (
(35,185,l),
(549,185,l),
(549,230,l),
(35,230,l)
);
}
);
width = 627;
},
{
layerId = "ECEC25EE-2268-427F-924A-A8A033D1E43A";
shapes = (
{
closed = 1;
nodes = (
(57,0,l),
(89,0,l),
(264,610,l),
(232,610,l)
);
},
{
closed = 1;
nodes = (
(287,0,l),
(319,0,l),
(494,610,l),
(462,610,l)
);
},
{
closed = 1;
nodes = (
(80,412,l),
(559,412,l),
(559,430,l),
(80,430,l)
);
},
{
closed = 1;
nodes = (
(40,212,l),
(514,212,l),
(514,230,l),
(40,230,l)
);
}
);
width = 599;
},
{
layerId = "92782D03-6C32-4A0E-AEF4-B0D65DFAA275";
shapes = (
{
closed = 1;
nodes = (
(69,0,l),
(182,0,l),
(357,610,l),
(244,610,l)
);
},
{
closed = 1;
nodes = (
(419,0,l),
(532,0,l),
(707,610,l),
(594,610,l)
);
},
{
closed = 1;
nodes = (
(96,385,l),
(731,385,l),
(731,430,l),
(96,430,l)
);
},
{
closed = 1;
nodes = (
(56,185,l),
(686,185,l),
(686,230,l),
(56,230,l)
);
}
);
width = 783;
},
{
layerId = "C70D92E6-6044-4AAB-ADF3-B84826DC9CB7";
shapes = (
{
closed = 1;
nodes = (
(93,0,l),
(126,0,l),
(301,610,l),
(268,610,l)
);
},
{
closed = 1;
nodes = (
(443,0,l),
(476,0,l),
(651,610,l),
(618,610,l)
);
},
{
closed = 1;
nodes = (
(126,412,l),
(702,412,l),
(702,430,l),
(126,430,l)
);
},
{
closed = 1;
nodes = (
(86,212,l),
(660,212,l),
(660,230,l),
(86,230,l)
);
}
);
width = 778;
}
);
unicode = 35;
}
{
glyphname = dollar;
layers = (
{
background = {
shapes = (
{
closed = 1;
nodes = (
(91,47,l),
(132,-22,o),
(236,-79,o),
(350,-79,cs),
(476,-79,o),
(576,5,o),
(576,136,cs),
(576,354,o),
(197,265,o),
(197,488,cs),
(197,577,o),
(266,597,o),
(317,597,cs),
(402,597,o),
(471,532,o),
(522,372,c),
(532,372,l),
(510,569,l),
(474,608,o),
(415,630,o),
(339,630,cs),
(225,630,o),
(113,551,o),
(113,435,cs),
(113,206,o),
(492,284,o),
(492,76,cs),
(492,9,o),
(443,-45,o),
(356,-45,cs),
(232,-45,o),
(129,71,o),
(85,301,c),
(75,301,l)
);
},
{
closed = 1;
nodes = (
(256,587,l),
(256,750,l),
(231,750,l),
(231,587,l)
);
},
{
closed = 1;
nodes = (
(423,587,l),
(423,750,l),
(398,750,l),
(398,587,l)
);
},
{
closed = 1;
nodes = (
(256,-213,l),
(256,-50,l),
(231,-50,l),
(231,-213,l)
);
},
{
closed = 1;
nodes = (
(423,-213,l),
(423,-50,l),
(398,-50,l),
(398,-213,l)
);
}
);
};
layerId = "B6803316-6B37-45A2-910F-F0CA711B465A";
shapes = (
{
closed = 1;
nodes = (
(91,47,l),
(132,-22,o),
(236,-79,o),
(350,-79,cs),
(476,-79,o),
(576,5,o),
(576,136,cs),
(576,367,o),
(185,282,o),
(185,488,cs),
(185,577,o),
(266,597,o),
(317,597,cs),
(402,597,o),
(471,532,o),
(522,372,c),
(532,372,l),
(510,569,l),
(474,608,o),
(415,630,o),
(339,630,cs),
(225,630,o),
(113,551,o),
(113,435,cs),
(113,198,o),
(505,283,o),
(505,85,cs),
(505,18,o),
(443,-45,o),
(356,-45,cs),
(232,-45,o),
(129,71,o),
(85,301,c),
(75,301,l)
);
},
{
closed = 1;
nodes = (
(256,587,l),
(256,750,l),
(231,750,l),
(231,587,l)
);
},
{
closed = 1;
nodes = (
(423,587,l),
(423,750,l),
(398,750,l),
(398,587,l)
);
},
{
closed = 1;
nodes = (
(256,-213,l),
(256,-50,l),
(231,-50,l),
(231,-213,l)
);
},
{
closed = 1;
nodes = (
(423,-213,l),
(423,-50,l),
(398,-50,l),
(398,-213,l)
);
}
);
width = 644;
},
{
layerId = "1127FDDC-7967-4E0A-BDB2-81E1CCE90981";
shapes = (
{
closed = 1;
nodes = (
(129,48,l),
(203,-22,o),
(350,-79,o),
(539,-79,cs),
(781,-79,o),
(970,-7,o),
(970,136,cs),
(970,399,o),
(260,244,o),
(260,489,cs),
(260,586,o),
(422,605,o),
(519,605,cs),
(653,605,o),
(805,553,o),
(884,345,c),
(896,345,l),
(843,567,l),
(768,607,o),
(662,630,o),
(519,630,cs),
(326,630,o),
(162,566,o),
(163,434,cs),
(166,169,o),
(877,300,o),
(877,93,cs),
(877,-12,o),
(718,-54,o),
(553,-54,cs),
(307,-54,o),
(177,29,o),
(106,327,c),
(94,327,l)
);
},
{
closed = 1;
nodes = (
(393,597,l),
(393,760,l),
(368,760,l),
(368,597,l)
);
},
{
closed = 1;
nodes = (
(670,597,l),
(670,760,l),
(645,760,l),
(645,597,l)
);
},
{
closed = 1;
nodes = (
(393,-213,l),
(393,-50,l),
(368,-50,l),
(368,-213,l)
);
},
{
closed = 1;
nodes = (
(670,-216,l),
(670,-53,l),
(645,-53,l),
(645,-216,l)
);
}
);
width = 1056;
},
{
associatedMasterId = "1127FDDC-7967-4E0A-BDB2-81E1CCE90981";
layerId = "1FD69139-2738-409E-B8B2-1F47B48D31B1";
name = "Mar 6 19, 12:40";
shapes = (
{
closed = 1;
nodes = (
(484,-108,l),
(529,-108,l),
(529,-12,l),
(726,2,o),
(856,76,o),
(856,206,cs),
(856,327,o),
(695,366,o),
(529,398,c),
(529,680,l),
(623,657,o),
(712,593,o),
(771,457,c),
(780,457,l),
(730,650,l),
(677,680,o),
(618,702,o),
(529,711,c),
(529,801,l),
(484,801,l)
);
},
{
closed = 1;
nodes = (
(190,635,o),
(284,670,o),
(371,683,c),
(371,434,l),
(268,459,o),
(190,493,o),
(190,562,cs)
);
},
{
closed = 1;
nodes = (
(529,309,l),
(663,283,o),
(777,249,o),
(777,162,cs),
(777,69,o),
(666,22,o),
(529,12,c)
);
},
{
closed = 1;
nodes = (
(416,801,l),
(371,801,l),
(371,709,l),
(225,690,o),
(114,622,o),
(114,513,cs),
(114,412,o),
(233,371,o),
(371,342,c),
(371,21,l),
(211,52,o),
(120,157,o),
(69,367,c),
(60,367,l),
(88,115,l),
(151,58,o),
(244,10,o),
(371,-8,c),
(371,-108,l),
(416,-108,l)
);
}
);
width = 916;
},
{
associatedMasterId = "B6803316-6B37-45A2-910F-F0CA711B465A";
layerId = "9D93B200-EA83-4DE7-B235-83DA1DCDB97F";
name = "Mar 10 19, 16:09";
shapes = (
{
closed = 1;
nodes = (
(73,47,l),
(107,-16,o),
(192,-68,o),
(285,-68,cs),
(388,-68,o),
(470,8,o),
(470,128,cs),
(470,347,o),
(170,272,o),
(170,450,cs),
(170,522,o),
(216,550,o),
(258,550,cs),
(327,550,o),
(368,490,o),
(424,344,c),
(434,344,l),
(416,524,l),
(386,560,o),
(338,580,o),
(276,580,cs),
(183,580,o),
(91,508,o),
(91,402,cs),
(91,179,o),
(393,264,o),
(393,73,cs),
(393,21,o),
(361,-37,o),
(290,-37,cs),
(188,-37,o),
(131,83,o),
(71,279,c),
(60,279,l)
);
},
{
closed = 1;
nodes = (
(200,537,l),
(200,700,l),
(175,700,l),
(175,537,l)
);
},
{
closed = 1;
nodes = (
(367,537,l),
(367,700,l),
(342,700,l),
(342,537,l)
);
},
{
closed = 1;
nodes = (
(200,-193,l),
(200,-36,l),
(175,-36,l),
(175,-193,l)
);
},
{
closed = 1;
nodes = (
(367,-193,l),
(367,-36,l),
(342,-36,l),
(342,-193,l)
);
}
);
width = 530;
},
{
layerId = "52EA2D2A-A4E3-47AA-B963-53B6A9E26FA1";
shapes = (
{
closed = 1;
nodes = (
(74,23,l),
(118,-46,o),
(225,-75,o),
(318,-75,cs),
(440,-75,o),
(566,-16,o),
(566,139,cs),
(566,379,o),
(258,328,o),
(258,512,cs),
(258,549,o),
(288,594,o),
(331,594,cs),
(405,594,o),
(465,486,o),
(507,337,c),
(537,337,l),
(509,571,l),
(450,610,o),
(391,629,o),
(325,629,cs),
(189,629,o),
(77,571,o),
(77,436,cs),
(77,178,o),
(385,205,o),
(385,57,cs),
(385,-3,o),
(342,-40,o),
(296,-40,cs),
(220,-40,o),
(141,61,o),
(79,275,c),
(48,275,l)
);
},
{
closed = 1;
nodes = (
(250,587,l),
(250,750,l),
(215,750,l),
(215,587,l)
);
},
{
closed = 1;
nodes = (
(417,587,l),
(417,750,l),
(382,750,l),
(382,587,l)
);
},
{
closed = 1;
nodes = (
(250,-213,l),
(250,-50,l),
(215,-50,l),
(215,-213,l)
);
},
{
closed = 1;
nodes = (
(417,-213,l),
(417,-50,l),
(382,-50,l),
(382,-213,l)
);
}
);
width = 613;
},
{
layerId = "ECEC25EE-2268-427F-924A-A8A033D1E43A";
shapes = (
{
closed = 1;
nodes = (
(86,47,l),
(127,-22,o),
(231,-79,o),
(345,-79,cs),
(471,-79,o),
(571,5,o),
(571,112,cs),
(571,362,o),
(143,236,o),
(143,449,cs),
(143,556,o),
(226,614,o),
(336,614,cs),
(424,614,o),
(492,589,o),
(517,372,c),
(527,372,l),
(505,569,l),
(474,603,o),
(404,632,o),
(338,632,cs),
(196,632,o),
(108,556,o),
(108,444,cs),
(108,195,o),
(536,325,o),
(536,97,cs),
(536,1,o),
(438,-61,o),
(351,-61,cs),
(177,-61,o),
(113,15,o),
(80,301,c),
(70,301,l)
);
},
{
closed = 1;
nodes = (
(253,615,l),
(253,750,l),
(238,750,l),
(238,615,l)
);
},
{
closed = 1;
nodes = (
(413,615,l),
(413,750,l),
(398,750,l),
(398,619,l)
);
},
{
closed = 1;
nodes = (
(253,-213,l),
(253,-58,l),
(238,-58,l),
(238,-213,l)
);
},
{
closed = 1;
nodes = (
(413,-213,l),
(413,-58,l),
(398,-58,l),
(398,-213,l)
);
}
);
width = 651;
},
{
layerId = "92782D03-6C32-4A0E-AEF4-B0D65DFAA275";
shapes = (
{
closed = 1;
nodes = (
(109,28,l),
(218,-49,o),
(426,-77,o),
(511,-77,cs),
(742,-77,o),
(931,-11,o),
(931,156,cs),
(931,467,o),
(297,289,o),
(297,484,cs),
(297,548,o),
(387,580,o),
(510,580,cs),
(663,580,o),
(833,500,o),
(896,332,c),
(926,332,l),
(887,547,l),
(813,598,o),
(602,627,o),
(511,627,cs),
(274,627,o),
(85,560,o),
(85,390,cs),
(85,81,o),
(719,225,o),
(719,56,cs),
(719,7,o),
(629,-31,o),
(512,-31,cs),
(353,-31,o),
(161,80,o),
(98,247,c),
(68,247,l)
);
},
{
closed = 1;
nodes = (
(372,597,l),
(372,760,l),
(337,760,l),
(337,597,l)
);
},
{
closed = 1;
nodes = (
(668,597,l),
(668,760,l),
(633,760,l),
(633,597,l)
);
},
{
closed = 1;
nodes = (
(372,-213,l),
(372,-50,l),
(337,-50,l),
(337,-213,l)
);
},
{
closed = 1;
nodes = (
(668,-213,l),
(668,-50,l),
(633,-50,l),
(633,-213,l)
);
}
);
width = 1003;
},
{
layerId = "C70D92E6-6044-4AAB-ADF3-B84826DC9CB7";
shapes = (
{
closed = 1;
nodes = (
(138,41,l),
(216,-19,o),
(372,-75,o),
(535,-75,cs),
(763,-75,o),
(965,-23,o),
(965,121,cs),
(965,373,o),
(203,215,o),
(203,453,cs),
(203,573,o),
(426,604,o),
(498,605,cs),
(693,607,o),
(811,555,o),
(874,343,c),
(884,343,l),
(827,563,l),
(746,601,o),
(601,625,o),
(498,625,cs),
(315,625,o),
(156,559,o),
(160,432,cs),
(168,171,o),
(925,329,o),
(925,101,cs),
(925,-13,o),
(690,-55,o),
(550,-55,cs),
(282,-55,o),
(151,41,o),
(112,318,c),
(101,318,l)
);
},
{
closed = 1;
nodes = (
(399,597,l),
(399,760,l),
(384,760,l),
(384,597,l)
);
},
{
closed = 1;
nodes = (
(676,597,l),
(676,760,l),
(661,760,l),
(661,597,l)
);
},
{
closed = 1;
nodes = (
(399,-213,l),
(399,-50,l),
(384,-50,l),
(384,-213,l)
);
},
{
closed = 1;
nodes = (
(676,-213,l),
(676,-50,l),
(661,-50,l),
(661,-213,l)
);
}
);
width = 1057;
},
{
associatedMasterId = "52EA2D2A-A4E3-47AA-B963-53B6A9E26FA1";
layerId = "9B9CF695-2378-4012-BECA-5D94F43DDE2F";
name = "May 19 19, 15:44";
shapes = (
{
closed = 1;
nodes = (
(82,23,l),
(126,-46,o),
(233,-75,o),
(326,-75,cs),
(448,-75,o),
(574,-16,o),
(574,139,cs),
(574,379,o),
(266,328,o),
(266,512,cs),
(266,549,o),
(296,594,o),
(339,594,cs),
(413,594,o),
(473,486,o),
(515,337,c),
(545,337,l),
(517,571,l),
(458,610,o),
(375,629,o),
(315,629,cs),
(197,629,o),
(85,571,o),
(85,436,cs),
(85,178,o),
(393,205,o),
(393,57,cs),
(393,-3,o),
(350,-40,o),
(304,-40,cs),
(228,-40,o),
(149,61,o),
(87,275,c),
(56,275,l)
);
},
{
closed = 1;
nodes = (
(258,587,l),
(258,750,l),
(223,750,l),
(223,587,l)
);
},
{
closed = 1;
nodes = (
(425,587,l),
(425,750,l),
(390,750,l),
(390,587,l)
);
},
{
closed = 1;
nodes = (
(258,-213,l),
(258,-50,l),
(223,-50,l),
(223,-213,l)
);
},
{
closed = 1;
nodes = (
(425,-213,l),
(425,-50,l),
(390,-50,l),
(390,-213,l)
);
}
);
width = 624;
},
{
associatedMasterId = "B6803316-6B37-45A2-910F-F0CA711B465A";
layerId = "C6BD61D3-7CA3-4C5D-BAC9-6AB7F3C5DCF4";
name = "Dec 2 19, 16:48";
shapes = (
{
closed = 1;
nodes = (
(91,47,l),
(132,-22,o),
(236,-79,o),
(350,-79,cs),
(476,-79,o),
(576,5,o),
(576,136,cs),
(576,354,o),
(197,265,o),
(197,488,cs),
(197,577,o),
(266,597,o),
(317,597,cs),
(402,597,o),
(471,532,o),
(522,372,c),
(532,372,l),
(510,569,l),
(474,608,o),
(415,630,o),
(339,630,cs),
(225,630,o),
(113,551,o),
(113,435,cs),
(113,206,o),
(492,284,o),
(492,76,cs),
(492,9,o),
(443,-45,o),
(356,-45,cs),
(232,-45,o),
(129,71,o),
(85,301,c),
(75,301,l)
);
},
{
closed = 1;
nodes = (
(256,587,l),
(256,750,l),
(231,750,l),
(231,587,l)
);
},
{
closed = 1;
nodes = (
(423,587,l),
(423,750,l),
(398,750,l),
(398,587,l)
);
},
{
closed = 1;
nodes = (
(256,-213,l),
(256,-50,l),
(231,-50,l),
(231,-213,l)
);
},
{
closed = 1;
nodes = (
(423,-213,l),
(423,-50,l),
(398,-50,l),
(398,-213,l)
);
}
);
width = 644;
}
);
unicode = 36;
}
{
glyphname = percent;
layers = (
{
layerId = "1127FDDC-7967-4E0A-BDB2-81E1CCE90981";
shapes = (
{
closed = 1;
nodes = (
(182,0,l),
(891,715,l),
(853,715,l),
(144,0,l)
);
},
{
closed = 1;
nodes = (
(402,463,o),
(481,519,o),
(481,589,cs),
(481,657,o),
(402,713,o),
(304,713,cs),
(206,713,o),
(127,657,o),
(127,589,cs),
(127,519,o),
(206,463,o),
(304,463,cs)
);
},
{
closed = 1;
nodes = (
(456,539,o),
(380,513,o),
(304,513,cs),
(228,513,o),
(152,539,o),
(152,589,cs),
(152,639,o),
(226,663,o),
(302,663,cs),
(378,663,o),
(456,638,o),
(456,589,cs)
);
},
{
closed = 1;
nodes = (
(797,-15,o),
(876,41,o),
(876,111,cs),
(876,179,o),
(797,235,o),
(699,235,cs),
(601,235,o),
(522,179,o),
(522,111,cs),
(522,41,o),
(601,-15,o),
(699,-15,cs)
);
},
{
closed = 1;
nodes = (
(851,60,o),
(775,35,o),
(698,35,cs),
(623,35,o),
(547,60,o),
(547,111,cs),
(547,161,o),
(622,185,o),
(697,185,cs),
(774,185,o),
(851,160,o),
(851,111,cs)
);
}
);
width = 974;
},
{
associatedMasterId = "B6803316-6B37-45A2-910F-F0CA711B465A";
layerId = "F9F470F0-417F-43EB-A3CE-71B96785AAD1";
name = "Mar 11 19, 11:56";
width = 600;
},
{
layerId = "B6803316-6B37-45A2-910F-F0CA711B465A";
shapes = (
{
closed = 1;
nodes = (
(119,0,l),
(568,715,l),
(534,715,l),
(85,0,l)
);
},
{
closed = 1;
nodes = (
(261,463,o),
(317,519,o),
(317,589,cs),
(317,657,o),
(261,713,o),
(192,713,cs),
(123,713,o),
(67,657,o),
(67,589,cs),
(67,519,o),
(123,463,o),
(192,463,cs)
);
},
{
closed = 1;
nodes = (
(294,533,o),
(241,508,o),
(192,508,cs),
(142,508,o),
(90,533,o),
(90,589,cs),
(90,644,o),
(142,668,o),
(192,668,cs),
(241,668,o),
(294,645,o),
(294,589,cs)
);
},
{
closed = 1;
nodes = (
(536,-14,o),
(592,42,o),
(592,111,cs),
(592,180,o),
(536,236,o),
(468,236,cs),
(398,236,o),
(342,180,o),
(342,111,cs),
(342,42,o),
(398,-14,o),
(468,-14,cs)
);
},
{
closed = 1;
nodes = (
(569,56,o),
(517,31,o),
(468,31,cs),
(418,31,o),
(365,56,o),
(365,111,cs),
(365,167,o),
(418,191,o),
(468,191,cs),
(517,191,o),
(569,167,o),
(569,111,cs)
);
}
);
visible = 1;
width = 642;
},
{
layerId = "52EA2D2A-A4E3-47AA-B963-53B6A9E26FA1";
shapes = (
{
closed = 1;
nodes = (
(144,0,l),
(593,715,l),
(549,715,l),
(100,0,l)
);
},
{
closed = 1;
nodes = (
(281,463,o),
(337,519,o),
(337,589,cs),
(337,657,o),
(281,713,o),
(212,713,cs),
(143,713,o),
(87,657,o),
(87,589,cs),
(87,519,o),
(143,463,o),
(212,463,cs)
);
},
{
closed = 1;
nodes = (
(307,554,o),
(274,518,o),
(212,518,cs),
(149,518,o),
(117,553,o),
(117,588,cs),
(117,623,o),
(149,658,o),
(212,658,cs),
(275,658,o),
(307,624,o),
(307,589,cs)
);
},
{
closed = 1;
nodes = (
(556,-14,o),
(612,42,o),
(612,111,cs),
(612,180,o),
(556,236,o),
(488,236,cs),
(418,236,o),
(362,180,o),
(362,111,cs),
(362,42,o),
(418,-14,o),
(488,-14,cs)
);
},
{
closed = 1;
nodes = (
(582,76,o),
(550,41,o),
(488,41,cs),
(424,41,o),
(392,76,o),
(392,111,cs),
(392,146,o),
(424,181,o),
(488,181,cs),
(551,181,o),
(582,146,o),
(582,111,cs)
);
}
);
width = 680;
},
{
guides = (
{
angle = 90;
pos = (90,1);
}
);
layerId = "ECEC25EE-2268-427F-924A-A8A033D1E43A";
shapes = (
{
closed = 1;
nodes = (
(114,0,l),
(563,715,l),
(539,715,l),
(90,0,l)
);
},
{
closed = 1;
nodes = (
(261,463,o),
(317,519,o),
(317,589,cs),
(317,657,o),
(261,713,o),
(192,713,cs),
(123,713,o),
(67,657,o),
(67,589,cs),
(67,519,o),
(123,463,o),
(192,463,cs)
);
},
{
closed = 1;
nodes = (
(300,527,o),
(246,496,o),
(192,496,cs),
(137,496,o),
(83,527,o),
(83,589,cs),
(83,650,o),
(137,680,o),
(192,680,cs),
(246,680,o),
(300,650,o),
(300,589,cs)
);
},
{
closed = 1;
nodes = (
(536,-14,o),
(592,42,o),
(592,111,cs),
(592,180,o),
(536,236,o),
(468,236,cs),
(398,236,o),
(342,180,o),
(342,111,cs),
(342,42,o),
(398,-14,o),
(468,-14,cs)
);
},
{
closed = 1;
nodes = (
(576,50,o),
(522,19,o),
(468,19,cs),
(413,19,o),
(359,50,o),
(359,111,cs),
(359,173,o),
(413,203,o),
(468,203,cs),
(522,203,o),
(576,173,o),
(576,111,cs)
);
}
);
width = 640;
},
{
layerId = "92782D03-6C32-4A0E-AEF4-B0D65DFAA275";
shapes = (
{
closed = 1;
nodes = (
(196,0,l),
(905,715,l),
(853,715,l),
(144,0,l)
);
},
{
closed = 1;
nodes = (
(412,463,o),
(491,519,o),
(491,589,cs),
(491,657,o),
(412,713,o),
(314,713,cs),
(216,713,o),
(137,657,o),
(137,589,cs),
(137,519,o),
(216,463,o),
(314,463,cs)
);
},
{
closed = 1;
nodes = (
(459,545,o),
(387,523,o),
(314,523,cs),
(242,523,o),
(169,545,o),
(169,589,cs),
(169,632,o),
(240,653,o),
(311,653,cs),
(385,653,o),
(459,631,o),
(459,589,cs)
);
},
{
closed = 1;
nodes = (
(819,-15,o),
(898,41,o),
(898,111,cs),
(898,179,o),
(819,235,o),
(721,235,cs),
(623,235,o),
(544,179,o),
(544,111,cs),
(544,41,o),
(623,-15,o),
(721,-15,cs)
);
},
{
closed = 1;
nodes = (
(866,68,o),
(794,46,o),
(721,46,cs),
(649,46,o),
(576,68,o),
(576,111,cs),
(576,154,o),
(647,175,o),
(719,175,cs),
(792,175,o),
(866,153,o),
(866,111,cs)
);
}
);
width = 1000;
},
{
layerId = "C70D92E6-6044-4AAB-ADF3-B84826DC9CB7";
shapes = (
{
closed = 1;
nodes = (
(174,0,l),
(883,715,l),
(859,715,l),
(150,0,l)
);
},
{
closed = 1;
nodes = (
(402,463,o),
(481,519,o),
(481,589,cs),
(481,657,o),
(402,713,o),
(304,713,cs),
(206,713,o),
(127,657,o),
(127,589,cs),
(127,519,o),
(206,463,o),
(304,463,cs)
);
},
{
closed = 1;
nodes = (
(466,530,o),
(385,501,o),
(304,501,cs),
(223,501,o),
(142,530,o),
(142,589,cs),
(142,647,o),
(222,676,o),
(302,676,cs),
(384,676,o),
(466,646,o),
(466,589,cs)
);
},
{
closed = 1;
nodes = (
(797,-15,o),
(876,41,o),
(876,111,cs),
(876,179,o),
(797,235,o),
(699,235,cs),
(601,235,o),
(522,179,o),
(522,111,cs),
(522,41,o),
(601,-15,o),
(699,-15,cs)
);
},
{
closed = 1;
nodes = (
(861,52,o),
(780,23,o),
(699,23,cs),
(618,23,o),
(537,52,o),
(537,111,cs),
(537,169,o),
(617,198,o),
(697,198,cs),
(779,198,o),
(861,168,o),
(861,111,cs)
);
}
);
width = 981;
}
);
unicode = 37;
}
{
glyphname = ampersand;
layers = (
{
layerId = "B6803316-6B37-45A2-910F-F0CA711B465A";
shapes = (
{
closed = 1;
nodes = (
(627,92,l),
(617,45,o),
(597,27,o),
(578,27,cs),
(547,27,o),
(517,81,o),
(483,131,cs),
(263,459,ls),
(229,509,o),
(206,568,o),
(206,613,cs),
(206,653,o),
(225,682,o),
(272,682,cs),
(336,682,o),
(422,621,o),
(463,480,c),
(473,480,l),
(452,639,l),
(410,691,o),
(355,715,o),
(302,715,cs),
(214,715,o),
(133,650,o),
(133,552,cs),
(133,509,o),
(151,460,o),
(188,405,cs),
(422,59,ls),
(457,7,o),
(497,-15,o),
(534,-15,cs),
(604,-15,o),
(641,24,o),
(650,84,c)
);
},
{
closed = 1;
nodes = (
(421,-15,o),
(556,40,o),
(556,409,c),
(461,409,l),
(462,114,o),
(422,10,o),
(306,10,cs),
(217,10,o),
(152,147,o),
(152,257,cs),
(152,327,o),
(176,378,o),
(223,402,c),
(196,409,l),
(106,372,o),
(57,292,o),
(57,211,cs),
(57,99,o),
(145,-15,o),
(286,-15,cs)
);
},
{
closed = 1;
nodes = (
(556,409,l),
(556,434,l),
(329,434,l),
(329,409,l)
);
}
);
width = 706;
},
{
background = {
shapes = (
{
closed = 0;
nodes = (
(80,207,ls)
);
}
);
};
layerId = "1127FDDC-7967-4E0A-BDB2-81E1CCE90981";
shapes = (
{
closed = 1;
nodes = (
(1097,143,l),
(1086,72,o),
(1061,43,o),
(1026,43,cs),
(991,43,o),
(945,72,o),
(882,114,cs),
(373,459,ls),
(295,512,o),
(263,559,o),
(263,590,cs),
(263,652,o),
(324,678,o),
(406,678,cs),
(526,678,o),
(691,621,o),
(766,538,c),
(776,538,l),
(735,677,l),
(670,702,o),
(584,715,o),
(501,715,cs),
(345,715,o),
(195,669,o),
(195,567,cs),
(195,512,o),
(227,459,o),
(306,405,cs),
(789,73,ls),
(877,12,o),
(940,-14,o),
(993,-14,cs),
(1086,-14,o),
(1110,46,o),
(1121,140,c)
);
},
{
closed = 1;
nodes = (
(772,-15,o),
(1002,83,o),
(1002,431,c),
(905,431,l),
(907,136,o),
(756,10,o),
(542,10,cs),
(358,10,o),
(198,99,o),
(198,221,cs),
(198,311,o),
(273,389,o),
(375,404,c),
(321,409,l),
(154,364,o),
(80,285,o),
(80,207,cs),
(80,94,o),
(236,-15,o),
(502,-15,cs)
);
},
{
closed = 1;
nodes = (
(1002,431,l),
(1002,456,l),
(568,456,l),
(568,431,l)
);
}
);
width = 1199;
},
{
associatedMasterId = "1127FDDC-7967-4E0A-BDB2-81E1CCE90981";
layerId = "1B09392E-AB87-4550-8147-3EEAE4C9C258";
name = "Mar 11 19, 17:40";
shapes = (
{
closed = 1;
nodes = (
(307,410,l),
(309,409,o),
(310,409,o),
(312,409,c),
(190,384,o),
(74,318,o),
(74,221,cs),
(74,55,o),
(261,-15,o),
(493,-15,cs),
(762,-15,o),
(990,100,o),
(993,431,c),
(888,431,l),
(890,136,o),
(751,10,o),
(533,10,cs),
(349,10,o),
(189,99,o),
(189,221,cs),
(189,312,o),
(268,390,o),
(366,404,c),
(366,407,l)
);
},
{
closed = 1;
nodes = (
(1637,-15,l),
(1851,-10,o),
(2066,62,o),
(2069,200,c),
(1955,168,l),
(1951,66,o),
(1794,10,o),
(1640,10,cs),
(1638,10,o),
(1637,10,o),
(1635,10,c)
);
},
{
closed = 1;
nodes = (
(146,354,o),
(939,314,o),
(950,0,c),
(995,-1,l),
(995,395,o),
(253,390,o),
(245,577,cs),
(242,637,o),
(349,690,o),
(458,690,cs),
(551,690,o),
(667,641,o),
(727,538,c),
(737,538,l),
(696,677,l),
(653,703,o),
(582,715,o),
(450,715,cs),
(279,715,o),
(146,649,o),
(146,551,cs)
);
},
{
closed = 1;
nodes = (
(649,431,l),
(993,431,l),
(993,456,l),
(649,456,l)
);
}
);
width = 1339;
},
{
layerId = "52EA2D2A-A4E3-47AA-B963-53B6A9E26FA1";
shapes = (
{
closed = 1;
nodes = (
(791,102,l),
(776,57,o),
(764,37,o),
(749,37,cs),
(730,37,o),
(705,73,o),
(657,131,cs),
(397,459,ls),
(357,510,o),
(333,563,o),
(333,605,cs),
(333,648,o),
(357,678,o),
(405,678,cs),
(480,678,o),
(577,600,o),
(607,480,c),
(647,480,l),
(626,639,l),
(584,691,o),
(499,715,o),
(426,715,cs),
(280,715,o),
(169,639,o),
(169,534,cs),
(169,494,o),
(185,450,o),
(222,405,cs),
(496,59,ls),
(551,-11,o),
(661,-15,o),
(698,-15,cs),
(776,-15,o),
(807,14,o),
(824,91,c)
);
},
{
closed = 1;
nodes = (
(565,-15,o),
(780,40,o),
(780,409,c),
(585,409,l),
(585,184,o),
(556,20,o),
(417,20,cs),
(339,20,o),
(268,105,o),
(268,230,cs),
(268,287,o),
(280,354,o),
(317,414,c),
(299,418,l),
(151,371,o),
(75,309,o),
(75,205,cs),
(75,71,o),
(198,-15,o),
(410,-15,cs)
);
},
{
closed = 1;
nodes = (
(780,409,l),
(780,434,l),
(513,434,l),
(513,409,l)
);
}
);
width = 883;
},
{
layerId = "ECEC25EE-2268-427F-924A-A8A033D1E43A";
shapes = (
{
closed = 1;
nodes = (
(580,88,l),
(562,32,o),
(537,8,o),
(510,8,cs),
(471,8,o),
(427,57,o),
(377,131,cs),
(148,471,ls),
(124,506,o),
(113,544,o),
(113,578,cs),
(113,642,o),
(157,698,o),
(231,698,cs),
(286,698,o),
(376,660,o),
(413,480,c),
(423,480,l),
(402,639,l),
(360,691,o),
(305,715,o),
(248,715,cs),
(140,715,o),
(76,636,o),
(76,550,cs),
(76,517,o),
(86,483,o),
(106,453,cs),
(372,59,ls),
(406,10,o),
(448,-15,o),
(487,-15,cs),
(536,-15,o),
(573,18,o),
(590,84,c)
);
},
{
closed = 1;
nodes = (
(381,-15,o),
(496,50,o),
(496,419,c),
(451,419,l),
(452,104,o),
(379,0,o),
(256,0,cs),
(164,0,o),
(61,81,o),
(61,216,cs),
(61,310,o),
(111,385,o),
(160,402,c),
(146,409,l),
(85,384,o),
(17,318,o),
(17,212,cs),
(17,60,o),
(120,-15,o),
(245,-15,cs)
);
},
{
closed = 1;
nodes = (
(496,419,l),
(496,434,l),
(279,434,l),
(279,419,l)
);
}
);
width = 602;
},
{
layerId = "92782D03-6C32-4A0E-AEF4-B0D65DFAA275";
shapes = (
{
closed = 1;
nodes = (
(1197,143,l),
(1178,99,o),
(1156,82,o),
(1132,82,cs),
(1106,82,o),
(1076,100,o),
(1042,124,cs),
(533,469,ls),
(464,516,o),
(436,559,o),
(436,593,cs),
(436,645,o),
(500,683,o),
(582,683,cs),
(673,683,o),
(787,639,o),
(866,538,c),
(896,538,l),
(855,677,l),
(786,704,o),
(686,718,o),
(584,718,cs),
(389,718,o),
(188,666,o),
(188,545,cs),
(188,500,o),
(221,450,o),
(286,405,cs),
(805,45,ls),
(879,-6,o),
(972,-14,o),
(1018,-14,cs),
(1118,-14,o),
(1212,41,o),
(1228,135,c)
);
},
{
closed = 1;
nodes = (
(824,-14,o),
(1152,92,o),
(1152,421,c),
(883,421,l),
(887,114,o),
(713,21,o),
(569,21,cs),
(418,21,o),
(330,116,o),
(330,232,cs),
(330,307,o),
(347,373,o),
(418,417,c),
(364,422,l),
(162,381,o),
(70,296,o),
(70,203,cs),
(70,81,o),
(242,-14,o),
(540,-14,cs)
);
},
{
closed = 1;
nodes = (
(1152,421,l),
(1152,456,l),
(718,456,l),
(718,421,l)
);
}
);
width = 1303;
},
{
associatedMasterId = "B6803316-6B37-45A2-910F-F0CA711B465A";
layerId = "F0A5C50B-3653-4A78-AE16-A6458D7A32D9";
name = "Apr 18 19, 15:56";
shapes = (
{
closed = 1;
nodes = (
(574,0,l),
(574,10,l),
(246,459,ls),
(205,516,o),
(188,564,o),
(188,601,cs),
(188,656,o),
(217,682,o),
(265,682,cs),
(329,682,o),
(415,621,o),
(456,480,c),
(466,480,l),
(445,639,l),
(403,691,o),
(348,715,o),
(295,715,cs),
(207,715,o),
(126,650,o),
(126,552,cs),
(126,509,o),
(142,459,o),
(181,405,cs),
(476,0,l)
);
},
{
closed = 1;
nodes = (
(414,-15,o),
(539,40,o),
(539,409,c),
(454,409,l),
(455,114,o),
(415,10,o),
(299,10,cs),
(207,10,o),
(155,99,o),
(155,221,cs),
(155,310,o),
(167,385,o),
(216,402,c),
(189,409,l),
(128,384,o),
(60,318,o),
(60,221,cs),
(60,55,o),
(163,-15,o),
(279,-15,cs)
);
},
{
closed = 1;
nodes = (
(539,409,l),
(539,434,l),
(322,434,l),
(322,409,l)
);
}
);
width = 634;
},
{
associatedMasterId = "1127FDDC-7967-4E0A-BDB2-81E1CCE90981";
layerId = "9A7DB9E0-EA2B-4F62-9894-339F9EA057B4";
name = "Apr 18 19, 16:04";
shapes = (
{
closed = 1;
nodes = (
(1048,0,l),
(1048,10,l),
(390,459,ls),
(312,513,o),
(280,559,o),
(280,590,cs),
(280,647,o),
(346,677,o),
(433,677,cs),
(536,677,o),
(667,635,o),
(753,538,c),
(763,538,l),
(722,677,l),
(651,704,o),
(577,716,o),
(508,716,cs),
(346,716,o),
(212,655,o),
(212,567,cs),
(212,512,o),
(245,459,o),
(323,405,cs),
(912,0,l)
);
},
{
closed = 1;
nodes = (
(788,-15,o),
(1016,100,o),
(1019,431,c),
(914,431,l),
(916,136,o),
(777,10,o),
(559,10,cs),
(375,10,o),
(215,99,o),
(215,221,cs),
(215,310,o),
(294,390,o),
(392,407,c),
(338,409,l),
(216,384,o),
(100,318,o),
(100,221,cs),
(100,55,o),
(287,-15,o),
(519,-15,cs)
);
},
{
closed = 1;
nodes = (
(1019,431,l),
(1019,456,l),
(585,456,l),
(585,431,l)
);
}
);
width = 1188;
},
{
background = {
shapes = (
{
closed = 1;
nodes = (
(1104,102,l),
(1092,32,o),
(1063,1,o),
(1021,1,cs),
(993,1,o),
(959,14,o),
(919,42,cs),
(343,441,ls),
(296,474,o),
(248,502,o),
(248,563,cs),
(248,642,o),
(341,693,o),
(490,693,cs),
(609,693,o),
(737,667,o),
(796,538,c),
(806,538,l),
(765,677,l),
(700,702,o),
(614,715,o),
(511,715,cs),
(355,715,o),
(205,654,o),
(205,548,cs),
(205,500,o),
(232,463,o),
(316,405,cs),
(799,73,ls),
(879,18,o),
(951,-15,o),
(1006,-15,cs),
(1074,-15,o),
(1102,18,o),
(1118,98,c)
);
},
{
closed = 1;
nodes = (
(762,-15,o),
(1012,93,o),
(1012,441,c),
(972,441,l),
(976,141,o),
(751,0,o),
(506,0,cs),
(281,0,o),
(138,105,o),
(138,212,cs),
(138,283,o),
(201,355,o),
(345,398,c),
(331,409,l),
(209,384,o),
(93,318,o),
(93,206,cs),
(93,55,o),
(280,-15,o),
(512,-15,cs)
);
},
{
closed = 1;
nodes = (
(1012,441,l),
(1012,456,l),
(578,456,l),
(578,441,l)
);
}
);
};
layerId = "C70D92E6-6044-4AAB-ADF3-B84826DC9CB7";
shapes = (
{
closed = 1;
nodes = (
(1104,102,l),
(1092,32,o),
(1063,1,o),
(1021,1,cs),
(993,1,o),
(959,14,o),
(919,42,cs),
(343,441,ls),
(296,474,o),
(248,502,o),
(248,563,cs),
(248,642,o),
(341,693,o),
(490,693,cs),
(609,693,o),
(737,667,o),
(796,538,c),
(806,538,l),
(765,677,l),
(700,702,o),
(614,715,o),
(511,715,cs),
(355,715,o),
(205,654,o),
(205,548,cs),
(205,500,o),
(232,463,o),
(316,405,cs),
(799,73,ls),
(879,18,o),
(951,-15,o),
(1006,-15,cs),
(1074,-15,o),
(1102,18,o),
(1118,98,c)
);
},
{
closed = 1;
nodes = (
(762,-15,o),
(1012,93,o),
(1012,441,c),
(972,441,l),
(976,141,o),
(751,0,o),
(506,0,cs),
(281,0,o),
(137,105,o),
(137,212,cs),
(137,283,o),
(201,355,o),
(345,398,c),
(331,409,l),
(162,362,o),
(92,284,o),
(92,207,cs),
(92,94,o),
(250,-15,o),
(512,-15,cs)
);
},
{
closed = 1;
nodes = (
(1012,441,l),
(1012,456,l),
(578,456,l),
(578,441,l)
);
}
);
width = 1194;
},
{
associatedMasterId = "C70D92E6-6044-4AAB-ADF3-B84826DC9CB7";
layerId = "744D71CB-24B6-4306-8A32-56AB4D7A3570";
name = "Aug 27 19, 16:47";
shapes = (
{
closed = 1;
nodes = (
(1002,441,l),
(1002,456,l),
(568,456,l),
(568,441,l)
);
},
{
closed = 1;
nodes = (
(1097,143,l),
(1094,32,o),
(1044,2,o),
(1009,2,cs),
(971,2,o),
(930,28,o),
(909,42,cs),
(333,441,ls),
(286,474,o),
(238,502,o),
(238,563,cs),
(238,642,o),
(331,693,o),
(480,693,cs),
(599,693,o),
(727,667,o),
(786,538,c),
(796,538,l),
(755,677,l),
(690,702,o),
(604,715,o),
(501,715,cs),
(345,715,o),
(195,654,o),
(195,548,cs),
(195,500,o),
(222,463,o),
(306,405,cs),
(789,73,ls),
(877,12,o),
(940,-14,o),
(1026,-14,cs),
(1056,-14,o),
(1102,25,o),
(1107,140,c)
);
},
{
closed = 1;
nodes = (
(752,-15,o),
(1002,93,o),
(1002,441,c),
(962,441,l),
(966,141,o),
(741,0,o),
(496,0,cs),
(321,0,o),
(128,79,o),
(128,206,cs),
(128,311,o),
(233,383,o),
(335,398,c),
(321,409,l),
(199,384,o),
(83,318,o),
(83,206,cs),
(83,55,o),
(270,-15,o),
(502,-15,cs)
);
}
);
width = 1204;
},
{
associatedMasterId = "ECEC25EE-2268-427F-924A-A8A033D1E43A";
layerId = "817FD55C-EEDB-41A1-A61D-7D3F6731E204";
name = "Aug 27 19, 17:01";
shapes = (
{
closed = 1;
nodes = (
(620,41,o),
(558,0,o),
(539,0,cs),
(508,0,o),
(460,82,o),
(427,131,cs),
(199,471,ls),
(174,509,o),
(167,532,o),
(167,568,cs),
(167,637,o),
(208,700,o),
(281,700,cs),
(336,700,o),
(426,660,o),
(463,480,c),
(473,480,l),
(452,639,l),
(410,691,o),
(355,715,o),
(298,715,cs),
(182,715,o),
(123,640,o),
(123,558,cs),
(123,522,o),
(134,485,o),
(156,453,cs),
(422,59,ls),
(457,7,o),
(497,-15,o),
(534,-15,cs),
(604,-15,o),
(631,24,o),
(640,84,c),
(630,88,l)
);
},
{
closed = 1;
nodes = (
(431,-15,o),
(546,50,o),
(546,419,c),
(501,419,l),
(502,124,o),
(429,0,o),
(306,0,cs),
(214,0,o),
(112,99,o),
(112,221,cs),
(112,310,o),
(174,385,o),
(223,402,c),
(196,409,l),
(135,384,o),
(67,318,o),
(67,221,cs),
(67,55,o),
(170,-15,o),
(286,-15,cs)
);
},
{
closed = 1;
nodes = (
(546,419,l),
(546,434,l),
(329,434,l),
(329,419,l)
);
}
);
width = 600;
},
{
associatedMasterId = "92782D03-6C32-4A0E-AEF4-B0D65DFAA275";
layerId = "7D1CB9FA-3288-4B8C-B423-B7E8F91F2649";
name = "Aug 27 19, 18:04";
shapes = (
{
closed = 1;
nodes = (
(1002,421,l),
(1002,456,l),
(568,456,l),
(568,421,l)
);
},
{
closed = 1;
nodes = (
(1097,143,l),
(1086,72,o),
(1077,42,o),
(1055,42,cs),
(1034,42,o),
(1001,69,o),
(942,114,cs),
(483,459,ls),
(406,517,o),
(264,676,o),
(406,676,cs),
(526,676,o),
(691,639,o),
(766,538,c),
(796,538,l),
(755,677,l),
(690,702,o),
(584,715,o),
(501,715,cs),
(126,715,o),
(45,552,o),
(236,405,cs),
(705,45,ls),
(776,-9,o),
(940,-14,o),
(986,-14,cs),
(1086,-14,o),
(1110,46,o),
(1121,140,c)
);
},
{
closed = 1;
nodes = (
(203,-14,o),
(440,-14,cs),
(764,-14,o),
(1002,92,o),
(1002,421,c),
(733,421,l),
(735,142,o),
(573,20,o),
(469,20,cs),
(318,20,o),
(230,116,o),
(230,232,cs),
(230,307,o),
(247,373,o),
(318,417,c),
(264,422,l),
(142,397,o),
(-17,361,o),
(-17,204,cs),
(-17,59,o)
);
}
);
width = 1197;
},
{
associatedMasterId = "52EA2D2A-A4E3-47AA-B963-53B6A9E26FA1";
layerId = "6459E7BF-86D4-411F-A154-0DEBAFC58A73";
name = "Aug 29 19, 11:21";
shapes = (
{
closed = 1;
nodes = (
(791,102,l),
(776,57,o),
(764,37,o),
(749,37,cs),
(730,37,o),
(705,73,o),
(657,131,cs),
(397,459,ls),
(357,510,o),
(333,563,o),
(333,605,cs),
(333,648,o),
(357,678,o),
(405,678,cs),
(480,678,o),
(577,600,o),
(607,480,c),
(647,480,l),
(626,639,l),
(584,691,o),
(499,715,o),
(426,715,cs),
(280,715,o),
(169,639,o),
(169,534,cs),
(169,494,o),
(185,450,o),
(222,405,cs),
(496,59,ls),
(551,-11,o),
(661,-15,o),
(698,-15,cs),
(760,-15,o),
(807,14,o),
(824,91,c)
);
},
{
closed = 1;
nodes = (
(565,-15,o),
(760,40,o),
(760,409,c),
(565,409,l),
(565,214,o),
(556,20,o),
(417,20,cs),
(339,20,o),
(268,105,o),
(268,230,cs),
(268,287,o),
(283,350,o),
(317,414,c),
(299,418,l),
(151,371,o),
(75,309,o),
(75,205,cs),
(75,71,o),
(198,-15,o),
(410,-15,cs)
);
},
{
closed = 1;
nodes = (
(760,409,l),
(760,434,l),
(493,434,l),
(493,409,l)
);
}
);
width = 883;
}
);
unicode = 38;
}
{
glyphname = quotesingle;
layers = (
{
layerId = "B6803316-6B37-45A2-910F-F0CA711B465A";
shapes = (
{
closed = 1;
nodes = (
(148,501,o),
(198,540,o),
(192,653,cs),
(190,691,o),
(165,715,o),
(132,715,cs),
(99,715,o),
(72,688,o),
(72,655,cs),
(72,622,o),
(99,595,o),
(132,595,cs),
(143,595,o),
(153,598,o),
(161,603,c),
(169,548,o),
(124,512,o),
(78,497,c),
(85,481,l)
);
}
);
width = 271;
},
{
layerId = "1127FDDC-7967-4E0A-BDB2-81E1CCE90981";
shapes = (
{
closed = 1;
nodes = (
(208,510,o),
(231,567,o),
(225,654,cs),
(222,691,o),
(195,714,o),
(150,714,cs),
(103,714,o),
(75,689,o),
(75,654,cs),
(75,619,o),
(102,594,o),
(150,594,cs),
(164,594,o),
(181,595,o),
(194,603,c),
(200,548,o),
(167,514,o),
(131,497,c),
(138,481,l)
);
}
);
width = 323;
},
{
layerId = "52EA2D2A-A4E3-47AA-B963-53B6A9E26FA1";
shapes = (
{
closed = 1;
nodes = (
(176,496,o),
(189,575,o),
(185,643,cs),
(182,687,o),
(150,714,o),
(114,714,cs),
(76,714,o),
(45,686,o),
(45,645,cs),
(45,603,o),
(78,575,o),
(114,575,cs),
(124,575,o),
(133,577,o),
(142,581,c),
(148,532,o),
(111,499,o),
(69,488,c),
(76,464,l)
);
}
);
width = 240;
},
{
layerId = "ECEC25EE-2268-427F-924A-A8A033D1E43A";
shapes = (
{
closed = 1;
nodes = (
(143,559,o),
(171,610,o),
(169,677,cs),
(168,705,o),
(153,715,o),
(136,715,cs),
(117,715,o),
(101,701,o),
(101,682,cs),
(101,662,o),
(117,649,o),
(134,649,cs),
(138,649,o),
(141,650,o),
(145,651,c),
(148,611,o),
(125,571,o),
(86,560,c),
(92,546,l)
);
}
);
width = 267;
},
{
layerId = "92782D03-6C32-4A0E-AEF4-B0D65DFAA275";
shapes = (
{
closed = 1;
nodes = (
(205,473,o),
(233,541,o),
(226,645,cs),
(222,689,o),
(190,717,o),
(136,717,cs),
(80,717,o),
(47,687,o),
(47,645,cs),
(47,603,o),
(78,573,o),
(136,573,cs),
(153,573,o),
(173,575,o),
(189,584,c),
(196,519,o),
(156,478,o),
(113,458,c),
(122,439,l)
);
}
);
width = 297;
},
{
layerId = "C70D92E6-6044-4AAB-ADF3-B84826DC9CB7";
shapes = (
{
closed = 1;
nodes = (
(148,556,o),
(177,592,o),
(172,686,cs),
(171,706,o),
(156,715,o),
(138,715,cs),
(122,715,o),
(104,706,o),
(104,687,cs),
(104,666,o),
(122,656,o),
(138,656,cs),
(142,656,o),
(146,656,o),
(151,657,c),
(155,607,o),
(137,569,o),
(85,548,c),
(91,535,l)
);
}
);
width = 277;
}
);
unicode = 39;
}
{
glyphname = parenleft;
layers = (
{
layerId = "B6803316-6B37-45A2-910F-F0CA711B465A";
shapes = (
{
closed = 1;
nodes = (
(285,-80,l),
(161,19,o),
(110,166,o),
(111,330,cs),
(112,495,o),
(162,643,o),
(286,741,c),
(274,758,l),
(133,660,o),
(49,505,o),
(48,330,cs),
(47,155,o),
(133,2,o),
(272,-97,c)
);
}
);
width = 306;
},
{
layerId = "1127FDDC-7967-4E0A-BDB2-81E1CCE90981";
shapes = (
{
closed = 1;
nodes = (
(402,-145,l),
(225,-55,o),
(135,110,o),
(134,300,cs),
(133,492,o),
(224,659,o),
(406,746,c),
(399,762,l),
(205,679,o),
(65,505,o),
(64,300,cs),
(63,95,o),
(203,-79,o),
(396,-162,c)
);
}
);
width = 448;
},
{
associatedMasterId = "1127FDDC-7967-4E0A-BDB2-81E1CCE90981";
layerId = "6EF6CBD8-3B11-4F9A-A28F-270600F1A115";
name = "Mar 5 19, 18:03";
shapes = (
{
closed = 1;
nodes = (
(510,760,l),
(267,697,o),
(80,495,o),
(80,262,cs),
(80,28,o),
(267,-164,o),
(510,-223,c),
(460,-184,l),
(271,-124,o),
(150,45,o),
(150,262,cs),
(150,489,o),
(271,660,o),
(460,722,c)
);
}
);
width = 600;
},
{
layerId = "52EA2D2A-A4E3-47AA-B963-53B6A9E26FA1";
shapes = (
{
closed = 1;
nodes = (
(284,-70,l),
(160,29,o),
(135,176,o),
(136,330,cs),
(137,485,o),
(160,633,o),
(284,731,c),
(262,758,l),
(121,660,o),
(27,505,o),
(26,330,cs),
(25,155,o),
(121,2,o),
(260,-97,c)
);
}
);
width = 287;
},
{
layerId = "ECEC25EE-2268-427F-924A-A8A033D1E43A";
shapes = (
{
closed = 1;
nodes = (
(266,-83,l),
(142,16,o),
(71,166,o),
(72,330,cs),
(73,495,o),
(143,646,o),
(267,744,c),
(266,758,l),
(125,660,o),
(41,505,o),
(40,330,cs),
(39,155,o),
(126,2,o),
(265,-97,c)
);
}
);
width = 330;
},
{
layerId = "92782D03-6C32-4A0E-AEF4-B0D65DFAA275";
shapes = (
{
closed = 1;
nodes = (
(385,-135,l),
(208,-45,o),
(151,110,o),
(150,300,cs),
(149,492,o),
(206,648,o),
(388,735,c),
(375,762,l),
(181,679,o),
(41,505,o),
(40,300,cs),
(39,95,o),
(179,-79,o),
(372,-162,c)
);
}
);
width = 408;
},
{
layerId = "C70D92E6-6044-4AAB-ADF3-B84826DC9CB7";
shapes = (
{
closed = 1;
nodes = (
(403,-148,l),
(226,-58,o),
(101,110,o),
(100,300,cs),
(99,492,o),
(225,659,o),
(407,746,c),
(403,760,l),
(209,677,o),
(69,505,o),
(68,300,cs),
(67,95,o),
(207,-79,o),
(400,-162,c)
);
}
);
width = 454;
}
);
unicode = 40;
}
{
glyphname = parenright;
layers = (
{
layerId = "B6803316-6B37-45A2-910F-F0CA711B465A";
shapes = (
{
closed = 1;
nodes = (
(172,2,o),
(258,155,o),
(257,330,cs),
(256,505,o),
(172,660,o),
(31,758,c),
(19,741,l),
(143,643,o),
(193,495,o),
(194,330,cs),
(195,166,o),
(144,19,o),
(20,-80,c),
(33,-97,l)
);
}
);
width = 305;
},
{
layerId = "1127FDDC-7967-4E0A-BDB2-81E1CCE90981";
shapes = (
{
closed = 1;
nodes = (
(245,-79,o),
(385,95,o),
(384,300,cs),
(383,505,o),
(243,679,o),
(49,762,c),
(42,746,l),
(222,657,o),
(315,491,o),
(314,300,cs),
(313,110,o),
(223,-55,o),
(46,-145,c),
(52,-162,l)
);
}
);
width = 448;
},
{
layerId = "52EA2D2A-A4E3-47AA-B963-53B6A9E26FA1";
shapes = (
{
closed = 1;
nodes = (
(165,2,o),
(261,155,o),
(260,330,cs),
(259,505,o),
(165,660,o),
(24,758,c),
(2,731,l),
(126,633,o),
(149,485,o),
(150,330,cs),
(151,176,o),
(126,29,o),
(2,-70,c),
(26,-97,l)
);
}
);
width = 286;
},
{
layerId = "ECEC25EE-2268-427F-924A-A8A033D1E43A";
shapes = (
{
closed = 1;
nodes = (
(202,2,o),
(288,155,o),
(287,330,cs),
(286,505,o),
(202,660,o),
(61,758,c),
(60,744,l),
(184,646,o),
(254,495,o),
(255,330,cs),
(256,166,o),
(184,16,o),
(60,-83,c),
(63,-97,l)
);
}
);
width = 327;
},
{
layerId = "92782D03-6C32-4A0E-AEF4-B0D65DFAA275";
shapes = (
{
closed = 1;
nodes = (
(229,-79,o),
(369,95,o),
(368,300,cs),
(367,505,o),
(227,679,o),
(33,762,c),
(20,735,l),
(202,648,o),
(259,492,o),
(258,300,cs),
(257,110,o),
(200,-45,o),
(23,-135,c),
(36,-162,l)
);
}
);
width = 408;
},
{
layerId = "C70D92E6-6044-4AAB-ADF3-B84826DC9CB7";
shapes = (
{
closed = 1;
nodes = (
(246,-79,o),
(386,95,o),
(385,300,cs),
(384,505,o),
(244,677,o),
(50,760,c),
(47,746,l),
(229,659,o),
(354,492,o),
(353,300,cs),
(352,110,o),
(227,-58,o),
(50,-148,c),
(53,-162,l)
);
}
);
width = 453;
}
);
unicode = 41;
}
{
glyphname = asterisk;
layers = (
{
layerId = "B6803316-6B37-45A2-910F-F0CA711B465A";
shapes = (
{
closed = 1;
nodes = (
(393,655,l),
(257,553,l),
(271,715,l),
(222,715,l),
(238,551,l),
(100,655,l),
(73,617,l),
(232,537,l),
(73,454,l),
(100,417,l),
(239,522,l),
(222,356,l),
(271,356,l),
(256,521,l),
(393,417,l),
(420,454,l),
(261,537,l),
(420,617,l)
);
}
);
width = 493;
},
{
layerId = "1127FDDC-7967-4E0A-BDB2-81E1CCE90981";
shapes = (
{
closed = 1;
nodes = (
(543,638,l),
(339,526,l),
(358,715,l),
(301,715,l),
(321,526,l),
(118,638,l),
(90,588,l),
(308,513,l),
(90,436,l),
(118,386,l),
(321,499,l),
(301,309,l),
(358,309,l),
(339,499,l),
(543,386,l),
(571,436,l),
(353,513,l),
(571,588,l)
);
}
);
width = 661;
},
{
associatedMasterId = "1127FDDC-7967-4E0A-BDB2-81E1CCE90981";
layerId = "DD7C24EC-64C5-48C7-B85E-36D608F0C141";
name = "Mar 4 19, 15:01";
shapes = (
{
closed = 1;
nodes = (
(269,715,l),
(287,522,l),
(269,329,l),
(318,329,l),
(302,522,l),
(318,715,l)
);
},
{
closed = 1;
nodes = (
(120,610,l),
(290,517,l),
(440,394,l),
(467,434,l),
(298,529,l),
(147,650,l)
);
},
{
closed = 1;
nodes = (
(289,529,l),
(120,434,l),
(147,394,l),
(297,517,l),
(467,610,l),
(440,650,l)
);
}
);
width = 600;
},
{
associatedMasterId = "1127FDDC-7967-4E0A-BDB2-81E1CCE90981";
layerId = "84FB5611-B18D-4520-AC59-90C500616C79";
name = "Mar 4 19, 15:05";
shapes = (
{
closed = 1;
nodes = (
(265,715,l),
(287,512,l),
(265,309,l),
(322,309,l),
(302,512,l),
(322,715,l)
);
},
{
closed = 1;
nodes = (
(54,588,l),
(291,506,l),
(507,386,l),
(535,436,l),
(299,519,l),
(82,638,l)
);
},
{
closed = 1;
nodes = (
(290,519,l),
(54,436,l),
(82,386,l),
(298,506,l),
(535,588,l),
(507,638,l)
);
}
);
width = 600;
},
{
layerId = "52EA2D2A-A4E3-47AA-B963-53B6A9E26FA1";
shapes = (
{
closed = 1;
nodes = (
(416,631,l),
(265,542,l),
(281,714,l),
(211,714,l),
(227,545,l),
(76,634,l),
(46,570,l),
(203,514,l),
(47,457,l),
(76,394,l),
(227,483,l),
(211,306,l),
(281,306,l),
(264,486,l),
(416,397,l),
(446,460,l),
(297,514,l),
(446,567,l)
);
}
);
width = 493;
},
{
layerId = "ECEC25EE-2268-427F-924A-A8A033D1E43A";
shapes = (
{
closed = 1;
nodes = (
(431,624,l),
(269,539,l),
(278,715,l),
(242,715,l),
(254,537,l),
(89,624,l),
(74,592,l),
(241,527,l),
(74,465,l),
(89,432,l),
(255,516,l),
(242,324,l),
(278,324,l),
(268,515,l),
(431,432,l),
(446,465,l),
(279,527,l),
(446,592,l)
);
}
);
width = 532;
},
{
layerId = "92782D03-6C32-4A0E-AEF4-B0D65DFAA275";
shapes = (
{
closed = 1;
nodes = (
(434,626,l),
(286,545,l),
(299,715,l),
(229,715,l),
(241,549,l),
(93,630,l),
(64,567,l),
(212,513,l),
(64,459,l),
(93,395,l),
(241,476,l),
(229,309,l),
(299,309,l),
(285,480,l),
(434,399,l),
(463,463,l),
(326,513,l),
(463,563,l)
);
}
);
width = 527;
},
{
layerId = "C70D92E6-6044-4AAB-ADF3-B84826DC9CB7";
shapes = (
{
closed = 1;
nodes = (
(467,610,l),
(297,527,l),
(304,715,l),
(270,715,l),
(277,527,l),
(107,610,l),
(94,579,l),
(263,512,l),
(96,445,l),
(107,415,l),
(277,498,l),
(270,309,l),
(304,309,l),
(297,498,l),
(467,415,l),
(478,445,l),
(311,512,l),
(480,579,l)
);
}
);
width = 574;
},
{
associatedMasterId = "ECEC25EE-2268-427F-924A-A8A033D1E43A";
layerId = "ECAD3A2C-64B9-465C-B66E-CFC4E7230CD4";
name = "May 9 19, 16:27";
shapes = (
{
closed = 1;
nodes = (
(275,700,l),
(288,505,l),
(275,309,l),
(311,309,l),
(301,505,l),
(311,700,l)
);
},
{
closed = 1;
nodes = (
(464,609,l),
(291,518,l),
(107,450,l),
(122,417,l),
(297,506,l),
(479,577,l)
);
},
{
closed = 1;
nodes = (
(289,506,l),
(464,417,l),
(479,450,l),
(295,518,l),
(122,609,l),
(107,577,l)
);
}
);
width = 600;
},
{
associatedMasterId = "52EA2D2A-A4E3-47AA-B963-53B6A9E26FA1";
layerId = "C82F477E-A653-4D2C-A80C-E3340AB4BDD1";
name = "May 9 19, 16:32";
shapes = (
{
closed = 1;
nodes = (
(258,714,l),
(277,510,l),
(258,306,l),
(328,306,l),
(309,510,l),
(328,714,l)
);
},
{
closed = 1;
nodes = (
(463,631,l),
(286,527,l),
(94,457,l),
(123,394,l),
(300,498,l),
(493,567,l)
);
},
{
closed = 1;
nodes = (
(286,501,l),
(463,397,l),
(493,460,l),
(300,530,l),
(123,634,l),
(93,570,l)
);
}
);
width = 600;
},
{
associatedMasterId = "C70D92E6-6044-4AAB-ADF3-B84826DC9CB7";
layerId = "C6A07F47-5CB4-449C-AF6D-FD61E784AAF8";
name = "May 9 19, 16:36";
shapes = (
{
closed = 1;
nodes = (
(277,715,l),
(285,512,l),
(277,309,l),
(311,309,l),
(303,512,l),
(311,715,l)
);
},
{
closed = 1;
nodes = (
(474,610,l),
(291,521,l),
(103,445,l),
(114,415,l),
(299,505,l),
(487,579,l)
);
},
{
closed = 1;
nodes = (
(289,505,l),
(474,415,l),
(485,445,l),
(297,521,l),
(114,610,l),
(101,579,l)
);
}
);
width = 600;
},
{
associatedMasterId = "92782D03-6C32-4A0E-AEF4-B0D65DFAA275";
layerId = "19DF67B5-B694-48FF-BA57-BEB234A44323";
name = "May 9 19, 16:40";
shapes = (
{
closed = 1;
nodes = (
(259,715,l),
(274,512,l),
(259,309,l),
(329,309,l),
(313,512,l),
(329,715,l)
);
},
{
closed = 1;
nodes = (
(464,626,l),
(286,529,l),
(94,459,l),
(123,395,l),
(302,493,l),
(493,563,l)
);
},
{
closed = 1;
nodes = (
(285,497,l),
(464,399,l),
(493,463,l),
(301,533,l),
(123,630,l),
(94,567,l)
);
}
);
width = 600;
}
);
unicode = 42;
}
{
glyphname = plus;
layers = (
{
layerId = "ECEC25EE-2268-427F-924A-A8A033D1E43A";
shapes = (
{
closed = 1;
nodes = (
(90,246,l),
(563,246,l),
(563,266,l),
(90,266,l)
);
},
{
closed = 1;
nodes = (
(334,10,l),
(334,492,l),
(319,492,l),
(319,10,l)
);
}
);
width = 653;
},
{
layerId = "B6803316-6B37-45A2-910F-F0CA711B465A";
shapes = (
{
closed = 1;
nodes = (
(90,236,l),
(563,236,l),
(563,266,l),
(90,266,l)
);
},
{
closed = 1;
nodes = (
(339,10,l),
(339,492,l),
(314,492,l),
(314,10,l)
);
}
);
width = 653;
},
{
layerId = "52EA2D2A-A4E3-47AA-B963-53B6A9E26FA1";
shapes = (
{
closed = 1;
nodes = (
(80,231,l),
(553,231,l),
(553,271,l),
(80,271,l)
);
},
{
closed = 1;
nodes = (
(334,10,l),
(334,492,l),
(299,492,l),
(299,10,l)
);
}
);
width = 633;
},
{
layerId = "C70D92E6-6044-4AAB-ADF3-B84826DC9CB7";
shapes = (
{
closed = 1;
nodes = (
(110,246,l),
(923,246,l),
(923,266,l),
(110,266,l)
);
},
{
closed = 1;
nodes = (
(524,10,l),
(524,492,l),
(509,492,l),
(509,10,l)
);
}
);
width = 1033;
},
{
layerId = "1127FDDC-7967-4E0A-BDB2-81E1CCE90981";
shapes = (
{
closed = 1;
nodes = (
(100,241,l),
(913,241,l),
(913,271,l),
(100,271,l)
);
},
{
closed = 1;
nodes = (
(519,10,l),
(519,492,l),
(494,492,l),
(494,10,l)
);
}
);
width = 1013;
},
{
layerId = "92782D03-6C32-4A0E-AEF4-B0D65DFAA275";
shapes = (
{
closed = 1;
nodes = (
(80,236,l),
(893,236,l),
(893,276,l),
(80,276,l)
);
},
{
closed = 1;
nodes = (
(504,10,l),
(504,492,l),
(469,492,l),
(469,10,l)
);
}
);
width = 973;
}
);
unicode = 43;
}
{
glyphname = comma;
layers = (
{
layerId = "1127FDDC-7967-4E0A-BDB2-81E1CCE90981";
shapes = (
{
closed = 1;
nodes = (
(203,-145,o),
(244,-70,o),
(244,40,cs),
(244,86,o),
(217,108,o),
(169,108,cs),
(121,108,o),
(94,80,o),
(94,45,cs),
(94,10,o),
(121,-15,o),
(169,-15,cs),
(186,-15,o),
(199,-15,o),
(213,-7,c),
(213,-62,o),
(180,-132,o),
(122,-144,c),
(126,-162,l)
);
}
);
width = 355;
},
{
layerId = "B6803316-6B37-45A2-910F-F0CA711B465A";
shapes = (
{
closed = 1;
nodes = (
(171,-145,o),
(212,-70,o),
(212,40,cs),
(212,78,o),
(185,105,o),
(152,105,cs),
(119,105,o),
(92,78,o),
(92,45,cs),
(92,12,o),
(119,-15,o),
(152,-15,cs),
(163,-15,o),
(173,-12,o),
(181,-7,c),
(181,-62,o),
(148,-132,o),
(70,-144,c),
(74,-162,l)
);
}
);
width = 302;
},
{
layerId = "52EA2D2A-A4E3-47AA-B963-53B6A9E26FA1";
shapes = (
{
closed = 1;
nodes = (
(187,-120,o),
(205,-15,o),
(200,53,cs),
(197,97,o),
(165,124,o),
(129,124,cs),
(91,124,o),
(60,96,o),
(60,55,cs),
(60,13,o),
(93,-15,o),
(129,-15,cs),
(139,-15,o),
(148,-13,o),
(157,-9,c),
(163,-58,o),
(123,-117,o),
(56,-143,c),
(63,-167,l)
);
}
);
width = 261;
},
{
layerId = "ECEC25EE-2268-427F-924A-A8A033D1E43A";
shapes = (
{
closed = 1;
nodes = (
(102,-119,o),
(118,-46,o),
(116,13,cs),
(115,41,o),
(97,51,o),
(80,51,cs),
(61,51,o),
(45,37,o),
(45,18,cs),
(45,-2,o),
(61,-15,o),
(78,-15,cs),
(82,-15,o),
(85,-14,o),
(89,-13,c),
(92,-53,o),
(80,-112,o),
(10,-144,c),
(14,-154,l)
);
}
);
width = 133;
},
{
layerId = "92782D03-6C32-4A0E-AEF4-B0D65DFAA275";
shapes = (
{
closed = 1;
nodes = (
(224,-130,o),
(251,-61,o),
(243,57,cs),
(240,101,o),
(207,129,o),
(153,129,cs),
(97,129,o),
(64,99,o),
(64,57,cs),
(64,15,o),
(95,-15,o),
(153,-15,cs),
(170,-15,o),
(190,-13,o),
(206,-4,c),
(214,-72,o),
(153,-140,o),
(90,-160,c),
(99,-179,l)
);
}
);
width = 324;
},
{
layerId = "C70D92E6-6044-4AAB-ADF3-B84826DC9CB7";
shapes = (
{
closed = 1;
nodes = (
(171,-122,o),
(201,-65,o),
(197,15,c),
(196,35,o),
(181,44,o),
(163,44,c),
(147,44,o),
(129,35,o),
(129,16,c),
(129,-5,o),
(147,-15,o),
(163,-15,c),
(167,-15,o),
(171,-15,o),
(176,-14,cs),
(180,-64,o),
(144,-123,o),
(90,-143,cs),
(94,-153,ls)
);
}
);
width = 314;
}
);
unicode = 44;
}
{
glyphname = hyphen;
layers = (
{
layerId = "1127FDDC-7967-4E0A-BDB2-81E1CCE90981";
shapes = (
{
closed = 1;
nodes = (
(94,241,l),
(406,241,l),
(406,266,l),
(94,266,l)
);
}
);
width = 500;
},
{
layerId = "B6803316-6B37-45A2-910F-F0CA711B465A";
shapes = (
{
closed = 1;
nodes = (
(80,236,l),
(392,236,l),
(392,266,l),
(80,266,l)
);
}
);
width = 472;
},
{
layerId = "52EA2D2A-A4E3-47AA-B963-53B6A9E26FA1";
shapes = (
{
closed = 1;
nodes = (
(61,226,l),
(373,226,l),
(373,286,l),
(61,286,l)
);
}
);
width = 434;
},
{
layerId = "ECEC25EE-2268-427F-924A-A8A033D1E43A";
shapes = (
{
closed = 1;
nodes = (
(50,246,l),
(362,246,l),
(362,266,l),
(50,266,l)
);
}
);
width = 412;
},
{
layerId = "92782D03-6C32-4A0E-AEF4-B0D65DFAA275";
shapes = (
{
closed = 1;
nodes = (
(74,226,l),
(386,226,l),
(386,286,l),
(74,286,l)
);
}
);
width = 460;
},
{
layerId = "C70D92E6-6044-4AAB-ADF3-B84826DC9CB7";
shapes = (
{
closed = 1;
nodes = (
(98,246,l),
(410,246,l),
(410,266,l),
(98,266,l)
);
}
);
width = 508;
}
);
unicode = 45;
}
{
glyphname = period;
layers = (
{
layerId = "1127FDDC-7967-4E0A-BDB2-81E1CCE90981";
shapes = (
{
closed = 1;
nodes = (
(243,-15,o),
(270,10,o),
(270,45,cs),
(270,80,o),
(243,105,o),
(195,105,cs),
(147,105,o),
(120,80,o),
(120,45,cs),
(120,10,o),
(147,-15,o),
(195,-15,cs)
);
}
);
width = 392;
},
{
layerId = "B6803316-6B37-45A2-910F-F0CA711B465A";
shapes = (
{
closed = 1;
nodes = (
(189,-14,o),
(216,9,o),
(216,44,cs),
(216,79,o),
(189,101,o),
(159,101,cs),
(129,101,o),
(102,79,o),
(102,44,cs),
(102,9,o),
(129,-14,o),
(159,-14,cs)
);
}
);
width = 320;
},
{
layerId = "52EA2D2A-A4E3-47AA-B963-53B6A9E26FA1";
shapes = (
{
closed = 1;
nodes = (
(204,-15,o),
(248,12,o),
(248,66,cs),
(248,123,o),
(204,151,o),
(159,151,cs),
(114,151,o),
(70,124,o),
(70,68,cs),
(70,12,o),
(114,-15,o),
(160,-15,cs)
);
}
);
width = 320;
},
{
layerId = "ECEC25EE-2268-427F-924A-A8A033D1E43A";
shapes = (
{
closed = 1;
nodes = (
(124,-15,o),
(140,-2,o),
(140,18,cs),
(140,38,o),
(124,51,o),
(107,51,cs),
(90,51,o),
(74,37,o),
(74,18,cs),
(74,-2,o),
(90,-15,o),
(107,-15,cs)
);
}
);
width = 216;
},
{
layerId = "92782D03-6C32-4A0E-AEF4-B0D65DFAA275";
shapes = (
{
closed = 1;
nodes = (
(264,-14,o),
(309,16,o),
(309,75,cs),
(309,135,o),
(264,166,o),
(199,166,cs),
(133,166,o),
(86,135,o),
(86,75,cs),
(86,16,o),
(133,-14,o),
(198,-14,cs)
);
}
);
width = 396;
},
{
layerId = "C70D92E6-6044-4AAB-ADF3-B84826DC9CB7";
shapes = (
{
closed = 1;
nodes = (
(182,-15,o),
(198,-5,o),
(198,15,cs),
(198,34,o),
(182,43,o),
(165,43,cs),
(149,43,o),
(132,34,o),
(132,15,cs),
(132,-5,o),
(149,-15,o),
(165,-15,cs)
);
}
);
width = 332;
},
{
associatedMasterId = "52EA2D2A-A4E3-47AA-B963-53B6A9E26FA1";
layerId = "D8D96828-E82B-4127-BFA3-A0C0A89E9189";
name = "May 1 19, 17:13";
shapes = (
{
closed = 1;
nodes = (
(210,-15,o),
(270,22,o),
(270,94,cs),
(270,170,o),
(210,208,o),
(149,208,cs),
(89,208,o),
(30,171,o),
(30,96,cs),
(30,22,o),
(90,-15,o),
(150,-15,cs)
);
}
);
width = 300;
}
);
unicode = 46;
}
{
glyphname = slash;
layers = (
{
layerId = "B6803316-6B37-45A2-910F-F0CA711B465A";
shapes = (
{
closed = 1;
nodes = (
(9,-10,l),
(40,-10,l),
(259,722,l),
(228,722,l)
);
}
);
width = 268;
},
{
layerId = "1127FDDC-7967-4E0A-BDB2-81E1CCE90981";
shapes = (
{
closed = 1;
nodes = (
(27,-10,l),
(60,-10,l),
(309,722,l),
(276,722,l)
);
}
);
width = 337;
},
{
layerId = "52EA2D2A-A4E3-47AA-B963-53B6A9E26FA1";
shapes = (
{
closed = 1;
nodes = (
(-7,-10,l),
(61,-10,l),
(280,722,l),
(212,722,l)
);
}
);
width = 273;
},
{
layerId = "ECEC25EE-2268-427F-924A-A8A033D1E43A";
shapes = (
{
closed = 1;
nodes = (
(30,-10,l),
(54,-10,l),
(273,722,l),
(249,722,l)
);
}
);
width = 303;
},
{
layerId = "92782D03-6C32-4A0E-AEF4-B0D65DFAA275";
shapes = (
{
closed = 1;
nodes = (
(7,-10,l),
(76,-10,l),
(325,722,l),
(256,722,l)
);
}
);
width = 333;
},
{
layerId = "C70D92E6-6044-4AAB-ADF3-B84826DC9CB7";
shapes = (
{
closed = 1;
nodes = (
(31,-10,l),
(55,-10,l),
(304,722,l),
(280,722,l)
);
}
);
width = 336;
}
);
unicode = 47;
}
{
glyphname = zero;
layers = (
{
layerId = "1127FDDC-7967-4E0A-BDB2-81E1CCE90981";
shapes = (
{
closed = 1;
nodes = (
(822,-15,o),
(1049,123,o),
(1049,345,cs),
(1049,566,o),
(822,715,o),
(559,715,cs),
(295,715,o),
(66,566,o),
(66,345,cs),
(66,123,o),
(295,-15,o),
(559,-15,cs)
);
},
{
closed = 1;
nodes = (
(292,80,o),
(91,179,o),
(91,347,cs),
(91,520,o),
(292,620,o),
(560,620,cs),
(843,620,o),
(1024,520,o),
(1024,347,cs),
(1024,179,o),
(842,80,o),
(560,80,cs)
);
}
);
width = 1115;
},
{
layerId = "B6803316-6B37-45A2-910F-F0CA711B465A";
shapes = (
{
closed = 1;
nodes = (
(469,-15,o),
(510,139,o),
(510,345,cs),
(510,550,o),
(469,715,o),
(290,715,cs),
(111,715,o),
(69,550,o),
(69,345,cs),
(69,139,o),
(111,-15,o),
(290,-15,cs)
);
},
{
closed = 1;
nodes = (
(138,80,o),
(94,182,o),
(94,346,cs),
(94,510,o),
(138,620,o),
(290,620,cs),
(440,620,o),
(485,510,o),
(485,346,cs),
(485,182,o),
(440,80,o),
(290,80,cs)
);
}
);
width = 579;
},
{
layerId = "52EA2D2A-A4E3-47AA-B963-53B6A9E26FA1";
shapes = (
{
closed = 1;
nodes = (
(458,-15,o),
(489,139,o),
(489,345,cs),
(489,550,o),
(458,715,o),
(269,715,cs),
(80,715,o),
(48,550,o),
(48,345,cs),
(48,139,o),
(80,-15,o),
(269,-15,cs)
);
},
{
closed = 1;
nodes = (
(134,179,o),
(83,235,o),
(83,346,cs),
(83,462,o),
(135,520,o),
(268,520,cs),
(401,520,o),
(454,462,o),
(454,346,cs),
(454,235,o),
(401,179,o),
(268,179,cs)
);
}
);
width = 537;
},
{
layerId = "ECEC25EE-2268-427F-924A-A8A033D1E43A";
shapes = (
{
closed = 1;
nodes = (
(449,-15,o),
(509,146,o),
(509,348,cs),
(509,551,o),
(448,715,o),
(290,715,cs),
(131,715,o),
(70,550,o),
(70,346,cs),
(70,145,o),
(129,-15,o),
(290,-15,cs)
);
},
{
closed = 1;
nodes = (
(158,30,o),
(88,169,o),
(88,348,cs),
(88,529,o),
(159,670,o),
(290,670,cs),
(420,670,o),
(491,528,o),
(491,347,cs),
(491,168,o),
(422,30,o),
(290,30,cs)
);
}
);
width = 579;
},
{
layerId = "92782D03-6C32-4A0E-AEF4-B0D65DFAA275";
shapes = (
{
closed = 1;
nodes = (
(798,-15,o),
(1025,123,o),
(1025,345,cs),
(1025,566,o),
(798,715,o),
(535,715,cs),
(271,715,o),
(42,566,o),
(42,345,cs),
(42,123,o),
(271,-15,o),
(535,-15,cs)
);
},
{
closed = 1;
nodes = (
(302,225,o),
(67,236,o),
(67,347,cs),
(67,459,o),
(306,475,o),
(543,475,cs),
(773,475,o),
(1000,459,o),
(1000,347,cs),
(1000,235,o),
(768,225,o),
(536,225,cs)
);
}
);
width = 1067;
},
{
layerId = "C70D92E6-6044-4AAB-ADF3-B84826DC9CB7";
shapes = (
{
closed = 1;
nodes = (
(826,-15,o),
(1053,123,o),
(1053,345,cs),
(1053,566,o),
(826,715,o),
(563,715,cs),
(299,715,o),
(70,566,o),
(70,345,cs),
(70,123,o),
(299,-15,o),
(563,-15,cs)
);
},
{
closed = 1;
nodes = (
(324,30,o),
(85,126,o),
(85,347,cs),
(85,571,o),
(326,670,o),
(565,670,cs),
(802,670,o),
(1038,573,o),
(1038,347,cs),
(1038,125,o),
(801,30,o),
(563,30,cs)
);
}
);
width = 1123;
}
);
unicode = 48;
}
{
glyphname = one;
kernLeft = "1";
layers = (
{
layerId = "1127FDDC-7967-4E0A-BDB2-81E1CCE90981";
shapes = (
{
closed = 1;
nodes = (
(411,700,l),
(346,700,l),
(266,618,o),
(125,581,o),
(46,577,c),
(46,551,l),
(121,555,o),
(235,572,o),
(311,624,c),
(311,124,ls),
(311,33,o),
(186,15,o),
(91,10,c),
(91,0,l),
(631,0,l),
(631,10,l),
(537,18,o),
(411,33,o),
(411,124,cs)
);
}
);
width = 670;
},
{
associatedMasterId = "B6803316-6B37-45A2-910F-F0CA711B465A";
layerId = "CEEF0348-6255-4799-A97B-902891B6D9A0";
name = "Feb 22 19, 16:01";
shapes = (
{
closed = 1;
nodes = (
(395,0,l),
(395,700,l),
(290,700,l),
(290,0,l)
);
},
{
closed = 1;
nodes = (
(395,0,l),
(495,0,l),
(495,10,l),
(430,17,o),
(395,36,o),
(395,84,c)
);
},
{
closed = 1;
nodes = (
(289,36,o),
(253,17,o),
(190,10,c),
(190,0,l),
(290,0,l),
(290,84,l)
);
},
{
closed = 1;
nodes = (
(186,527,o),
(262,541,o),
(290,586,c),
(290,700,l),
(282,700,l),
(255,596,o),
(199,553,o),
(146,552,c),
(146,527,l)
);
}
);
width = 600;
},
{
layerId = "B6803316-6B37-45A2-910F-F0CA711B465A";
shapes = (
{
closed = 1;
nodes = (
(253,700,l),
(198,700,l),
(182,573,o),
(64,532,o),
(24,531,c),
(24,506,l),
(60,507,o),
(122,519,o),
(158,544,c),
(158,84,ls),
(158,36,o),
(121,17,o),
(58,10,c),
(58,0,l),
(353,0,l),
(353,10,l),
(288,17,o),
(253,36,o),
(253,84,cs)
);
}
);
width = 377;
},
{
layerId = "ECEC25EE-2268-427F-924A-A8A033D1E43A";
shapes = (
{
closed = 1;
nodes = (
(249,700,l),
(229,700,l),
(213,573,o),
(110,562,o),
(70,561,c),
(70,545,l),
(107,543,o),
(180,562,o),
(204,585,c),
(204,69,ls),
(204,21,o),
(169,17,o),
(104,10,c),
(104,0,l),
(349,0,l),
(349,10,l),
(284,17,o),
(249,21,o),
(249,69,cs)
);
}
);
width = 409;
},
{
layerId = "52EA2D2A-A4E3-47AA-B963-53B6A9E26FA1";
shapes = (
{
closed = 1;
nodes = (
(367,700,l),
(187,700,l),
(170,553,o),
(53,522,o),
(3,521,c),
(3,486,l),
(45,482,o),
(102,491,o),
(147,520,c),
(147,84,ls),
(147,25,o),
(102,21,o),
(77,20,c),
(77,0,l),
(437,0,l),
(437,20,l),
(412,21,o),
(366,25,o),
(367,84,cs)
);
}
);
width = 446;
},
{
layerId = "C70D92E6-6044-4AAB-ADF3-B84826DC9CB7";
shapes = (
{
closed = 1;
nodes = (
(343,700,l),
(318,700,l),
(231,620,o),
(127,585,o),
(49,577,c),
(49,562,l),
(106,564,o),
(224,593,o),
(298,650,c),
(298,104,ls),
(298,16,o),
(202,17,o),
(108,10,c),
(108,0,l),
(532,0,l),
(532,10,l),
(444,17,o),
(343,16,o),
(343,104,cs)
);
}
);
width = 576;
},
{
layerId = "92782D03-6C32-4A0E-AEF4-B0D65DFAA275";
shapes = (
{
closed = 1;
nodes = (
(561,700,l),
(361,700,l),
(285,610,o),
(121,542,o),
(22,547,c),
(22,512,l),
(117,506,o),
(221,531,o),
(281,570,c),
(281,124,ls),
(281,24,o),
(197,31,o),
(111,24,c),
(111,0,l),
(731,0,l),
(731,24,l),
(657,31,o),
(561,22,o),
(561,124,cs)
);
}
);
width = 747;
},
{
associatedMasterId = "ECEC25EE-2268-427F-924A-A8A033D1E43A";
layerId = "62C8CBD6-8C2D-49DD-BEAC-CD3B1740432C";
name = "Apr 30 19, 17:10";
shapes = (
{
closed = 1;
nodes = (
(249,0,l),
(249,700,l),
(204,700,l),
(204,0,l)
);
},
{
closed = 1;
nodes = (
(121,553,o),
(198,554,o),
(219,695,c),
(204,700,l),
(188,573,o),
(110,562,o),
(60,561,c),
(60,545,l)
);
},
{
closed = 1;
nodes = (
(204,0,l),
(204,69,l),
(204,21,o),
(169,17,o),
(104,10,c),
(104,0,l)
);
},
{
closed = 1;
nodes = (
(349,10,l),
(284,17,o),
(249,21,o),
(249,69,c),
(249,0,l),
(349,0,l)
);
}
);
width = 409;
},
{
associatedMasterId = "B6803316-6B37-45A2-910F-F0CA711B465A";
layerId = "C1AFAB1A-C335-4461-9C6A-B2D1A8EDC2A4";
name = "Apr 30 19, 17:10";
shapes = (
{
closed = 1;
nodes = (
(289,0,l),
(289,700,l),
(184,700,l),
(184,0,l)
);
},
{
closed = 1;
nodes = (
(184,0,l),
(184,84,l),
(183,36,o),
(147,17,o),
(84,10,c),
(84,0,l)
);
},
{
closed = 1;
nodes = (
(389,0,l),
(389,10,l),
(324,17,o),
(289,36,o),
(289,84,c),
(289,0,l)
);
},
{
closed = 1;
nodes = (
(101,537,o),
(188,554,o),
(209,695,c),
(184,700,l),
(167,573,o),
(90,562,o),
(40,561,c),
(40,536,l)
);
}
);
width = 429;
},
{
associatedMasterId = "52EA2D2A-A4E3-47AA-B963-53B6A9E26FA1";
layerId = "BD0F537C-63E8-460C-A7B6-373B64BA77AA";
name = "May 1 19, 12:06";
shapes = (
{
closed = 1;
nodes = (
(404,0,l),
(404,700,l),
(184,700,l),
(167,573,o),
(90,562,o),
(40,561,c),
(40,526,l),
(86,527,o),
(148,533,o),
(184,600,c),
(184,0,l)
);
},
{
closed = 1;
nodes = (
(404,0,l),
(464,0,l),
(464,20,l),
(439,21,o),
(403,25,o),
(404,84,c)
);
},
{
closed = 1;
nodes = (
(185,25,o),
(149,21,o),
(124,20,c),
(124,0,l),
(184,0,l),
(184,84,l)
);
}
);
width = 504;
},
{
associatedMasterId = "C70D92E6-6044-4AAB-ADF3-B84826DC9CB7";
layerId = "B5E259D6-3874-41D4-9FF5-17B6BEC8CD63";
name = "May 1 19, 12:06";
shapes = (
{
closed = 1;
nodes = (
(384,700,l),
(363,700,l),
(276,630,o),
(149,594,o),
(50,577,c),
(54,564,l),
(130,571,o),
(251,588,o),
(339,644,c),
(339,104,ls),
(339,16,o),
(243,17,o),
(149,10,c),
(149,0,l),
(573,0,l),
(573,10,l),
(485,17,o),
(394,16,o),
(384,89,c)
);
}
);
width = 623;
},
{
associatedMasterId = "1127FDDC-7967-4E0A-BDB2-81E1CCE90981";
layerId = "171BAE91-9272-4D01-B536-A49E5C2B9E85";
name = "May 1 19, 12:07";
shapes = (
{
closed = 1;
nodes = (
(399,0,l),
(399,700,l),
(299,700,l),
(299,0,l)
);
},
{
closed = 1;
nodes = (
(299,0,l),
(299,124,l),
(299,33,o),
(174,15,o),
(79,10,c),
(79,0,l)
);
},
{
closed = 1;
nodes = (
(619,0,l),
(619,10,l),
(525,18,o),
(399,33,o),
(399,124,c),
(399,0,l)
);
},
{
closed = 1;
nodes = (
(114,569,o),
(222,605,o),
(313,679,c),
(299,700,l),
(212,630,o),
(109,594,o),
(10,577,c),
(14,552,l)
);
}
);
width = 639;
},
{
associatedMasterId = "ECEC25EE-2268-427F-924A-A8A033D1E43A";
layerId = "B923432E-7E2A-4711-BDFB-9F712CC82D30";
name = "May 18 19, 19:26";
shapes = (
{
closed = 1;
nodes = (
(249,700,l),
(204,700,l),
(188,573,o),
(110,562,o),
(60,561,c),
(60,545,l),
(111,552,o),
(173,553,o),
(204,635,c),
(204,69,ls),
(204,21,o),
(169,17,o),
(104,10,c),
(104,0,l),
(349,0,l),
(349,10,l),
(284,17,o),
(249,21,o),
(249,69,cs)
);
}
);
width = 409;
}
);
unicode = 49;
}
{
glyphname = two;
layers = (
{
layerId = "1127FDDC-7967-4E0A-BDB2-81E1CCE90981";
shapes = (
{
closed = 1;
nodes = (
(829,-15,o),
(920,13,o),
(920,162,c),
(895,162,l),
(895,85,o),
(867,59,o),
(770,59,cs),
(624,59,o),
(351,175,o),
(281,165,c),
(446,284,o),
(947,287,o),
(947,500,cs),
(947,600,o),
(780,715,o),
(504,715,cs),
(379,715,o),
(218,690,o),
(93,637,c),
(66,470,l),
(76,470,l),
(145,606,o),
(312,689,o),
(486,689,cs),
(648,689,o),
(832,613,o),
(832,505,cs),
(832,312,o),
(470,330,o),
(210,151,cs),
(140,103,o),
(76,44,o),
(61,0,c),
(87,0,l),
(113,40,o),
(142,70,o),
(162,83,cs),
(179,94,o),
(199,98,o),
(222,96,cs),
(327,91,o),
(488,-15,o),
(645,-15,cs)
);
}
);
width = 1009;
},
{
layerId = "B6803316-6B37-45A2-910F-F0CA711B465A";
shapes = (
{
closed = 1;
nodes = (
(410,-15,o),
(440,25,o),
(439,162,c),
(414,162,l),
(414,91,o),
(402,63,o),
(359,63,cs),
(295,63,o),
(203,172,o),
(152,162,c),
(304,327,o),
(446,297,o),
(446,518,cs),
(446,640,o),
(366,714,o),
(250,714,cs),
(199,714,o),
(142,700,o),
(82,669,c),
(61,503,l),
(71,503,l),
(112,626,o),
(183,689,o),
(243,689,cs),
(302,689,o),
(350,629,o),
(350,505,cs),
(350,312,o),
(227,326,o),
(113,151,cs),
(82,104,o),
(53,40,o),
(47,0,c),
(72,0,l),
(81,40,o),
(89,58,o),
(98,71,cs),
(105,81,o),
(116,85,o),
(124,85,cs),
(173,85,o),
(250,-15,o),
(333,-15,cs)
);
}
);
width = 499;
},
{
associatedMasterId = "B6803316-6B37-45A2-910F-F0CA711B465A";
layerId = "E5F5ED44-9B3B-4C08-9F6A-E471DFA7BA55";
name = "Feb 22 19, 16:30";
shapes = (
{
closed = 1;
nodes = (
(368,-15,o),
(423,51,o),
(422,162,c),
(397,162,l),
(397,98,o),
(385,63,o),
(342,63,cs),
(278,63,o),
(166,172,o),
(135,162,c),
(159,206,o),
(218,230,o),
(309,303,cs),
(370,352,o),
(423,413,o),
(423,500,cs),
(423,607,o),
(332,715,o),
(194,715,cs),
(135,715,o),
(108,699,o),
(51,669,c),
(30,503,l),
(40,503,l),
(81,629,o),
(149,690,o),
(208,690,cs),
(267,690,o),
(313,620,o),
(313,494,cs),
(313,301,o),
(210,326,o),
(96,151,cs),
(65,104,o),
(34,40,o),
(30,0,c),
(55,0,l),
(64,40,o),
(77,70,o),
(86,83,cs),
(121,134,o),
(226,-15,o),
(287,-15,cs)
);
}
);
width = 473;
},
{
layerId = "ECEC25EE-2268-427F-924A-A8A033D1E43A";
shapes = (
{
closed = 1;
nodes = (
(431,-15,o),
(453,25,o),
(452,162,c),
(437,162,l),
(437,91,o),
(432,30,o),
(363,30,cs),
(287,30,o),
(208,138,o),
(130,129,c),
(252,298,o),
(442,303,o),
(445,513,cs),
(447,641,o),
(351,715,o),
(240,715,cs),
(188,715,o),
(133,700,o),
(81,669,c),
(60,503,l),
(70,503,l),
(111,674,o),
(167,700,o),
(245,700,cs),
(337,700,o),
(399,637,o),
(399,505,cs),
(399,312,o),
(240,326,o),
(126,151,cs),
(95,104,o),
(66,40,o),
(60,0,c),
(75,0,l),
(84,40,o),
(92,58,o),
(101,71,cs),
(107,79,o),
(116,85,o),
(129,85,cs),
(197,88,o),
(265,-15,o),
(356,-15,cs)
);
}
);
width = 512;
},
{
layerId = "52EA2D2A-A4E3-47AA-B963-53B6A9E26FA1";
shapes = (
{
closed = 1;
nodes = (
(482,-15,o),
(501,62,o),
(501,252,c),
(466,252,l),
(466,185,o),
(454,160,o),
(411,160,cs),
(336,160,o),
(275,232,o),
(184,232,c),
(235,285,o),
(493,343,o),
(493,547,cs),
(493,657,o),
(369,716,o),
(243,716,cs),
(179,716,o),
(113,700,o),
(60,669,c),
(39,503,l),
(79,503,l),
(106,623,o),
(179,681,o),
(235,681,cs),
(282,681,o),
(303,637,o),
(303,539,cs),
(303,369,o),
(167,295,o),
(83,151,cs),
(55,103,o),
(25,40,o),
(19,0,c),
(54,0,l),
(56,16,o),
(61,32,o),
(68,44,cs),
(76,59,o),
(87,69,o),
(107,69,cs),
(217,69,o),
(262,-15,o),
(385,-15,cs)
);
}
);
width = 542;
},
{
layerId = "C70D92E6-6044-4AAB-ADF3-B84826DC9CB7";
shapes = (
{
closed = 1;
nodes = (
(884,-15,o),
(925,19,o),
(925,162,c),
(910,162,l),
(910,45,o),
(859,30,o),
(772,30,cs),
(560,30,o),
(452,131,o),
(230,143,c),
(494,317,o),
(952,306,o),
(952,515,cs),
(952,655,o),
(748,715,o),
(525,715,cs),
(371,715,o),
(207,686,o),
(98,637,c),
(71,470,l),
(81,470,l),
(153,658,o),
(306,700,o),
(518,700,cs),
(715,700,o),
(902,644,o),
(902,520,cs),
(902,317,o),
(475,330,o),
(215,151,cs),
(145,103,o),
(83,44,o),
(66,0,c),
(81,0,l),
(107,40,o),
(133,68,o),
(154,83,cs),
(168,93,o),
(188,99,o),
(213,99,cs),
(383,99,o),
(566,-15,o),
(748,-15,cs)
);
}
);
width = 1022;
},
{
layerId = "92782D03-6C32-4A0E-AEF4-B0D65DFAA275";
shapes = (
{
closed = 1;
nodes = (
(878,-6,o),
(913,135,o),
(913,284,c),
(878,284,l),
(878,207,o),
(844,190,o),
(798,190,cs),
(705,190,o),
(540,255,o),
(446,255,c),
(622,305,o),
(933,345,o),
(933,504,cs),
(933,651,o),
(683,714,o),
(447,714,cs),
(288,714,o),
(136,686,o),
(69,637,c),
(42,470,l),
(82,470,l),
(157,610,o),
(304,679,o),
(418,679,cs),
(540,679,o),
(648,625,o),
(648,512,cs),
(648,352,o),
(443,333,o),
(183,154,cs),
(113,106,o),
(52,44,o),
(37,0,c),
(73,0,l),
(84,19,o),
(100,38,o),
(119,53,cs),
(140,68,o),
(165,79,o),
(185,79,cs),
(376,79,o),
(540,-26,o),
(729,-15,cs)
);
}
);
width = 979;
},
{
associatedMasterId = "ECEC25EE-2268-427F-924A-A8A033D1E43A";
layerId = "893960EA-514A-4DCC-9C6A-5F238903CF1A";
name = "Apr 29 19, 18:37";
shapes = (
{
closed = 1;
nodes = (
(393,-15,o),
(423,25,o),
(422,162,c),
(397,162,l),
(397,91,o),
(385,63,o),
(342,63,cs),
(278,63,o),
(176,172,o),
(125,162,c),
(276,328,o),
(412,320,o),
(415,513,cs),
(417,641,o),
(321,715,o),
(210,715,cs),
(158,715,o),
(103,700,o),
(51,669,c),
(30,503,l),
(40,503,l),
(81,674,o),
(137,700,o),
(215,700,cs),
(307,700,o),
(369,637,o),
(369,505,cs),
(369,312,o),
(210,326,o),
(96,151,cs),
(65,104,o),
(36,40,o),
(30,0,c),
(45,0,l),
(54,40,o),
(62,58,o),
(71,71,cs),
(77,80,o),
(87,85,o),
(95,85,cs),
(144,88,o),
(232,-15,o),
(316,-15,cs)
);
}
);
width = 452;
},
{
associatedMasterId = "C70D92E6-6044-4AAB-ADF3-B84826DC9CB7";
layerId = "70001201-3546-49E3-8952-382BC62D0209";
name = "May 1 19, 12:11";
shapes = (
{
closed = 1;
nodes = (
(848,-15,o),
(909,13,o),
(909,162,c),
(894,162,l),
(894,85,o),
(867,61,o),
(770,61,cs),
(624,61,o),
(331,177,o),
(261,167,c),
(413,276,o),
(936,301,o),
(936,500,cs),
(936,600,o),
(769,715,o),
(493,715,cs),
(368,715,o),
(207,690,o),
(82,637,c),
(55,470,l),
(65,470,l),
(134,641,o),
(261,700,o),
(475,700,cs),
(637,700,o),
(886,613,o),
(886,505,cs),
(886,312,o),
(459,330,o),
(199,151,cs),
(129,103,o),
(65,44,o),
(50,0,c),
(66,0,l),
(92,40,o),
(121,70,o),
(141,83,cs),
(234,143,o),
(512,-15,o),
(704,-15,cs)
);
}
);
width = 986;
},
{
associatedMasterId = "B6803316-6B37-45A2-910F-F0CA711B465A";
layerId = "D9B7781D-DED6-4915-9D58-115717B4EDD8";
name = "Dec 2 19, 16:42";
shapes = (
{
closed = 1;
nodes = (
(410,-15,o),
(440,25,o),
(439,162,c),
(414,162,l),
(414,91,o),
(402,63,o),
(359,63,cs),
(295,63,o),
(203,172,o),
(152,162,c),
(303,326,o),
(429,297,o),
(432,513,cs),
(434,646,o),
(338,715,o),
(227,715,cs),
(175,715,o),
(120,700,o),
(68,669,c),
(47,503,l),
(57,503,l),
(98,640,o),
(152,690,o),
(217,690,cs),
(302,690,o),
(336,625,o),
(336,505,cs),
(336,312,o),
(227,326,o),
(113,151,cs),
(82,104,o),
(53,40,o),
(47,0,c),
(72,0,l),
(81,40,o),
(89,58,o),
(98,71,cs),
(104,80,o),
(114,85,o),
(122,85,cs),
(171,88,o),
(249,-15,o),
(333,-15,cs)
);
}
);
width = 499;
}
);
unicode = 50;
}
{
glyphname = three;
layers = (
{
layerId = "1127FDDC-7967-4E0A-BDB2-81E1CCE90981";
shapes = (
{
closed = 1;
nodes = (
(827,-15,o),
(1014,59,o),
(1014,197,cs),
(1014,282,o),
(903,364,o),
(689,399,c),
(865,426,o),
(995,461,o),
(995,551,cs),
(995,642,o),
(812,715,o),
(564,715,cs),
(440,715,o),
(284,689,o),
(162,637,c),
(135,470,l),
(145,470,l),
(214,606,o),
(382,690,o),
(555,690,cs),
(735,690,o),
(880,611,o),
(880,544,cs),
(880,465,o),
(722,413,o),
(532,413,cs),
(411,413,l),
(388,388,l),
(532,388,ls),
(698,388,o),
(899,305,o),
(899,203,cs),
(899,83,o),
(724,16,o),
(509,10,cs),
(301,5,o),
(134,94,o),
(65,230,c),
(55,230,l),
(82,63,l),
(197,14,o),
(354,-15,o),
(498,-15,cs)
);
}
);
width = 1078;
},
{
layerId = "B6803316-6B37-45A2-910F-F0CA711B465A";
shapes = (
{
closed = 1;
nodes = (
(365,-13,o),
(468,60,o),
(468,202,cs),
(468,281,o),
(424,361,o),
(328,399,c),
(420,436,o),
(462,500,o),
(462,561,cs),
(462,641,o),
(389,715,o),
(257,715,cs),
(205,715,o),
(152,700,o),
(111,668,c),
(88,502,l),
(98,502,l),
(125,620,o),
(179,689,o),
(252,689,cs),
(325,689,o),
(364,616,o),
(364,545,cs),
(364,478,o),
(329,413,o),
(254,413,cs),
(199,413,l),
(189,388,l),
(249,388,ls),
(329,388,o),
(368,299,o),
(368,208,cs),
(368,77,o),
(300,9,o),
(225,9,cs),
(158,9,o),
(85,63,o),
(50,174,c),
(39,174,l),
(65,26,l),
(123,0,o),
(182,-13,o),
(236,-13,cs)
);
}
);
width = 529;
},
{
layerId = "52EA2D2A-A4E3-47AA-B963-53B6A9E26FA1";
shapes = (
{
closed = 1;
nodes = (
(384,-16,o),
(499,59,o),
(499,202,cs),
(499,336,o),
(399,385,o),
(311,401,c),
(395,412,o),
(492,458,o),
(492,561,cs),
(492,661,o),
(374,716,o),
(257,716,cs),
(195,716,o),
(127,700,o),
(83,668,c),
(60,502,l),
(100,502,l),
(132,610,o),
(183,680,o),
(226,680,cs),
(276,680,o),
(294,638,o),
(294,561,cs),
(294,478,o),
(250,418,o),
(175,418,cs),
(120,418,l),
(110,383,l),
(170,383,ls),
(278,383,o),
(300,281,o),
(300,202,cs),
(300,79,o),
(258,19,o),
(200,19,cs),
(152,19,o),
(104,73,o),
(61,174,c),
(20,174,l),
(46,26,l),
(104,-2,o),
(170,-16,o),
(231,-16,cs)
);
}
);
width = 537;
},
{
layerId = "ECEC25EE-2268-427F-924A-A8A033D1E43A";
shapes = (
{
closed = 1;
nodes = (
(371,-15,o),
(472,51,o),
(472,187,cs),
(472,274,o),
(417,360,o),
(299,378,c),
(379,397,o),
(459,452,o),
(459,543,cs),
(459,631,o),
(375,690,o),
(270,690,cs),
(218,690,o),
(161,675,o),
(106,643,c),
(83,477,l),
(93,477,l),
(132,628,o),
(179,675,o),
(266,675,cs),
(350,675,o),
(414,630,o),
(414,543,cs),
(414,449,o),
(352,388,o),
(249,388,cs),
(194,388,l),
(184,373,l),
(244,373,ls),
(362,373,o),
(424,272,o),
(424,174,cs),
(424,58,o),
(347,0,o),
(261,0,cs),
(163,0,o),
(87,38,o),
(51,174,c),
(40,174,l),
(66,26,l),
(126,-1,o),
(189,-15,o),
(246,-15,cs)
);
}
);
width = 532;
},
{
layerId = "92782D03-6C32-4A0E-AEF4-B0D65DFAA275";
shapes = (
{
closed = 1;
nodes = (
(804,-15,o),
(991,59,o),
(991,197,cs),
(991,292,o),
(880,364,o),
(666,399,c),
(842,412,o),
(972,451,o),
(972,549,cs),
(972,647,o),
(779,715,o),
(531,715,cs),
(407,715,o),
(251,689,o),
(129,637,c),
(102,470,l),
(132,470,l),
(180,592,o),
(358,679,o),
(499,679,cs),
(588,679,o),
(687,645,o),
(687,564,cs),
(687,494,o),
(612,418,o),
(419,418,cs),
(298,418,l),
(275,383,l),
(419,383,ls),
(608,383,o),
(707,280,o),
(707,183,cs),
(707,101,o),
(635,24,o),
(486,20,cs),
(278,15,o),
(131,94,o),
(62,230,c),
(32,230,l),
(59,63,l),
(174,14,o),
(331,-15,o),
(475,-15,cs)
);
}
);
width = 1032;
},
{
layerId = "C70D92E6-6044-4AAB-ADF3-B84826DC9CB7";
shapes = (
{
closed = 1;
nodes = (
(833,-15,o),
(1020,59,o),
(1020,197,cs),
(1020,282,o),
(892,385,o),
(675,399,c),
(851,416,o),
(986,461,o),
(986,551,cs),
(986,642,o),
(806,715,o),
(558,715,cs),
(434,715,o),
(278,689,o),
(156,637,c),
(129,470,l),
(139,470,l),
(208,649,o),
(354,700,o),
(577,700,cs),
(756,700,o),
(936,654,o),
(936,547,cs),
(936,468,o),
(812,408,o),
(538,408,cs),
(417,408,l),
(394,393,l),
(538,393,ls),
(832,393,o),
(970,303,o),
(970,188,cs),
(970,58,o),
(763,0,o),
(542,0,cs),
(238,0,o),
(139,47,o),
(71,230,c),
(61,230,l),
(88,63,l),
(203,14,o),
(360,-15,o),
(504,-15,cs)
);
}
);
width = 1085;
},
{
associatedMasterId = "92782D03-6C32-4A0E-AEF4-B0D65DFAA275";
layerId = "A826D1EB-24B8-441D-B966-15F76A0EEA26";
name = "May 1 19, 15:16";
shapes = (
{
closed = 1;
nodes = (
(802,-15,o),
(989,59,o),
(989,197,cs),
(989,282,o),
(878,364,o),
(664,399,c),
(840,426,o),
(970,461,o),
(970,559,cs),
(970,647,o),
(807,715,o),
(559,715,cs),
(435,715,o),
(279,689,o),
(157,637,c),
(130,470,l),
(160,470,l),
(229,606,o),
(377,680,o),
(550,680,cs),
(630,680,o),
(685,624,o),
(685,564,cs),
(685,494,o),
(610,418,o),
(417,418,cs),
(296,418,l),
(273,383,l),
(417,383,ls),
(712,383,o),
(872,285,o),
(872,191,cs),
(872,108,o),
(748,27,o),
(484,20,cs),
(276,15,o),
(129,94,o),
(60,230,c),
(30,230,l),
(57,63,l),
(172,14,o),
(329,-15,o),
(473,-15,cs)
);
}
);
visible = 1;
width = 1019;
}
);
unicode = 51;
}
{
glyphname = four;
layers = (
{
layerId = "1127FDDC-7967-4E0A-BDB2-81E1CCE90981";
shapes = (
{
closed = 1;
nodes = (
(759,274,l),
(888,274,l),
(888,406,l),
(878,406,l),
(878,366,o),
(859,354,o),
(812,354,cs),
(759,354,l),
(759,700,l),
(659,700,l),
(51,354,l),
(51,274,l),
(659,274,l),
(659,124,ls),
(659,36,o),
(554,15,o),
(469,10,c),
(469,0,l),
(949,0,l),
(949,10,l),
(865,18,o),
(759,39,o),
(759,124,cs)
);
},
{
closed = 1;
nodes = (
(659,669,l),
(659,354,l),
(105,354,l)
);
}
);
width = 992;
},
{
associatedMasterId = "1127FDDC-7967-4E0A-BDB2-81E1CCE90981";
layerId = "46244D76-FB69-4A07-B615-0A3FECACA6BC";
name = "Feb 22 19, 18:11";
shapes = (
{
closed = 1;
nodes = (
(748,679,l),
(730,700,l),
(40,301,l),
(66,285,l)
);
},
{
closed = 1;
nodes = (
(730,0,l),
(730,124,l),
(731,36,o),
(625,15,o),
(540,10,c),
(540,0,l)
);
},
{
closed = 1;
nodes = (
(959,275,l),
(959,300,l),
(40,300,l),
(40,275,l)
);
},
{
closed = 1;
nodes = (
(1020,0,l),
(1020,10,l),
(936,18,o),
(830,39,o),
(830,124,c),
(830,0,l)
);
},
{
closed = 1;
nodes = (
(830,0,l),
(830,700,l),
(730,700,l),
(730,0,l)
);
}
);
width = 1040;
},
{
layerId = "52EA2D2A-A4E3-47AA-B963-53B6A9E26FA1";
shapes = (
{
closed = 1;
nodes = (
(415,274,l),
(504,274,l),
(504,476,l),
(483,476,l),
(483,436,o),
(464,424,o),
(417,424,cs),
(415,424,l),
(415,700,l),
(195,700,l),
(20,424,l),
(20,274,l),
(195,274,l),
(195,84,ls),
(196,25,o),
(160,21,o),
(135,20,c),
(135,0,l),
(475,0,l),
(475,20,l),
(450,21,o),
(414,25,o),
(415,84,cs)
);
},
{
closed = 1;
nodes = (
(195,634,l),
(195,424,l),
(63,424,l)
);
}
);
width = 531;
},
{
background = {
shapes = (
{
closed = 0;
nodes = (
(68,315,l)
);
}
);
};
layerId = "ECEC25EE-2268-427F-924A-A8A033D1E43A";
shapes = (
{
closed = 1;
nodes = (
(409,275,l),
(496,275,l),
(496,367,l),
(487,367,l),
(487,335,o),
(472,315,o),
(439,315,c),
(409,315,l),
(409,700,l),
(364,700,l),
(68,315,l),
(68,275,l),
(364,275,l),
(364,69,ls),
(364,21,o),
(329,17,o),
(264,10,c),
(264,0,l),
(509,0,l),
(509,10,l),
(444,17,o),
(409,21,o),
(409,69,cs)
);
},
{
closed = 1;
nodes = (
(364,675,l),
(364,315,l),
(88,315,l)
);
}
);
width = 559;
},
{
layerId = "92782D03-6C32-4A0E-AEF4-B0D65DFAA275";
shapes = (
{
closed = 1;
nodes = (
(784,270,l),
(942,270,l),
(942,461,l),
(917,461,l),
(917,421,o),
(898,400,o),
(851,400,cs),
(784,400,l),
(784,700,l),
(504,700,l),
(33,400,l),
(33,270,l),
(504,270,l),
(504,124,ls),
(504,24,o),
(420,31,o),
(334,24,c),
(334,0,l),
(954,0,l),
(954,24,l),
(880,31,o),
(784,22,o),
(784,124,cs)
);
},
{
closed = 1;
nodes = (
(504,660,l),
(504,400,l),
(100,400,l)
);
}
);
width = 995;
},
{
layerId = "C70D92E6-6044-4AAB-ADF3-B84826DC9CB7";
shapes = (
{
closed = 1;
nodes = (
(764,275,l),
(916,275,l),
(916,367,l),
(907,367,l),
(907,327,o),
(888,315,o),
(841,315,cs),
(764,315,l),
(764,700,l),
(719,700,l),
(52,315,l),
(52,275,l),
(719,275,l),
(719,104,ls),
(719,16,o),
(623,17,o),
(529,10,c),
(529,0,l),
(953,0,l),
(953,10,l),
(865,17,o),
(764,16,o),
(764,104,cs)
);
},
{
closed = 1;
nodes = (
(719,682,l),
(719,315,l),
(83,315,l)
);
}
);
width = 1005;
},
{
associatedMasterId = "ECEC25EE-2268-427F-924A-A8A033D1E43A";
layerId = "2F919AF3-F78E-4225-8BDF-521E45898AF5";
name = "Apr 30 19, 17:10";
shapes = (
{
closed = 1;
nodes = (
(344,675,l),
(344,290,l),
(49,290,l)
);
},
{
closed = 1;
nodes = (
(389,0,l),
(389,275,l),
(466,275,l),
(466,290,l),
(389,290,l),
(389,700,l),
(344,700,l),
(30,290,l),
(30,275,l),
(344,275,l),
(344,0,l)
);
},
{
closed = 1;
nodes = (
(344,0,l),
(344,69,l),
(344,21,o),
(309,17,o),
(244,10,c),
(244,0,l)
);
},
{
closed = 1;
nodes = (
(489,10,l),
(424,17,o),
(389,21,o),
(389,69,c),
(389,0,l),
(489,0,l)
);
}
);
width = 600;
},
{
layerId = "B6803316-6B37-45A2-910F-F0CA711B465A";
shapes = (
{
closed = 1;
nodes = (
(316,284,l),
(402,284,l),
(402,416,l),
(392,416,l),
(392,376,o),
(373,364,o),
(326,364,cs),
(316,364,l),
(316,700,l),
(221,700,l),
(34,364,l),
(34,284,l),
(221,284,l),
(221,84,ls),
(221,36,o),
(184,17,o),
(121,10,c),
(121,0,l),
(416,0,l),
(416,10,l),
(351,17,o),
(316,36,o),
(316,84,cs)
);
},
{
closed = 1;
nodes = (
(221,645,l),
(221,364,l),
(67,364,l)
);
}
);
visible = 1;
width = 463;
},
{
associatedMasterId = "B6803316-6B37-45A2-910F-F0CA711B465A";
layerId = "5D431B0C-ABAC-4CC7-89B9-50E6C7D1B3FE";
name = "Apr 30 19, 17:38";
shapes = (
{
closed = 1;
nodes = (
(238,678,l),
(220,700,l),
(0,300,l),
(24,288,l)
);
},
{
closed = 1;
nodes = (
(220,0,l),
(220,84,l),
(219,36,o),
(183,17,o),
(120,10,c),
(120,0,l)
);
},
{
closed = 1;
nodes = (
(425,0,l),
(425,10,l),
(360,17,o),
(325,36,o),
(325,84,c),
(325,0,l)
);
},
{
closed = 1;
nodes = (
(379,275,l),
(379,300,l),
(0,300,l),
(0,275,l)
);
},
{
closed = 1;
nodes = (
(325,0,l),
(325,700,l),
(220,700,l),
(220,0,l)
);
}
);
width = 465;
},
{
associatedMasterId = "92782D03-6C32-4A0E-AEF4-B0D65DFAA275";
layerId = "589791A6-5D43-4C9B-AE0A-3E0C88B2F29E";
name = "May 3 19, 16:30";
shapes = (
{
closed = 1;
nodes = (
(1117,0,l),
(1117,24,l),
(1043,31,o),
(947,22,o),
(947,124,cs),
(947,700,l),
(667,700,l),
(667,124,ls),
(667,24,o),
(583,31,o),
(497,24,c),
(497,0,l)
);
},
{
closed = 1;
nodes = (
(680,668,l),
(667,700,l),
(50,306,l),
(50,271,l),
(1106,271,l),
(1106,306,l),
(116,306,l)
);
}
);
width = 1167;
}
);
unicode = 52;
}
{
glyphname = five;
layers = (
{
layerId = "1127FDDC-7967-4E0A-BDB2-81E1CCE90981";
shapes = (
{
closed = 1;
nodes = (
(889,568,l),
(889,700,l),
(104,700,l),
(104,620,l),
(805,620,l),
(858,620,o),
(879,608,o),
(879,568,c)
);
},
{
closed = 1;
nodes = (
(131,32,l),
(193,3,o),
(313,-15,o),
(453,-15,cs),
(774,-15,o),
(946,121,o),
(946,253,cs),
(946,384,o),
(787,515,o),
(472,515,cs),
(282,515,o),
(186,479,o),
(129,403,c),
(129,631,l),
(104,631,l),
(104,357,l),
(129,357,l),
(177,454,o),
(289,490,o),
(436,490,cs),
(694,490,o),
(831,366,o),
(831,244,cs),
(831,126,o),
(692,10,o),
(449,10,cs),
(298,10,o),
(151,71,o),
(97,208,c),
(87,208,l)
);
}
);
width = 1008;
},
{
layerId = "B6803316-6B37-45A2-910F-F0CA711B465A";
shapes = (
{
closed = 1;
nodes = (
(430,568,l),
(430,700,l),
(86,700,l),
(86,620,l),
(355,620,l),
(402,620,o),
(420,608,o),
(420,568,c)
);
},
{
closed = 1;
nodes = (
(104,31,l),
(161,1,o),
(215,-13,o),
(263,-13,cs),
(385,-13,o),
(477,84,o),
(477,248,cs),
(477,417,o),
(413,516,o),
(255,516,cs),
(200,516,o),
(147,487,o),
(111,419,c),
(111,665,l),
(86,665,l),
(86,351,l),
(110,351,l),
(143,453,o),
(193,489,o),
(244,489,cs),
(343,489,o),
(377,412,o),
(377,254,cs),
(377,96,o),
(325,13,o),
(245,13,cs),
(188,13,o),
(125,73,o),
(91,197,c),
(81,197,l)
);
}
);
width = 536;
},
{
associatedMasterId = "B6803316-6B37-45A2-910F-F0CA711B465A";
layerId = "BFA974FA-07EF-4923-BA9C-D78E829E3674";
name = "Feb 22 19, 16:45";
shapes = (
{
closed = 1;
nodes = (
(167,515,o),
(77,500,o),
(55,356,c),
(80,351,l),
(98,482,o),
(179,490,o),
(229,490,cs),
(315,490,o),
(341,383,o),
(341,254,cs),
(341,117,o),
(313,10,o),
(235,10,cs),
(166,10,o),
(94,65,o),
(60,197,c),
(50,197,l),
(73,31,l),
(130,1,o),
(184,-15,o),
(235,-15,cs),
(353,-15,o),
(446,92,o),
(446,254,cs),
(446,416,o),
(354,515,o),
(229,515,cs)
);
},
{
closed = 1;
nodes = (
(80,351,l),
(80,630,l),
(55,630,l),
(55,351,l)
);
},
{
closed = 1;
nodes = (
(324,595,l),
(371,595,o),
(390,583,o),
(390,543,c),
(399,543,l),
(399,700,l),
(55,700,l),
(55,595,l)
);
}
);
width = 449;
},
{
associatedMasterId = "1127FDDC-7967-4E0A-BDB2-81E1CCE90981";
layerId = "5610B0C9-CC1E-4D74-915E-582A4D339C49";
name = "Feb 22 19, 18:11";
shapes = (
{
closed = 1;
nodes = (
(82,357,l),
(82,630,l),
(57,630,l),
(57,357,l)
);
},
{
closed = 1;
nodes = (
(758,595,l),
(811,595,o),
(832,583,o),
(832,543,c),
(842,543,l),
(842,700,l),
(57,700,l),
(57,595,l)
);
},
{
closed = 1;
nodes = (
(211,515,o),
(117,469,o),
(62,373,c),
(82,357,l),
(130,454,o),
(242,490,o),
(389,490,cs),
(647,490,o),
(784,366,o),
(784,244,cs),
(784,126,o),
(645,10,o),
(402,10,cs),
(251,10,o),
(104,71,o),
(50,208,c),
(40,208,l),
(84,32,l),
(146,3,o),
(266,-15,o),
(406,-15,cs),
(727,-15,o),
(899,121,o),
(899,253,cs),
(899,384,o),
(740,515,o),
(425,515,cs)
);
}
);
width = 939;
},
{
layerId = "52EA2D2A-A4E3-47AA-B963-53B6A9E26FA1";
shapes = (
{
closed = 1;
nodes = (
(457,498,l),
(457,700,l),
(62,700,l),
(62,550,l),
(371,550,l),
(418,550,o),
(436,535,o),
(436,498,c)
);
},
{
closed = 1;
nodes = (
(80,31,l),
(141,0,o),
(192,-15,o),
(248,-15,cs),
(386,-15,o),
(493,77,o),
(493,248,cs),
(493,421,o),
(386,515,o),
(248,515,cs),
(190,515,o),
(134,493,o),
(97,425,c),
(97,655,l),
(62,655,l),
(62,351,l),
(96,351,l),
(140,441,o),
(171,479,o),
(218,479,cs),
(262,479,o),
(288,400,o),
(288,254,cs),
(288,96,o),
(267,23,o),
(210,23,cs),
(168,23,o),
(132,71,o),
(97,197,c),
(57,197,l)
);
}
);
width = 534;
},
{
layerId = "ECEC25EE-2268-427F-924A-A8A033D1E43A";
shapes = (
{
closed = 1;
nodes = (
(409,608,l),
(409,700,l),
(65,700,l),
(65,660,l),
(334,660,ls),
(381,660,o),
(399,648,o),
(399,608,c)
);
},
{
closed = 1;
nodes = (
(83,31,l),
(139,2,o),
(192,-15,o),
(241,-15,cs),
(367,-15,o),
(459,80,o),
(459,238,cs),
(459,418,o),
(356,516,o),
(240,516,cs),
(178,516,o),
(103,484,o),
(80,416,c),
(80,665,l),
(65,665,l),
(65,351,l),
(80,351,l),
(94,457,o),
(172,499,o),
(234,499,cs),
(343,499,o),
(414,398,o),
(414,237,cs),
(414,85,o),
(338,0,o),
(255,0,cs),
(163,0,o),
(109,50,o),
(70,197,c),
(60,197,l)
);
}
);
width = 519;
},
{
layerId = "92782D03-6C32-4A0E-AEF4-B0D65DFAA275";
shapes = (
{
closed = 1;
nodes = (
(865,513,l),
(865,700,l),
(80,700,l),
(80,570,l),
(767,570,l),
(820,570,o),
(841,553,o),
(841,513,c)
);
},
{
closed = 1;
nodes = (
(107,32,l),
(182,1,o),
(286,-15,o),
(394,-15,cs),
(645,-15,o),
(922,55,o),
(922,253,cs),
(922,439,o),
(695,515,o),
(422,515,cs),
(260,515,o),
(151,468,o),
(115,412,c),
(115,581,l),
(80,581,l),
(80,357,l),
(115,357,l),
(151,436,o),
(278,480,o),
(382,480,cs),
(519,480,o),
(637,393,o),
(637,240,cs),
(637,68,o),
(520,20,o),
(392,20,cs),
(274,20,o),
(146,75,o),
(93,208,c),
(63,208,l)
);
}
);
width = 963;
},
{
layerId = "C70D92E6-6044-4AAB-ADF3-B84826DC9CB7";
shapes = (
{
closed = 1;
nodes = (
(894,608,l),
(894,700,l),
(109,700,l),
(109,660,l),
(810,660,l),
(863,660,o),
(884,648,o),
(884,608,c)
);
},
{
closed = 1;
nodes = (
(136,44,l),
(230,4,o),
(359,-15,o),
(486,-15,cs),
(722,-15,o),
(953,62,o),
(953,242,cs),
(953,378,o),
(794,516,o),
(487,516,cs),
(338,516,o),
(194,477,o),
(124,384,c),
(124,671,l),
(109,671,l),
(109,357,l),
(124,357,l),
(183,455,o),
(324,501,o),
(470,501,cs),
(758,501,o),
(903,370,o),
(903,242,cs),
(903,82,o),
(705,3,o),
(504,0,cs),
(265,-4,o),
(202,28,o),
(102,220,c),
(92,220,l)
);
}
);
width = 1019;
},
{
associatedMasterId = "B6803316-6B37-45A2-910F-F0CA711B465A";
layerId = "1B3F1A93-CFD7-49F8-A8A8-03821FF49817";
name = "Apr 29 19, 19:05";
shapes = (
{
closed = 1;
nodes = (
(399,558,l),
(399,700,l),
(55,700,l),
(55,610,l),
(324,610,l),
(371,610,o),
(389,598,o),
(389,558,c)
);
},
{
closed = 1;
nodes = (
(73,31,l),
(130,1,o),
(184,-13,o),
(232,-13,cs),
(359,-13,o),
(446,86,o),
(446,254,cs),
(446,416,o),
(359,515,o),
(223,515,cs),
(168,515,o),
(110,500,o),
(80,430,c),
(80,655,l),
(55,655,l),
(55,351,l),
(80,351,l),
(98,450,o),
(151,490,o),
(213,490,cs),
(316,490,o),
(341,383,o),
(341,254,cs),
(341,117,o),
(313,10,o),
(235,10,cs),
(166,10,o),
(94,65,o),
(60,197,c),
(50,197,l)
);
}
);
width = 496;
}
);
unicode = 53;
}
{
glyphname = six;
layers = (
{
layerId = "1127FDDC-7967-4E0A-BDB2-81E1CCE90981";
shapes = (
{
closed = 1;
nodes = (
(1053,392,o),
(851,515,o),
(574,515,cs),
(410,515,o),
(271,472,o),
(186,406,c),
(220,589,o),
(377,690,o),
(604,690,cs),
(781,690,o),
(960,621,o),
(1030,470,c),
(1039,470,l),
(1014,637,l),
(900,690,o),
(754,715,o),
(618,715,cs),
(295,715,o),
(66,575,o),
(66,336,cs),
(66,94,o),
(333,-15,o),
(589,-15,cs),
(826,-15,o),
(1053,78,o),
(1053,246,cs)
);
},
{
closed = 1;
nodes = (
(186,407,o),
(348,490,o),
(562,490,cs),
(776,490,o),
(938,388,o),
(938,246,cs),
(938,116,o),
(785,10,o),
(581,10,cs),
(405,10,o),
(186,113,o),
(186,267,cs)
);
}
);
width = 1127;
},
{
associatedMasterId = "1127FDDC-7967-4E0A-BDB2-81E1CCE90981";
layerId = "9FA54866-5363-40E6-A4E9-4AD4DD60C9AF";
name = "Feb 22 19, 18:18";
shapes = (
{
closed = 1;
nodes = (
(605,10,l),
(601,10,o),
(597,10,o),
(593,10,cs),
(335,10,o),
(175,150,o),
(175,345,cs),
(175,566,o),
(380,690,o),
(598,690,cs),
(775,690,o),
(954,621,o),
(1024,470,c),
(1033,470,l),
(1008,637,l),
(894,690,o),
(748,715,o),
(612,715,cs),
(323,715,o),
(60,578,o),
(60,345,cs),
(60,143,o),
(302,-15,o),
(593,-15,cs),
(597,-15,o),
(601,-15,o),
(605,-15,c)
);
},
{
closed = 1;
nodes = (
(535,-14,l),
(546,-15,o),
(557,-15,o),
(568,-15,cs),
(845,-15,o),
(1047,100,o),
(1047,246,c),
(1047,392,o),
(845,515,o),
(568,515,cs),
(291,515,o),
(89,392,o),
(89,246,cs),
(89,241,o),
(89,236,o),
(90,230,c),
(193,233,l),
(193,237,o),
(193,242,o),
(193,246,cs),
(193,388,o),
(342,490,o),
(556,490,cs),
(770,490,o),
(932,388,o),
(932,246,cs),
(932,112,o),
(770,10,o),
(556,10,cs),
(549,10,o),
(542,10,o),
(535,10,c)
);
}
);
width = 1189;
},
{
background = {
shapes = (
{
closed = 1;
nodes = (
(556,443,o),
(438,535,o),
(303,535,cs),
(251,535,o),
(206,521,o),
(232,523,c),
(240,621,o),
(288,679,o),
(342,679,cs),
(396,679,o),
(467,623,o),
(498,497,c),
(538,497,l),
(505,663,l),
(443,701,o),
(362,715,o),
(311,715,cs),
(149,715,o),
(38,552,o),
(38,305,cs),
(38,94,o),
(158,-15,o),
(300,-15,cs),
(427,-15,o),
(556,69,o),
(556,254,cs)
);
},
{
closed = 1;
nodes = (
(252,20,o),
(234,92,o),
(234,274,cs),
(234,426,o),
(250,500,o),
(296,500,cs),
(343,500,o),
(361,419,o),
(361,254,cs),
(361,85,o),
(345,20,o),
(299,20,cs)
);
}
);
};
layerId = "52EA2D2A-A4E3-47AA-B963-53B6A9E26FA1";
shapes = (
{
closed = 1;
nodes = (
(556,443,o),
(438,535,o),
(303,535,cs),
(251,535,o),
(206,521,o),
(232,523,c),
(240,621,o),
(288,679,o),
(342,679,cs),
(396,679,o),
(467,623,o),
(498,497,c),
(538,497,l),
(505,663,l),
(453,699,o),
(398,715,o),
(339,715,cs),
(150,715,o),
(38,579,o),
(38,305,cs),
(38,94,o),
(158,-15,o),
(300,-15,cs),
(427,-15,o),
(556,69,o),
(556,254,cs)
);
},
{
closed = 1;
nodes = (
(234,426,o),
(250,500,o),
(296,500,cs),
(343,500,o),
(361,419,o),
(361,254,cs),
(361,85,o),
(345,20,o),
(299,20,cs),
(252,20,o),
(234,92,o),
(234,274,cs)
);
}
);
width = 597;
},
{
layerId = "C70D92E6-6044-4AAB-ADF3-B84826DC9CB7";
shapes = (
{
closed = 1;
nodes = (
(1059,422,o),
(848,516,o),
(579,516,cs),
(374,516,o),
(185,473,o),
(124,372,c),
(144,599,o),
(351,700,o),
(596,700,cs),
(831,700,o),
(981,650,o),
(1032,470,c),
(1042,470,l),
(1015,637,l),
(892,689,o),
(746,715,o),
(604,715,cs),
(324,715,o),
(73,605,o),
(73,335,cs),
(73,95,o),
(287,-15,o),
(576,-15,cs),
(809,-15,o),
(1059,72,o),
(1059,246,cs)
);
},
{
closed = 1;
nodes = (
(127,416,o),
(276,501,o),
(570,501,cs),
(845,501,o),
(1009,395,o),
(1009,251,cs),
(1009,105,o),
(848,0,o),
(573,0,cs),
(263,0,o),
(135,155,o),
(132,259,cs)
);
}
);
width = 1137;
},
{
background = {
shapes = (
{
closed = 1;
nodes = (
(1034,422,o),
(841,515,o),
(572,515,cs),
(455,515,o),
(354,492,o),
(326,470,c),
(338,613,o),
(457,680,o),
(594,680,cs),
(739,680,o),
(904,607,o),
(989,470,c),
(1019,470,l),
(992,637,l),
(868,690,o),
(728,716,o),
(594,716,cs),
(303,716,o),
(42,589,o),
(42,325,cs),
(42,97,o),
(321,-15,o),
(581,-15,cs),
(843,-15,o),
(1034,70,o),
(1034,246,cs)
);
},
{
closed = 1;
nodes = (
(328,402,o),
(432,479,o),
(538,479,cs),
(643,479,o),
(749,402,o),
(749,246,cs),
(749,96,o),
(643,20,o),
(538,20,cs),
(432,20,o),
(328,96,o),
(328,246,cs)
);
}
);
};
layerId = "92782D03-6C32-4A0E-AEF4-B0D65DFAA275";
shapes = (
{
closed = 1;
nodes = (
(1034,422,o),
(841,515,o),
(572,515,cs),
(455,515,o),
(354,492,o),
(326,470,c),
(338,613,o),
(457,680,o),
(594,680,cs),
(739,680,o),
(904,607,o),
(989,470,c),
(1019,470,l),
(992,637,l),
(868,690,o),
(728,716,o),
(594,716,cs),
(303,716,o),
(42,589,o),
(42,325,cs),
(42,97,o),
(321,-15,o),
(581,-15,cs),
(843,-15,o),
(1034,70,o),
(1034,246,cs)
);
},
{
closed = 1;
nodes = (
(328,402,o),
(432,479,o),
(538,479,cs),
(643,479,o),
(749,402,o),
(749,246,cs),
(749,96,o),
(643,20,o),
(538,20,cs),
(432,20,o),
(328,96,o),
(328,246,cs)
);
}
);
width = 1086;
},
{
associatedMasterId = "ECEC25EE-2268-427F-924A-A8A033D1E43A";
layerId = "01F3D0DB-123B-4F32-8FBF-761205933999";
name = "May 19 19, 14:41";
shapes = (
{
closed = 1;
nodes = (
(494,426,o),
(386,515,o),
(277,516,cs),
(199,516,o),
(135,478,o),
(108,408,c),
(115,593,o),
(191,701,o),
(281,701,cs),
(368,701,o),
(420,661,o),
(455,503,c),
(465,503,l),
(442,669,l),
(406,693,o),
(329,715,o),
(283,715,cs),
(127,715,o),
(60,543,o),
(60,299,cs),
(60,73,o),
(131,-15,o),
(288,-15,cs),
(393,-15,o),
(494,71,o),
(494,249,cs)
);
},
{
closed = 1;
nodes = (
(178,-3,o),
(104,85,o),
(104,249,cs),
(104,385,o),
(164,501,o),
(276,501,cs),
(367,501,o),
(449,418,o),
(449,249,cs),
(449,85,o),
(384,-3,o),
(282,-3,cs)
);
}
);
width = 554;
},
{
layerId = "ECEC25EE-2268-427F-924A-A8A033D1E43A";
shapes = (
{
closed = 1;
nodes = (
(501,410,o),
(417,514,o),
(288,515,cs),
(221,516,o),
(150,494,o),
(111,426,c),
(128,612,o),
(207,701,o),
(286,700,cs),
(357,699,o),
(424,653,o),
(468,481,c),
(478,481,l),
(452,648,l),
(433,680,o),
(356,714,o),
(293,715,cs),
(166,716,o),
(63,616,o),
(60,322,cs),
(58,109,o),
(128,-14,o),
(277,-15,cs),
(417,-16,o),
(498,86,o),
(499,244,cs)
);
},
{
closed = 1;
nodes = (
(106,446,o),
(214,501,o),
(288,500,cs),
(376,499,o),
(456,416,o),
(454,244,cs),
(453,107,o),
(411,-1,o),
(283,0,cs),
(139,1,o),
(104,181,o),
(105,281,cs)
);
}
);
width = 559;
},
{
associatedMasterId = "B6803316-6B37-45A2-910F-F0CA711B465A";
layerId = "EF98B8FA-11B6-4DF1-AFCE-90FA6F6B96AD";
name = "May 19 19, 14:51";
shapes = (
{
closed = 1;
nodes = (
(493,450,o),
(398,526,o),
(306,526,cs),
(244,526,o),
(205,509,o),
(171,471,c),
(186,615,o),
(228,691,o),
(292,691,cs),
(350,691,o),
(408,631,o),
(441,504,c),
(451,504,l),
(428,670,l),
(377,701,o),
(352,715,o),
(296,715,cs),
(159,715,o),
(75,550,o),
(75,305,cs),
(75,161,o),
(139,-15,o),
(287,-15,cs),
(424,-15,o),
(493,97,o),
(493,254,cs)
);
},
{
closed = 1;
nodes = (
(183,10,o),
(180,129,o),
(180,274,cs),
(180,375,o),
(197,501,o),
(278,501,cs),
(338,501,o),
(397,418,o),
(397,254,cs),
(397,123,o),
(384,10,o),
(288,10,cs)
);
}
);
width = 578;
},
{
associatedMasterId = "B6803316-6B37-45A2-910F-F0CA711B465A";
layerId = "6A7FA009-3CB9-45A4-9F31-CCD714366C36";
name = "May 19 19, 15:00";
shapes = (
{
closed = 1;
nodes = (
(499,414,o),
(414,515,o),
(284,515,cs),
(224,515,o),
(170,493,o),
(149,471,c),
(154,612,o),
(223,690,o),
(295,690,cs),
(370,690,o),
(432,633,o),
(475,511,c),
(485,511,l),
(467,648,l),
(427,687,o),
(354,714,o),
(296,714,cs),
(148,714,o),
(60,582,o),
(60,313,cs),
(60,104,o),
(130,-15,o),
(278,-15,cs),
(419,-15,o),
(499,90,o),
(499,250,cs)
);
},
{
closed = 1;
nodes = (
(156,426,o),
(214,490,o),
(286,490,cs),
(338,490,o),
(404,416,o),
(404,252,cs),
(404,80,o),
(345,10,o),
(285,10,cs),
(221,10,o),
(156,90.99,o),
(156,273,cs)
);
}
);
width = 578;
},
{
layerId = "B6803316-6B37-45A2-910F-F0CA711B465A";
shapes = (
{
closed = 1;
nodes = (
(505,414,o),
(420,515,o),
(290,515,cs),
(230,515,o),
(176,493,o),
(155,471,c),
(160,612,o),
(229,690,o),
(301,690,cs),
(366,690,o),
(428,633,o),
(471,511,c),
(481,511,l),
(463,648,l),
(404,694,o),
(350,714,o),
(302,714,cs),
(154,714,o),
(66,582,o),
(66,313,cs),
(66,104,o),
(136,-15,o),
(284,-15,cs),
(425,-15,o),
(505,90,o),
(505,250,cs)
);
},
{
closed = 1;
nodes = (
(162,426,o),
(220,490,o),
(292,490,cs),
(344,490,o),
(410,416,o),
(410,252,cs),
(410,80,o),
(351,10,o),
(291,10,cs),
(227,10,o),
(162,91,o),
(162,273,cs)
);
}
);
width = 568;
},
{
associatedMasterId = "52EA2D2A-A4E3-47AA-B963-53B6A9E26FA1";
layerId = "E1C3892F-146D-4CE2-A8AD-ECCDF0857BBD";
name = "May 19 19, 15:02";
shapes = (
{
closed = 1;
nodes = (
(583,443,o),
(465,535,o),
(330,535,cs),
(278,535,o),
(233,521,o),
(206,495,c),
(222,615,o),
(271,679,o),
(335,679,cs),
(400,679,o),
(477,629,o),
(513,497,c),
(553,497,l),
(520,663,l),
(458,701,o),
(389,715,o),
(338,715,cs),
(176,715,o),
(65,552,o),
(65,305,cs),
(65,94,o),
(185,-15,o),
(327,-15,cs),
(454,-15,o),
(583,69,o),
(583,254,cs)
);
},
{
closed = 1;
nodes = (
(279,20,o),
(261,92,o),
(261,274,cs),
(261,426,o),
(277,500,o),
(323,500,cs),
(370,500,o),
(388,419,o),
(388,254,cs),
(388,85,o),
(372,20,o),
(326,20,cs)
);
}
);
width = 600;
},
{
associatedMasterId = "C70D92E6-6044-4AAB-ADF3-B84826DC9CB7";
layerId = "C339D65F-EAEA-432B-8D30-31505597EA67";
name = "May 19 19, 15:06";
shapes = (
{
closed = 1;
nodes = (
(1056,422,o),
(818,516,o),
(576,516,cs),
(391,516,o),
(181,464,o),
(120,345,c),
(110,572,o),
(358,700,o),
(603,700,cs),
(838,700,o),
(978,650,o),
(1029,470,c),
(1039,470,l),
(1012,637,l),
(889,689,o),
(753,715,o),
(611,715,cs),
(331,715,o),
(70,595,o),
(70,345,cs),
(70,62,o),
(320,-15,o),
(620,-15,cs),
(871,-15,o),
(1056,98,o),
(1056,246,cs)
);
},
{
closed = 1;
nodes = (
(334,0,o),
(151,90,o),
(151,264,cs),
(151,423,o),
(352,501,o),
(558,501,cs),
(776,501,o),
(1000,414,o),
(1000,246,cs),
(1000,90,o),
(776,0,o),
(594,0,cs)
);
}
);
width = 1126;
}
);
unicode = 54;
}
{
glyphname = seven;
layers = (
{
background = {
shapes = (
{
closed = 1;
nodes = (
(53,568,l),
(63,568,l),
(63,608,o),
(82,620,o),
(129,620,cs),
(820,620,l),
(820,507,o),
(596,476,o),
(504,373,cs),
(410,262,o),
(363,139,o),
(363,0,c),
(478,0,l),
(479,179,o),
(500,276,o),
(556,348,cs),
(664,487,o),
(847,479,o),
(847,620,c),
(847,700,l),
(53,700,l)
);
}
);
};
layerId = "1127FDDC-7967-4E0A-BDB2-81E1CCE90981";
shapes = (
{
closed = 1;
nodes = (
(53,568,l),
(63,568,l),
(63,608,o),
(82,620,o),
(129,620,cs),
(820,620,l),
(820,522,o),
(666,501,o),
(537,398,cs),
(446,326,o),
(363,186,o),
(363,0,c),
(478,0,l),
(478,218,o),
(525,309,o),
(583,375,cs),
(686,489,o),
(847,476,o),
(847,620,c),
(847,700,l),
(53,700,l)
);
}
);
width = 900;
},
{
layerId = "B6803316-6B37-45A2-910F-F0CA711B465A";
shapes = (
{
closed = 1;
nodes = (
(45,568,l),
(55,568,l),
(55,608,o),
(74,620,o),
(121,620,cs),
(362,620,l),
(362,531,o),
(306,499,o),
(206,373,cs),
(120,265,o),
(75,137,o),
(75,0,c),
(180,0,l),
(180,160,o),
(206,247,o),
(245,322,cs),
(284,401,o),
(389,493,o),
(389,620,c),
(389,700,l),
(45,700,l)
);
}
);
width = 424;
},
{
associatedMasterId = "B6803316-6B37-45A2-910F-F0CA711B465A";
layerId = "F4C43A8C-0233-494B-A93B-93B08A88C85D";
name = "Feb 22 19, 17:01";
shapes = (
{
closed = 1;
nodes = (
(399,700,l),
(55,700,l),
(55,543,l),
(64,543,l),
(64,583,o),
(83,595,o),
(130,595,c),
(399,595,l)
);
},
{
closed = 1;
nodes = (
(328,440,l),
(337,452,o),
(347,465,o),
(356,479,cs),
(387,526,o),
(418,590,o),
(422,630,c),
(397,630,l),
(388,590,o),
(375,560,o),
(366,547,cs),
(327,490,o),
(254,645,o),
(165,645,cs),
(84,645,o),
(29,579,o),
(30,468,c),
(55,468,l),
(55,532,o),
(67,567,o),
(110,567,cs),
(174,567,o),
(286,458,o),
(317,468,c),
(314,462,o),
(310,457,o),
(306,452,c)
);
},
{
closed = 1;
nodes = (
(137,129,l),
(138,302,o),
(226,307,o),
(328,440,c),
(306,452,l),
(281,418,o),
(238,396,o),
(143,327,c),
(76,286,o),
(32,217,o),
(32,130,cs),
(32,130,o),
(32,129,o),
(32,129,c)
);
}
);
width = 600;
},
{
associatedMasterId = "1127FDDC-7967-4E0A-BDB2-81E1CCE90981";
layerId = "D97CBF54-4433-4AE2-8122-7F6B0F2C8E5C";
name = "Mar 5 19, 16:45";
shapes = (
{
closed = 1;
nodes = (
(864,700,l),
(100,700,l),
(100,568,l),
(109,568,l),
(109,608,o),
(128,620,o),
(175,620,c),
(864,620,l)
);
},
{
closed = 1;
nodes = (
(495,0,l),
(496,179,o),
(513,274,o),
(573,348,cs),
(697,500,o),
(818,507,o),
(864,620,c),
(837,620,l),
(812,556,o),
(621,482,o),
(521,373,cs),
(450,295,o),
(390,166,o),
(390,2,cs),
(390,2,o),
(390,0,o),
(390,0,c)
);
}
);
width = 914;
},
{
associatedMasterId = "1127FDDC-7967-4E0A-BDB2-81E1CCE90981";
layerId = "4F0741BB-CFB0-4B3C-8C2A-0EA24B773A97";
name = "Mar 7 19, 17:05";
shapes = (
{
closed = 1;
nodes = (
(100,568,l),
(109,568,l),
(109,608,o),
(128,620,o),
(175,620,cs),
(837,620,l),
(837,540,o),
(662,500,o),
(521,373,cs),
(442,302,o),
(390,166,o),
(390,2,cs),
(390,0,l),
(495,0,l),
(496,179,o),
(513,274,o),
(573,348,cs),
(702,509,o),
(864,500,o),
(864,620,c),
(864,700,l),
(100,700,l)
);
}
);
width = 914;
},
{
layerId = "52EA2D2A-A4E3-47AA-B963-53B6A9E26FA1";
shapes = (
{
closed = 1;
nodes = (
(36,498,l),
(57,498,l),
(57,538,o),
(76,550,o),
(123,550,cs),
(375,550,l),
(375,450,o),
(278,397,o),
(195,320,cs),
(119,250,o),
(46,161,o),
(46,0,c),
(266,0,l),
(267,155,o),
(294,221,o),
(332,282,cs),
(371,345,o),
(411,402,o),
(410,550,c),
(410,700,l),
(36,700,l)
);
}
);
width = 441;
},
{
layerId = "ECEC25EE-2268-427F-924A-A8A033D1E43A";
shapes = (
{
closed = 1;
nodes = (
(70,608,l),
(79,608,l),
(79,648,o),
(98,660,o),
(145,660,cs),
(399,660,l),
(399,531,o),
(320,481,o),
(246,373,cs),
(165,255,o),
(125,146,o),
(125,0,c),
(175,0,l),
(175,173,o),
(209,251,o),
(248,322,cs),
(331,471,o),
(414,493,o),
(414,660,c),
(414,700,l),
(70,700,l)
);
}
);
width = 439;
},
{
layerId = "92782D03-6C32-4A0E-AEF4-B0D65DFAA275";
shapes = (
{
closed = 1;
nodes = (
(36,509,l),
(60,509,l),
(60,549,o),
(79,570,o),
(126,570,cs),
(765,570,l),
(764,501,o),
(521,434,o),
(351,298,cs),
(257,223,o),
(185,128,o),
(186,0,c),
(471,0,l),
(471,146,o),
(520,235,o),
(579,301,cs),
(675,406,o),
(800,451,o),
(800,570,c),
(800,700,l),
(36,700,l)
);
}
);
width = 835;
},
{
layerId = "C70D92E6-6044-4AAB-ADF3-B84826DC9CB7";
shapes = (
{
closed = 1;
nodes = (
(53,608,l),
(62,608,l),
(62,648,o),
(81,660,o),
(128,660,cs),
(822,660,l),
(822,526,o),
(622,493,o),
(493,369,cs),
(405,285,o),
(363,165,o),
(363,0,c),
(413,0,l),
(405,134,o),
(429,226,o),
(470,294,cs),
(586,485,o),
(837,482,o),
(837,660,c),
(837,700,l),
(53,700,l)
);
}
);
width = 891;
},
{
associatedMasterId = "C70D92E6-6044-4AAB-ADF3-B84826DC9CB7";
layerId = "4E8103AB-71F7-4858-B61B-8CB91788E5EF";
name = "May 1 19, 13:06";
shapes = (
{
closed = 1;
nodes = (
(50,608,l),
(59,608,l),
(59,648,o),
(78,660,o),
(125,660,cs),
(799,660,l),
(799,532,o),
(594,489,o),
(481,373,cs),
(382,271,o),
(340,176,o),
(340,2,cs),
(340,0,l),
(390,0,l),
(391,189,o),
(412,264,o),
(490,348,cs),
(619,487,o),
(814,514,o),
(814,660,c),
(814,700,l),
(50,700,l)
);
}
);
width = 864;
}
);
unicode = 55;
}
{
glyphname = eight;
layers = (
{
layerId = "1127FDDC-7967-4E0A-BDB2-81E1CCE90981";
shapes = (
{
closed = 1;
nodes = (
(878,439,o),
(878,170,cs),
(878,66,o),
(719,10,o),
(523,10,cs),
(331,10,o),
(162,70,o),
(162,186,cs),
(162,307,o),
(333,383,o),
(402,391,c),
(365,403,l),
(237,383,o),
(62,329,o),
(62,183,cs),
(62,51,o),
(258,-15,o),
(499,-15,cs),
(760,-15,o),
(992,58,o),
(992,203,cs),
(992,500,o),
(212,415,o),
(212,572,cs),
(212,642,o),
(371,690,o),
(529,690,cs),
(684,690,o),
(838,643,o),
(838,547,cs),
(838,471,o),
(715,440,o),
(665,429,c),
(702,417,l),
(784,425,o),
(938,470,o),
(938,551,cs),
(938,662,o),
(739,715,o),
(535,715,cs),
(319,715,o),
(97,656,o),
(97,544,cs),
(97,318,o)
);
}
);
width = 1050;
},
{
associatedMasterId = "1127FDDC-7967-4E0A-BDB2-81E1CCE90981";
layerId = "0E116A79-A552-4166-8E0D-91AA31D5D81B";
name = "Mar 11 19, 17:32";
shapes = (
{
closed = 1;
nodes = (
(844,439,o),
(844,170,cs),
(844,66,o),
(685,10,o),
(529,10,cs),
(377,10,o),
(208,63,o),
(208,186,cs),
(208,307,o),
(369,375,o),
(438,383,c),
(401,395,l),
(284,385,o),
(112,330,o),
(108,187,cs),
(104,45,o),
(302,-15,o),
(505,-15,cs),
(726,-15,o),
(958,58,o),
(958,203,cs),
(958,500,o),
(258,415,o),
(258,572,cs),
(258,647,o),
(364,690,o),
(526,690,cs),
(631,690,o),
(804,682,o),
(804,547,cs),
(804,471,o),
(681,440,o),
(631,429,c),
(668,417,l),
(750,425,o),
(904,470,o),
(904,551,cs),
(904,677,o),
(683,715,o),
(532,715,cs),
(282,715,o),
(143,634,o),
(143,544,cs),
(143,318,o)
);
}
);
width = 1000;
},
{
layerId = "ECEC25EE-2268-427F-924A-A8A033D1E43A";
shapes = (
{
closed = 1;
nodes = (
(463,425,o),
(463,186,cs),
(463,58,o),
(371,0,o),
(287,0,cs),
(188,0,o),
(105,63,o),
(105,186,cs),
(105,325,o),
(199,387,o),
(257,397,c),
(244,407,l),
(157,387,o),
(60,329,o),
(60,183,cs),
(60,46,o),
(166,-15,o),
(281,-15,cs),
(396,-15,o),
(502,51,o),
(502,203,cs),
(502,458,o),
(122,383,o),
(122,566,cs),
(122,657,o),
(198,702,o),
(275,702,cs),
(353,702,o),
(427,656,o),
(427,561,cs),
(427,471,o),
(356,419,o),
(307,410,c),
(319,399,l),
(396,417,o),
(472,470,o),
(472,557,cs),
(472,663,o),
(381,714,o),
(285,714,cs),
(185,714,o),
(84,659,o),
(84,551,cs),
(84,350,o)
);
}
);
width = 562;
},
{
layerId = "92782D03-6C32-4A0E-AEF4-B0D65DFAA275";
shapes = (
{
closed = 1;
nodes = (
(694,322,o),
(694,139,cs),
(694,49,o),
(589,20,o),
(473,20,cs),
(326,20,o),
(258,83,o),
(258,168,cs),
(258,253,o),
(334,292,o),
(393,310,c),
(383,353,l),
(228,342,o),
(33,291,o),
(33,173,cs),
(33,41,o),
(230,-15,o),
(473,-15,cs),
(716,-15,o),
(913,41,o),
(913,206,cs),
(913,499,o),
(310,397,o),
(310,584,cs),
(310,663,o),
(393,686,o),
(473,686,cs),
(553,686,o),
(629,657,o),
(629,570,cs),
(629,511,o),
(600,466,o),
(554,446,c),
(584,423,l),
(645,423,o),
(861,455,o),
(861,571,cs),
(861,688,o),
(677,715,o),
(473,715,cs),
(268,715,o),
(85,658,o),
(85,530,cs),
(85,256,o)
);
}
);
width = 950;
},
{
layerId = "C70D92E6-6044-4AAB-ADF3-B84826DC9CB7";
shapes = (
{
closed = 1;
nodes = (
(910,458,o),
(915,169,cs),
(917,45,o),
(726,0,o),
(510,0,cs),
(244,0,o),
(114,102,o),
(114,200,cs),
(114,289,o),
(219,375,o),
(439,382,c),
(429,397,l),
(182,385,o),
(64,291,o),
(64,196,cs),
(64,92,o),
(209,-15,o),
(507,-15,cs),
(747,-15,o),
(959,38,o),
(959,193,cs),
(959,489,o),
(149,353,o),
(149,555,cs),
(149,647,o),
(323,700,o),
(512,700,cs),
(741,700,o),
(857,622,o),
(857,546,cs),
(857,482,o),
(775,419,o),
(595,404,c),
(596,391,l),
(809,405,o),
(908,477,o),
(908,549,cs),
(908,632,o),
(776,716,o),
(511,716,cs),
(299,716,o),
(104,658,o),
(104,544,cs),
(104,301,o)
);
}
);
width = 1022;
},
{
associatedMasterId = "B6803316-6B37-45A2-910F-F0CA711B465A";
layerId = "08EE0996-78BF-49E8-B88C-A015C60A052F";
name = "Apr 18 19, 15:51";
shapes = (
{
closed = 1;
nodes = (
(429,444,o),
(429,170,cs),
(429,64,o),
(360,10,o),
(291,10,cs),
(218,10,o),
(145,68,o),
(145,186,cs),
(145,307,o),
(208,377,o),
(246,385,c),
(226,395,l),
(161,386,o),
(50,329,o),
(50,183,cs),
(50,44,o),
(159,-15,o),
(277,-15,cs),
(393,-15,o),
(522,39,o),
(522,203,cs),
(522,502,o),
(147,407,o),
(147,578,cs),
(147,650,o),
(202,690,o),
(272,690,cs),
(356,690,o),
(397,651,o),
(397,547,cs),
(397,475,o),
(367,440,o),
(341,429,c),
(363,415,l),
(408,424,o),
(492,470,o),
(492,551,cs),
(492,662,o),
(392,715,o),
(290,715,cs),
(179,715,o),
(70,656,o),
(70,544,cs),
(70,318,o)
);
}
);
width = 572;
},
{
background = {
shapes = (
{
closed = 1;
nodes = (
(407,428,o),
(407,170,cs),
(407,64,o),
(346,10,o),
(285,10,cs),
(219,10,o),
(153,68,o),
(153,186,cs),
(153,307,o),
(203,375,o),
(241,383,c),
(221,395,l),
(156,385,o),
(58,329,o),
(58,183,cs),
(58,51,o),
(164,-15,o),
(279,-15,cs),
(385,-15,o),
(500,57,o),
(500,203,cs),
(500,500,o),
(155,383,o),
(155,590,cs),
(155,660,o),
(202,695,o),
(265,695,cs),
(332,695,o),
(375,656,o),
(375,561,cs),
(375,471,o),
(346,440,o),
(319,429,c),
(339,417,l),
(385,425,o),
(470,470,o),
(470,557,cs),
(470,664,o),
(379,715,o),
(285,715,cs),
(179,715,o),
(78,656,o),
(78,544,cs),
(78,296,o)
);
}
);
};
layerId = "B6803316-6B37-45A2-910F-F0CA711B465A";
shapes = (
{
closed = 1;
nodes = (
(420,421,o),
(420,170,cs),
(420,64,o),
(346,10,o),
(285,10,cs),
(219,10,o),
(153,68,o),
(153,186,cs),
(153,307,o),
(203,375,o),
(241,383,c),
(221,395,l),
(156,385,o),
(58,329,o),
(58,183,cs),
(58,51,o),
(164,-15,o),
(279,-15,cs),
(385,-15,o),
(500,57,o),
(500,203,cs),
(500,500,o),
(155,383,o),
(155,590,cs),
(155,660,o),
(202,695,o),
(265,695,cs),
(332,695,o),
(375,656,o),
(375,561,cs),
(375,471,o),
(346,440,o),
(319,429,c),
(339,417,l),
(385,425,o),
(470,470,o),
(470,557,cs),
(470,664,o),
(379,715,o),
(285,715,cs),
(179,715,o),
(78,656,o),
(78,544,cs),
(78,296,o)
);
}
);
width = 555;
},
{
associatedMasterId = "B6803316-6B37-45A2-910F-F0CA711B465A";
layerId = "9E423D38-65E2-4887-A9B8-CE65EEECC55B";
name = "Apr 18 19, 16:17";
shapes = (
{
closed = 1;
nodes = (
(394,433,o),
(394,170,cs),
(394,64,o),
(333,10,o),
(272,10,cs),
(206,10,o),
(140,68,o),
(140,186,cs),
(140,307,o),
(190,375,o),
(228,383,c),
(208,395,l),
(143,385,o),
(45,329,o),
(45,183,cs),
(45,51,o),
(151,-15,o),
(266,-15,cs),
(372,-15,o),
(487,57,o),
(487,203,cs),
(487,502,o),
(142,397,o),
(142,590,cs),
(142,660,o),
(189,695,o),
(252,695,cs),
(319,695,o),
(362,656,o),
(362,561,cs),
(362,471,o),
(333,440,o),
(306,429,c),
(326,417,l),
(372,425,o),
(457,470,o),
(457,557,cs),
(457,664,o),
(366,715,o),
(272,715,cs),
(166,715,o),
(65,656,o),
(65,544,cs),
(65,322,o)
);
}
);
width = 532;
},
{
associatedMasterId = "ECEC25EE-2268-427F-924A-A8A033D1E43A";
layerId = "61F5EC97-F16D-4B38-83CB-1CB80FE5C58B";
name = "Apr 30 19, 16:51";
shapes = (
{
closed = 1;
nodes = (
(444,425,o),
(444,170,cs),
(444,58,o),
(352,0,o),
(272,0,cs),
(173,0,o),
(90,63,o),
(90,186,cs),
(90,307,o),
(192,390,o),
(230,398,c),
(220,404,l),
(153,386,o),
(45,329,o),
(45,183,cs),
(45,46,o),
(151,-15,o),
(266,-15,cs),
(377,-15,o),
(487,51,o),
(487,203,cs),
(487,468,o),
(103,383,o),
(103,584,cs),
(103,671,o),
(189,700,o),
(252,700,cs),
(319,700,o),
(412,656,o),
(412,561,cs),
(412,471,o),
(327,422,o),
(300,411,c),
(310,404,l),
(362,430,o),
(457,470,o),
(457,557,cs),
(457,664,o),
(366,715,o),
(272,715,cs),
(166,715,o),
(65,667,o),
(65,544,cs),
(65,357,o)
);
}
);
width = 600;
},
{
layerId = "52EA2D2A-A4E3-47AA-B963-53B6A9E26FA1";
shapes = (
{
closed = 1;
nodes = (
(390,325,o),
(390,149,cs),
(390,68,o),
(362,20,o),
(295,20,cs),
(231,20,o),
(199,86,o),
(199,178,cs),
(199,272,o),
(231,345,o),
(277,353,c),
(262,366,l),
(94,363,o),
(27,258,o),
(27,171,cs),
(27,56,o),
(118,-15,o),
(295,-15,cs),
(441,-15,o),
(548,57,o),
(548,203,cs),
(548,477,o),
(221,407,o),
(221,590,cs),
(221,648,o),
(256,683,o),
(291,683,cs),
(325,683,o),
(358,650,o),
(358,575,cs),
(358,513,o),
(352,446,o),
(313,428,c),
(331,412,l),
(413,420,o),
(528,459,o),
(528,561,cs),
(528,685,o),
(400,715,o),
(301,715,cs),
(178,715,o),
(64,664,o),
(64,544,cs),
(64,287,o)
);
}
);
width = 583;
},
{
associatedMasterId = "52EA2D2A-A4E3-47AA-B963-53B6A9E26FA1";
layerId = "48DD0169-C6C3-4EBE-AA48-CF43A0B5648B";
name = "Apr 30 19, 18:36";
shapes = (
{
closed = 1;
nodes = (
(394,325,o),
(394,149,cs),
(394,68,o),
(366,20,o),
(299,20,cs),
(235,20,o),
(203,86,o),
(203,178,cs),
(203,272,o),
(235,351,o),
(281,359,c),
(266,372,l),
(98,369,o),
(31,258,o),
(31,171,cs),
(31,56,o),
(122,-15,o),
(299,-15,cs),
(445,-15,o),
(552,57,o),
(552,203,cs),
(552,477,o),
(225,407,o),
(225,590,cs),
(225,648,o),
(260,683,o),
(295,683,cs),
(329,683,o),
(362,650,o),
(362,575,cs),
(362,513,o),
(354,444,o),
(315,426,c),
(333,420,l),
(416,417,o),
(532,461,o),
(532,561,cs),
(532,685,o),
(404,715,o),
(305,715,cs),
(182,715,o),
(68,664,o),
(68,544,cs),
(68,287,o)
);
}
);
width = 600;
},
{
associatedMasterId = "92782D03-6C32-4A0E-AEF4-B0D65DFAA275";
layerId = "AE1C2A6F-8C3E-4DA2-A3A8-5880CE8B4E79";
name = "May 1 19, 16:48";
shapes = (
{
closed = 1;
nodes = (
(709,307,o),
(709,149,cs),
(709,65,o),
(616,20,o),
(524,20,cs),
(432,20,o),
(340,65,o),
(340,162,cs),
(340,236,o),
(370,286,o),
(439,294,c),
(439,315,l),
(295,315,o),
(90,310,o),
(90,162,cs),
(90,30,o),
(306,-15,o),
(507,-15,cs),
(728,-15,o),
(957,31,o),
(960,201,cs),
(967,567,o),
(405,379,o),
(400,595,cs),
(399,642,o),
(466,686,o),
(531,686,cs),
(594,686,o),
(656,651,o),
(656,563,cs),
(656,517,o),
(645,466,o),
(595,466,c),
(595,445,l),
(715,445,o),
(906,449,o),
(906,567,cs),
(906,683,o),
(685,715,o),
(534,715,cs),
(284,715,o),
(145,634,o),
(145,500,cs),
(145,186,o)
);
}
);
width = 1010;
},
{
associatedMasterId = "92782D03-6C32-4A0E-AEF4-B0D65DFAA275";
layerId = "AF4F3A9F-502D-4831-AD68-3DB2501425FD";
name = "May 18 19, 16:48";
shapes = (
{
closed = 1;
nodes = (
(748,322,o),
(748,149,cs),
(748,66,o),
(632,20,o),
(540,20,cs),
(383,20,o),
(325,100,o),
(325,178,cs),
(325,253,o),
(382,328,o),
(452,328,c),
(452,349,l),
(214,349,o),
(93,291,o),
(93,173,cs),
(93,50,o),
(229,-15,o),
(520,-15,cs),
(743,-15,o),
(973,32,o),
(973,206,cs),
(973,499,o),
(370,392,o),
(370,587,cs),
(370,656,o),
(466,686,o),
(531,686,cs),
(649,686,o),
(688,616,o),
(688,551,cs),
(688,499,o),
(660,446,o),
(614,446,c),
(614,425,l),
(742,411,o),
(920,441,o),
(920,547,cs),
(920,656,o),
(779,715,o),
(534,715,cs),
(284,715,o),
(145,634,o),
(145,520,cs),
(145,246,o)
);
}
);
width = 1010;
}
);
unicode = 56;
}
{
glyphname = nine;
layers = (
{
layerId = "1127FDDC-7967-4E0A-BDB2-81E1CCE90981";
shapes = (
{
closed = 1;
nodes = (
(74,308,o),
(276,185,o),
(553,185,cs),
(717,185,o),
(856,228,o),
(941,294,c),
(912,111,o),
(780,10,o),
(533,10,cs),
(356,10,o),
(167,79,o),
(97,230,c),
(88,230,l),
(113,63,l),
(227,10,o),
(383,-15,o),
(519,-15,cs),
(862,-15,o),
(1061,130,o),
(1061,381,cs),
(1061,623,o),
(794,715,o),
(538,715,cs),
(301,715,o),
(74,622,o),
(74,454,cs)
);
},
{
closed = 1;
nodes = (
(941,293,o),
(779,210,o),
(565,210,cs),
(351,210,o),
(189,312,o),
(189,454,cs),
(189,584,o),
(342,690,o),
(546,690,cs),
(722,690,o),
(941,587,o),
(941,433,cs)
);
}
);
width = 1128;
},
{
layerId = "B6803316-6B37-45A2-910F-F0CA711B465A";
shapes = (
{
closed = 1;
nodes = (
(63,285,o),
(148,184,o),
(278,184,cs),
(338,184,o),
(392,206,o),
(413,228,c),
(408,87,o),
(349,9,o),
(277,9,cs),
(212,9,o),
(140,66,o),
(97,188,c),
(87,188,l),
(105,51,l),
(164,5,o),
(228,-15,o),
(276,-15,cs),
(424,-15,o),
(502,117,o),
(502,386,cs),
(502,595,o),
(432,714,o),
(284,714,cs),
(143,714,o),
(63,609,o),
(63,449,cs)
);
},
{
closed = 1;
nodes = (
(406,273,o),
(348,209,o),
(276,209,cs),
(224,209,o),
(158,283,o),
(158,447,cs),
(158,619,o),
(217,689,o),
(277,689,cs),
(341,689,o),
(406,608,o),
(406,426,cs)
);
}
);
width = 568;
},
{
associatedMasterId = "1127FDDC-7967-4E0A-BDB2-81E1CCE90981";
layerId = "4C851EA1-D53C-422E-A011-98F89886665B";
name = "Feb 22 19, 18:46";
shapes = (
{
closed = 1;
nodes = (
(502,690,l),
(506,690,o),
(510,690,o),
(514,690,cs),
(772,690,o),
(932,550,o),
(932,355,cs),
(932,134,o),
(727,10,o),
(509,10,cs),
(322,10,o),
(123,79,o),
(53,230,c),
(44,230,l),
(69,63,l),
(183,10,o),
(349,-15,o),
(495,-15,cs),
(784,-15,o),
(1047,122,o),
(1047,355,cs),
(1047,557,o),
(805,715,o),
(514,715,cs),
(510,715,o),
(506,715,o),
(502,715,c)
);
},
{
closed = 1;
nodes = (
(572,714,l),
(561,715,o),
(550,715,o),
(539,715,cs),
(262,715,o),
(60,611,o),
(60,480,c),
(60,348,o),
(262,237,o),
(539,237,cs),
(758,237,o),
(1007,306,o),
(1007,494,c),
(904,491,l),
(904,330,o),
(735,260,o),
(551,260,cs),
(337,260,o),
(175,352,o),
(175,480,cs),
(175,601,o),
(337,692,o),
(551,692,cs),
(558,692,o),
(565,692,o),
(572,692,c)
);
}
);
width = 1092;
},
{
layerId = "52EA2D2A-A4E3-47AA-B963-53B6A9E26FA1";
shapes = (
{
closed = 1;
nodes = (
(41,257,o),
(159,165,o),
(294,165,cs),
(346,165,o),
(391,179,o),
(365,177,c),
(357,79,o),
(329,21,o),
(275,21,cs),
(201,21,o),
(130,77,o),
(99,203,c),
(59,203,l),
(92,37,l),
(144,1,o),
(219,-15,o),
(278,-15,cs),
(467,-15,o),
(559,121,o),
(559,395,cs),
(559,606,o),
(439,715,o),
(297,715,cs),
(170,715,o),
(41,631,o),
(41,446,cs)
);
},
{
closed = 1;
nodes = (
(363,274,o),
(347,200,o),
(301,200,cs),
(254,200,o),
(236,281,o),
(236,446,cs),
(236,615,o),
(252,680,o),
(298,680,cs),
(345,680,o),
(363,608,o),
(363,426,cs)
);
}
);
width = 598;
},
{
layerId = "92782D03-6C32-4A0E-AEF4-B0D65DFAA275";
shapes = (
{
closed = 1;
nodes = (
(52,279,o),
(245,186,o),
(514,186,cs),
(631,186,o),
(735,209,o),
(763,231,c),
(747,87,o),
(654,21,o),
(502,21,cs),
(357,21,o),
(182,94,o),
(97,231,c),
(67,231,l),
(94,64,l),
(218,11,o),
(368,-15,o),
(502,-15,cs),
(813,-15,o),
(1044,112,o),
(1044,408,cs),
(1044,644,o),
(765,716,o),
(505,716,cs),
(243,716,o),
(52,631,o),
(52,455,cs)
);
},
{
closed = 1;
nodes = (
(758,299,o),
(654,222,o),
(548,222,cs),
(443,222,o),
(337,299,o),
(337,455,cs),
(337,605,o),
(443,681,o),
(548,681,cs),
(654,681,o),
(758,605,o),
(758,455,cs)
);
}
);
width = 1088;
},
{
layerId = "C70D92E6-6044-4AAB-ADF3-B84826DC9CB7";
shapes = (
{
closed = 1;
nodes = (
(78,278,o),
(289,184,o),
(558,184,cs),
(763,184,o),
(952,227,o),
(1013,328,c),
(993,101,o),
(826,0,o),
(561,0,cs),
(326,0,o),
(156,50,o),
(105,230,c),
(95,230,l),
(122,63,l),
(245,11,o),
(411,-15,o),
(553,-15,cs),
(853,-15,o),
(1064,95,o),
(1064,365,cs),
(1064,605,o),
(850,715,o),
(561,715,cs),
(328,715,o),
(78,628,o),
(78,454,cs)
);
},
{
closed = 1;
nodes = (
(1010,284,o),
(861,199,o),
(567,199,cs),
(292,199,o),
(128,305,o),
(128,449,cs),
(128,595,o),
(289,700,o),
(564,700,cs),
(872,700,o),
(1002,545,o),
(1005,441,cs)
);
}
);
width = 1138;
},
{
associatedMasterId = "ECEC25EE-2268-427F-924A-A8A033D1E43A";
layerId = "8477AB5C-64D9-49D1-BC9E-1DC6926C2C75";
name = "May 19 19, 14:49";
shapes = (
{
closed = 1;
nodes = (
(438,-15,o),
(478,128,o),
(478,394,cs),
(478,621,o),
(410,715,o),
(268,715,cs),
(138,715,o),
(60,611,o),
(60,470,cs),
(60,323,o),
(136,233,o),
(259,233,cs),
(341,233,o),
(410,270,o),
(439,332,c),
(438,115,o),
(396,0,o),
(249,0,cs),
(169,0,o),
(121,57,o),
(82,206,c),
(72,206,l),
(95,40,l),
(147,6,o),
(192,-15,o),
(247,-15,cs)
);
},
{
closed = 1;
nodes = (
(155,248,o),
(105,355,o),
(105,466,cs),
(105,581,o),
(160,700,o),
(265,700,cs),
(374,700,o),
(432,586,o),
(432,473,cs),
(432,360,o),
(375,248,o),
(259,248,cs)
);
}
);
width = 538;
},
{
background = {
shapes = (
{
closed = 1;
nodes = (
(58,290,o),
(142,186,o),
(271,185,cs),
(338,184,o),
(409,206,o),
(448,274,c),
(431,88,o),
(352,-1,o),
(273,0,cs),
(202,1,o),
(135,47,o),
(91,219,c),
(81,219,l),
(107,52,l),
(126,20,o),
(203,-14,o),
(266,-15,cs),
(393,-16,o),
(496,84,o),
(499,378,cs),
(501,591,o),
(431,714,o),
(282,715,cs),
(142,716,o),
(61,614,o),
(60,456,cs)
);
},
{
closed = 1;
nodes = (
(453,254,o),
(345,199,o),
(271,200,cs),
(183,201,o),
(103,284,o),
(105,456,cs),
(106,593,o),
(148,701,o),
(276,700,cs),
(420,699,o),
(455,519,o),
(454,419,cs)
);
}
);
};
layerId = "ECEC25EE-2268-427F-924A-A8A033D1E43A";
shapes = (
{
closed = 1;
nodes = (
(58,290,o),
(142,186,o),
(271,185,cs),
(338,184,o),
(409,206,o),
(448,274,c),
(435,98,o),
(369,-1,o),
(275,0,cs),
(212,1,o),
(135,47,o),
(91,219,c),
(81,219,l),
(107,52,l),
(126,20,o),
(213,-14,o),
(276,-15,cs),
(403,-16,o),
(496,84,o),
(499,378,cs),
(501,591,o),
(431,714,o),
(282,715,cs),
(142,716,o),
(61,614,o),
(60,456,cs)
);
},
{
closed = 1;
nodes = (
(453,254,o),
(345,199,o),
(271,200,cs),
(183,201,o),
(103,284,o),
(105,456,cs),
(106,593,o),
(148,701,o),
(276,700,cs),
(420,699,o),
(455,519,o),
(454,419,cs)
);
}
);
width = 559;
},
{
associatedMasterId = "B6803316-6B37-45A2-910F-F0CA711B465A";
layerId = "C0E6D98F-181F-4346-B2AF-C184C406D5AF";
name = "May 19 19, 15:01";
shapes = (
{
closed = 1;
nodes = (
(396,-13,o),
(468,124,o),
(468,394,cs),
(468,621,o),
(400,715,o),
(258,715,cs),
(128,715,o),
(50,611,o),
(50,470,cs),
(50,323,o),
(126,233,o),
(249,233,cs),
(287,233,o),
(332,248,o),
(361,290,c),
(360,110,o),
(331,9,o),
(241,9,cs),
(163,9,o),
(105,69,o),
(72,196,c),
(62,196,l),
(85,30,l),
(138,-2,o),
(163,-16,o),
(243,-15,cs)
);
},
{
closed = 1;
nodes = (
(178,258,o),
(146,353,o),
(146,470,cs),
(146,616,o),
(201,690,o),
(255,690,cs),
(309,690,o),
(362,618,o),
(362,472,cs),
(362,307,o),
(295,258,o),
(249,258,cs)
);
}
);
width = 518;
},
{
associatedMasterId = "52EA2D2A-A4E3-47AA-B963-53B6A9E26FA1";
layerId = "A67062D4-3C12-4CF4-8758-3ACFF4922ABD";
name = "May 19 19, 15:05";
shapes = (
{
closed = 1;
nodes = (
(462,-16,o),
(543,139,o),
(543,394,cs),
(543,621,o),
(454,715,o),
(302,715,cs),
(162,715,o),
(65,631,o),
(65,470,cs),
(65,293,o),
(201,233,o),
(303,233,cs),
(353,233,o),
(396,251,o),
(412,279,c),
(412,111,o),
(349,18,o),
(277,18,cs),
(221,18,o),
(148,71,o),
(117,196,c),
(77,196,l),
(100,30,l),
(166,-1,o),
(226,-16,o),
(279,-16,cs)
);
},
{
closed = 1;
nodes = (
(265,269,o),
(261,340,o),
(261,470,cs),
(261,610,o),
(265,680,o),
(299,680,cs),
(333,680,o),
(344,611,o),
(344,472,cs),
(344,333,o),
(334,269,o),
(300,269,cs)
);
}
);
width = 600;
},
{
associatedMasterId = "C70D92E6-6044-4AAB-ADF3-B84826DC9CB7";
layerId = "DD871747-3E75-4E56-9A45-C2EADAF9E5AC";
name = "May 19 19, 15:14";
shapes = (
{
closed = 1;
nodes = (
(864,-16,o),
(1042,96,o),
(1042,352,cs),
(1042,658,o),
(825,715,o),
(565,715,cs),
(286,715,o),
(86,619,o),
(86,480,cs),
(86,348,o),
(288,237,o),
(535,237,cs),
(710,237,o),
(920,285,o),
(994,376,c),
(994,82,o),
(825,-1,o),
(538,-1,cs),
(291,-1,o),
(152,54,o),
(79,238,c),
(70,238,l),
(95,71,l),
(231,14,o),
(385,-16,o),
(537,-16,cs)
);
},
{
closed = 1;
nodes = (
(363,252,o),
(136,352,o),
(136,480,cs),
(136,619,o),
(378,700,o),
(558,700,cs),
(777,700,o),
(977,624,o),
(977,480,cs),
(977,338,o),
(760,252,o),
(548,252,cs)
);
}
);
width = 1112;
},
{
associatedMasterId = "92782D03-6C32-4A0E-AEF4-B0D65DFAA275";
layerId = "9C7E54B1-2DA0-4F3C-87AF-F85EE1D9C896";
name = "May 19 19, 15:24";
shapes = (
{
closed = 1;
nodes = (
(830,-15,o),
(1037,97,o),
(1037,342,cs),
(1037,640,o),
(779,715,o),
(539,715,cs),
(260,715,o),
(60,629,o),
(60,459,cs),
(60,290,o),
(324,235,o),
(559,235,cs),
(676,235,o),
(783,264,o),
(856,309,c),
(859,129,o),
(733,20,o),
(492,20,cs),
(333,20,o),
(193,89,o),
(94,230,c),
(64,230,l),
(89,63,l),
(220,12,o),
(354,-15,o),
(490,-15,cs)
);
},
{
closed = 1;
nodes = (
(451,271,o),
(345,340,o),
(345,480,cs),
(345,614,o),
(446,680,o),
(548,680,cs),
(654,680,o),
(763,609,o),
(763,470,cs),
(763,338,o),
(660,271,o),
(556,271,cs)
);
}
);
width = 1081;
}
);
unicode = 57;
}
{
glyphname = colon;
layers = (
{
layerId = "B6803316-6B37-45A2-910F-F0CA711B465A";
shapes = (
{
pos = (-11,0);
ref = period;
},
{
pos = (-11,353);
ref = period;
}
);
width = 296;
},
{
layerId = "1127FDDC-7967-4E0A-BDB2-81E1CCE90981";
shapes = (
{
pos = (-12,0);
ref = period;
},
{
pos = (-12,353);
ref = period;
}
);
width = 367;
},
{
layerId = "52EA2D2A-A4E3-47AA-B963-53B6A9E26FA1";
shapes = (
{
pos = (-7,0);
ref = period;
},
{
pos = (-7,282);
ref = period;
}
);
width = 304;
},
{
layerId = "ECEC25EE-2268-427F-924A-A8A033D1E43A";
shapes = (
{
pos = (20,0);
ref = period;
},
{
pos = (20,370);
ref = period;
}
);
width = 254;
},
{
layerId = "92782D03-6C32-4A0E-AEF4-B0D65DFAA275";
shapes = (
{
pos = (-8,0);
ref = period;
},
{
pos = (-8,303);
ref = period;
}
);
width = 379;
},
{
layerId = "C70D92E6-6044-4AAB-ADF3-B84826DC9CB7";
shapes = (
{
pos = (-7,0);
ref = period;
},
{
pos = (-7,383);
ref = period;
}
);
width = 316;
},
{
associatedMasterId = "B6803316-6B37-45A2-910F-F0CA711B465A";
layerId = "E0D510AD-907D-453E-AEFB-17F6F3132C69";
name = "May 1 19, 19:45";
shapes = (
{
closed = 1;
nodes = (
(143,335,o),
(170,362,o),
(170,395,cs),
(170,428,o),
(143,455,o),
(110,455,cs),
(77,455,o),
(50,428,o),
(50,395,cs),
(50,362,o),
(77,335,o),
(110,335,cs)
);
},
{
closed = 1;
nodes = (
(143,-15,o),
(170,12,o),
(170,45,cs),
(170,78,o),
(143,105,o),
(110,105,cs),
(77,105,o),
(50,78,o),
(50,45,cs),
(50,12,o),
(77,-15,o),
(110,-15,cs)
);
}
);
visible = 1;
width = 180;
}
);
unicode = 58;
}
{
glyphname = less;
layers = (
{
layerId = "B6803316-6B37-45A2-910F-F0CA711B465A";
shapes = (
{
closed = 1;
nodes = (
(536,24,l),
(134,267,l),
(536,511,l),
(536,546,l),
(107,286,l),
(107,248,l),
(536,-11,l)
);
}
);
width = 647;
},
{
layerId = "1127FDDC-7967-4E0A-BDB2-81E1CCE90981";
shapes = (
{
closed = 1;
nodes = (
(934,24,l),
(132,267,l),
(934,512,l),
(934,543,l),
(105,290,l),
(105,244,l),
(934,-7,l)
);
}
);
width = 990;
},
{
layerId = "52EA2D2A-A4E3-47AA-B963-53B6A9E26FA1";
shapes = (
{
closed = 1;
nodes = (
(520,34,l),
(118,267,l),
(520,501,l),
(520,547,l),
(91,297,l),
(91,237,l),
(520,-12,l)
);
}
);
width = 620;
},
{
layerId = "ECEC25EE-2268-427F-924A-A8A033D1E43A";
shapes = (
{
closed = 1;
nodes = (
(535,14,l),
(133,267,l),
(535,521,l),
(535,545,l),
(106,274,l),
(106,260,l),
(535,-10,l)
);
}
);
width = 642;
},
{
layerId = "92782D03-6C32-4A0E-AEF4-B0D65DFAA275";
shapes = (
{
closed = 1;
nodes = (
(919,34,l),
(117,267,l),
(919,502,l),
(919,544,l),
(90,301,l),
(90,233,l),
(919,-8,l)
);
}
);
width = 1004;
},
{
layerId = "C70D92E6-6044-4AAB-ADF3-B84826DC9CB7";
shapes = (
{
closed = 1;
nodes = (
(934,14,l),
(132,267,l),
(934,521,l),
(934,542,l),
(105,279,l),
(105,255,l),
(934,-7,l)
);
}
);
width = 1039;
}
);
unicode = 60;
}
{
glyphname = equal;
layers = (
{
layerId = "ECEC25EE-2268-427F-924A-A8A033D1E43A";
shapes = (
{
closed = 1;
nodes = (
(90,376,l),
(563,376,l),
(563,396,l),
(90,396,l)
);
},
{
closed = 1;
nodes = (
(90,116,l),
(563,116,l),
(563,136,l),
(90,136,l)
);
}
);
width = 653;
},
{
layerId = "B6803316-6B37-45A2-910F-F0CA711B465A";
shapes = (
{
closed = 1;
nodes = (
(90,371,l),
(563,371,l),
(563,401,l),
(90,401,l)
);
},
{
closed = 1;
nodes = (
(90,111,l),
(563,111,l),
(563,141,l),
(90,141,l)
);
}
);
width = 653;
},
{
layerId = "52EA2D2A-A4E3-47AA-B963-53B6A9E26FA1";
shapes = (
{
closed = 1;
nodes = (
(80,366,l),
(553,366,l),
(553,406,l),
(80,406,l)
);
},
{
closed = 1;
nodes = (
(80,106,l),
(553,106,l),
(553,146,l),
(80,146,l)
);
}
);
width = 633;
},
{
layerId = "C70D92E6-6044-4AAB-ADF3-B84826DC9CB7";
shapes = (
{
closed = 1;
nodes = (
(110,376,l),
(923,376,l),
(923,396,l),
(110,396,l)
);
},
{
closed = 1;
nodes = (
(110,116,l),
(923,116,l),
(923,136,l),
(110,136,l)
);
}
);
width = 1033;
},
{
layerId = "1127FDDC-7967-4E0A-BDB2-81E1CCE90981";
shapes = (
{
closed = 1;
nodes = (
(110,371,l),
(923,371,l),
(923,401,l),
(110,401,l)
);
},
{
closed = 1;
nodes = (
(110,111,l),
(923,111,l),
(923,141,l),
(110,141,l)
);
}
);
width = 1033;
},
{
layerId = "92782D03-6C32-4A0E-AEF4-B0D65DFAA275";
shapes = (
{
closed = 1;
nodes = (
(80,366,l),
(893,366,l),
(893,406,l),
(80,406,l)
);
},
{
closed = 1;
nodes = (
(80,106,l),
(893,106,l),
(893,146,l),
(80,146,l)
);
}
);
width = 973;
}
);
unicode = 61;
}
{
glyphname = greater;
layers = (
{
layerId = "B6803316-6B37-45A2-910F-F0CA711B465A";
shapes = (
{
closed = 1;
nodes = (
(111,511,l),
(513,267,l),
(111,24,l),
(111,-11,l),
(540,248,l),
(540,286,l),
(111,546,l)
);
}
);
width = 648;
},
{
layerId = "1127FDDC-7967-4E0A-BDB2-81E1CCE90981";
shapes = (
{
closed = 1;
nodes = (
(105,512,l),
(907,267,l),
(105,24,l),
(105,-7,l),
(934,244,l),
(934,290,l),
(105,543,l)
);
}
);
width = 1040;
},
{
layerId = "52EA2D2A-A4E3-47AA-B963-53B6A9E26FA1";
shapes = (
{
closed = 1;
nodes = (
(91,501,l),
(493,267,l),
(91,34,l),
(91,-12,l),
(520,237,l),
(520,297,l),
(91,547,l)
);
}
);
width = 620;
},
{
layerId = "ECEC25EE-2268-427F-924A-A8A033D1E43A";
shapes = (
{
closed = 1;
nodes = (
(105,521,l),
(507,267,l),
(105,14,l),
(105,-10,l),
(534,260,l),
(534,274,l),
(105,545,l)
);
}
);
width = 640;
},
{
layerId = "92782D03-6C32-4A0E-AEF4-B0D65DFAA275";
shapes = (
{
closed = 1;
nodes = (
(85,502,l),
(887,267,l),
(85,34,l),
(85,-8,l),
(914,233,l),
(914,301,l),
(85,544,l)
);
}
);
width = 1004;
},
{
layerId = "C70D92E6-6044-4AAB-ADF3-B84826DC9CB7";
shapes = (
{
closed = 1;
nodes = (
(105,521,l),
(907,267,l),
(105,14,l),
(105,-7,l),
(934,255,l),
(934,279,l),
(105,542,l)
);
}
);
width = 1039;
}
);
unicode = 62;
}
{
glyphname = question;
layers = (
{
layerId = "B6803316-6B37-45A2-910F-F0CA711B465A";
shapes = (
{
closed = 1;
nodes = (
(293,186,o),
(337,215,o),
(337,278,c),
(312,278,l),
(311,236,o),
(284,213,o),
(260,213,cs),
(238,213,o),
(218,231,o),
(218,269,cs),
(218,365,o),
(468,384,o),
(468,557,cs),
(468,658,o),
(380,714,o),
(267,714,cs),
(198,714,o),
(123,696,o),
(71,637,c),
(50,470,l),
(60,470,l),
(104,608,o),
(188,689,o),
(263,689,cs),
(322,689,o),
(368,639,o),
(368,557,cs),
(368,387,o),
(165,413,o),
(165,265,cs),
(165,214,o),
(207,186,o),
(250,186,cs)
);
},
{
closed = 1;
nodes = (
(280,-14,o),
(307,9,o),
(307,44,cs),
(307,79,o),
(280,101,o),
(250,101,cs),
(220,101,o),
(193,79,o),
(193,44,cs),
(193,9,o),
(220,-14,o),
(250,-14,cs)
);
}
);
width = 516;
},
{
layerId = "1127FDDC-7967-4E0A-BDB2-81E1CCE90981";
shapes = (
{
closed = 1;
nodes = (
(637,191,o),
(707,218,o),
(707,278,c),
(682,278,l),
(677,229,o),
(610,216,o),
(545,216,cs),
(501,216,o),
(440,232,o),
(440,266,cs),
(440,371,o),
(987,331,o),
(987,529,cs),
(987,658,o),
(715,715,o),
(536,715,cs),
(386,715,o),
(226,690,o),
(101,637,c),
(74,470,l),
(84,470,l),
(159,620,o),
(354,690,o),
(547,690,cs),
(699,690,o),
(872,631,o),
(872,529,cs),
(872,367,o),
(368,407,o),
(368,266,cs),
(368,210,o),
(447,191,o),
(545,191,cs)
);
},
{
closed = 1;
nodes = (
(593,-15,o),
(620,10,o),
(620,45,cs),
(620,80,o),
(593,105,o),
(545,105,cs),
(497,105,o),
(470,80,o),
(470,45,cs),
(470,10,o),
(497,-15,o),
(545,-15,cs)
);
}
);
width = 1056;
},
{
layerId = "52EA2D2A-A4E3-47AA-B963-53B6A9E26FA1";
shapes = (
{
closed = 1;
nodes = (
(345,156,o),
(383,206,o),
(383,278,c),
(348,278,l),
(347,233,o),
(320,213,o),
(296,213,cs),
(274,213,o),
(245,231,o),
(245,262,cs),
(245,361,o),
(544,344,o),
(544,545,cs),
(544,669,o),
(420,714,o),
(288,714,cs),
(191,714,o),
(84,684,o),
(47,637,c),
(26,470,l),
(66,470,l),
(107,596,o),
(182,677,o),
(253,677,cs),
(294,677,o),
(324,641,o),
(324,557,cs),
(324,379,o),
(141,428,o),
(141,265,cs),
(141,199,o),
(190,156,o),
(268,156,cs)
);
},
{
closed = 1;
nodes = (
(300,-15,o),
(333,13,o),
(333,55,cs),
(333,97,o),
(300,124,o),
(264,124,cs),
(226,124,o),
(195,96,o),
(195,55,cs),
(195,13,o),
(228,-15,o),
(264,-15,cs)
);
}
);
width = 569;
},
{
layerId = "ECEC25EE-2268-427F-924A-A8A033D1E43A";
shapes = (
{
closed = 1;
nodes = (
(329,178,o),
(357,205,o),
(358,265,c),
(343,265,l),
(342,212,o),
(318,193,o),
(293,193,cs),
(266,193,o),
(239,219,o),
(239,264,cs),
(239,378,o),
(492,384,o),
(492,557,cs),
(492,658,o),
(401,714,o),
(288,714,cs),
(219,714,o),
(144,696,o),
(92,637,c),
(71,470,l),
(81,470,l),
(105,648,o),
(209,699,o),
(284,699,cs),
(375,699,o),
(447,641,o),
(447,557,cs),
(447,387,o),
(206,413,o),
(206,265,cs),
(206,209,o),
(247,178,o),
(286,178,cs)
);
},
{
closed = 1;
nodes = (
(299,-9,o),
(315,4,o),
(315,24,cs),
(315,44,o),
(299,57,o),
(282,57,cs),
(265,57,o),
(249,43,o),
(249,24,cs),
(249,4,o),
(265,-9,o),
(282,-9,cs)
);
}
);
width = 558;
},
{
layerId = "92782D03-6C32-4A0E-AEF4-B0D65DFAA275";
shapes = (
{
closed = 1;
nodes = (
(593,229,o),
(678,258,o),
(678,325,c),
(643,325,l),
(643,284,o),
(580,264,o),
(518,264,cs),
(459,264,o),
(401,282,o),
(401,310,cs),
(401,398,o),
(968,357,o),
(968,557,cs),
(968,687,o),
(714,715,o),
(495,715,cs),
(355,715,o),
(195,694,o),
(70,649,c),
(43,507,l),
(73,507,l),
(162,634,o),
(333,680,o),
(506,680,cs),
(628,680,o),
(691,634,o),
(691,578,cs),
(691,468,o),
(239,511,o),
(239,346,cs),
(239,268,o),
(364,229,o),
(506,229,cs)
);
},
{
closed = 1;
nodes = (
(562,-15,o),
(607,15,o),
(607,74,cs),
(607,134,o),
(562,165,o),
(497,165,cs),
(431,165,o),
(384,134,o),
(384,74,cs),
(384,15,o),
(431,-15,o),
(496,-15,cs)
);
}
);
width = 1009;
},
{
layerId = "C70D92E6-6044-4AAB-ADF3-B84826DC9CB7";
shapes = (
{
closed = 1;
nodes = (
(635,161,o),
(700,193,o),
(700,248,c),
(685,248,l),
(680,189,o),
(605,176,o),
(538,176,cs),
(494,176,o),
(391,197,o),
(391,239,cs),
(391,357,o),
(990,329,o),
(990,529,cs),
(990,678,o),
(718,715,o),
(539,715,cs),
(389,715,o),
(229,690,o),
(114,637,c),
(77,470,l),
(87,470,l),
(148,650,o),
(287,700,o),
(550,700,cs),
(712,700,o),
(945,651,o),
(945,529,cs),
(945,365,o),
(361,377,o),
(361,239,cs),
(361,190,o),
(440,161,o),
(538,161,cs)
);
},
{
closed = 1;
nodes = (
(555,-16,o),
(571,-6,o),
(571,14,cs),
(571,33,o),
(555,42,o),
(538,42,cs),
(522,42,o),
(505,33,o),
(505,14,cs),
(505,-6,o),
(522,-16,o),
(538,-16,cs)
);
}
);
width = 1065;
},
{
associatedMasterId = "52EA2D2A-A4E3-47AA-B963-53B6A9E26FA1";
layerId = "8170BF6F-5A4D-4733-97D9-E4C41DA90799";
name = "Apr 28 19, 18:31";
shapes = (
{
closed = 1;
nodes = (
(329,156,o),
(367,206,o),
(367,278,c),
(332,278,l),
(331,233,o),
(304,213,o),
(280,213,cs),
(258,213,o),
(238,231,o),
(238,269,cs),
(238,365,o),
(538,374,o),
(538,557,cs),
(538,669,o),
(414,714,o),
(287,714,cs),
(185,714,o),
(78,684,o),
(41,637,c),
(20,470,l),
(60,470,l),
(101,596,o),
(186,677,o),
(247,677,cs),
(288,677,o),
(318,641,o),
(318,557,cs),
(318,387,o),
(125,413,o),
(125,265,cs),
(125,199,o),
(174,156,o),
(252,156,cs)
);
},
{
closed = 1;
nodes = (
(280,-14,o),
(307,9,o),
(307,44,cs),
(307,79,o),
(280,101,o),
(250,101,cs),
(220,101,o),
(193,79,o),
(193,44,cs),
(193,9,o),
(220,-14,o),
(250,-14,cs)
);
}
);
width = 600;
}
);
unicode = 63;
}
{
glyphname = at;
layers = (
{
layerId = "B6803316-6B37-45A2-910F-F0CA711B465A";
shapes = (
{
closed = 1;
nodes = (
(482,-105,o),
(544,-91,o),
(584,-68,c),
(572,-46,l),
(536,-68,o),
(490,-80,o),
(433,-80,cs),
(241,-80,o),
(152,50,o),
(152,255,cs),
(152,469,o),
(241,600,o),
(433,600,cs),
(623,600,o),
(713,469,o),
(713,255,cs),
(713,178,o),
(700,5,o),
(645,5,cs),
(614,5,o),
(606,48,o),
(606,87,cs),
(606,296,ls),
(606,445,o),
(551,515,o),
(433,515,cs),
(377,515,o),
(331,494,o),
(283,469,c),
(255,303,l),
(265,303,l),
(303,425,o),
(353,489,o),
(422,489,cs),
(487,489,o),
(516,455,o),
(519,392,c),
(334,362,o),
(245,230,o),
(245,134,cs),
(245,25,o),
(337,-16,o),
(413,-16,cs),
(458,-16,o),
(495,5,o),
(518,52,c),
(527,9,o),
(578,-16,o),
(630,-16,cs),
(736,-16,o),
(788,82,o),
(788,255,cs),
(788,456,o),
(683,625,o),
(433,625,cs),
(184,625,o),
(77,456,o),
(77,255,cs),
(77,53,o),
(184,-105,o),
(433,-105,cs)
);
},
{
closed = 1;
nodes = (
(388,10,o),
(341,54,o),
(341,149,cs),
(341,256,o),
(387,346,o),
(520,367,c),
(520,354,o),
(520,342,o),
(520,329,c),
(520,174,ls),
(520,65,o),
(463,10,o),
(423,10,cs)
);
}
);
width = 866;
},
{
layerId = "1127FDDC-7967-4E0A-BDB2-81E1CCE90981";
shapes = (
{
closed = 1;
nodes = (
(696,-103,o),
(780,-89,o),
(857,-59,c),
(846,-36,l),
(778,-64,o),
(696,-78,o),
(607,-78,cs),
(329,-78,o),
(184,55,o),
(184,250,cs),
(184,454,o),
(397,595,o),
(675,595,cs),
(948,595,o),
(1173,464,o),
(1173,208,cs),
(1173,49,o),
(1108,11,o),
(1077,11,cs),
(1046,11,o),
(1025,30,o),
(1025,134,cs),
(1025,296,ls),
(1025,481,o),
(852,515,o),
(678,515,cs),
(549,515,o),
(433,487,o),
(371,458,c),
(327,282,l),
(337,282,l),
(391,419,o),
(508,490,o),
(681,490,cs),
(771,490,o),
(858,460,o),
(900,392,c),
(437,362,o),
(307,230,o),
(307,134,cs),
(307,30,o),
(416,-16,o),
(563,-16,cs),
(689,-16,o),
(841,14,o),
(926,102,c),
(939,1,o),
(1000,-15,o),
(1074,-15,cs),
(1160,-15,o),
(1268,70,o),
(1268,217,cs),
(1268,486,o),
(990,620,o),
(675,620,cs),
(358,620,o),
(89,451,o),
(89,250,cs),
(89,48,o),
(290,-103,o),
(607,-103,cs)
);
},
{
closed = 1;
nodes = (
(494,10,o),
(427,53,o),
(427,141,cs),
(427,256,o),
(516,345,o),
(912,368,c),
(920,347,o),
(925,323,o),
(925,296,cs),
(925,218,ls),
(925,74,o),
(709,10,o),
(606,10,cs)
);
}
);
width = 1361;
},
{
associatedMasterId = "B6803316-6B37-45A2-910F-F0CA711B465A";
layerId = "D270A9CD-8B9B-4B15-9DD0-5A0BBC7C4529";
name = "Mar 5 19, 17:15";
shapes = (
{
closed = 1;
nodes = (
(253,-16,o),
(290,5,o),
(313,52,c),
(322,9,o),
(369,-16,o),
(392,-16,cs),
(429,-16,o),
(456,10,o),
(476,71,c),
(463,87,l),
(445,42,o),
(432,20,o),
(418,20,cs),
(399,20,o),
(401,68,o),
(401,87,cs),
(401,296,ls),
(401,445,o),
(346,515,o),
(228,515,cs),
(172,515,o),
(126,494,o),
(78,469,c),
(50,303,l),
(60,303,l),
(98,425,o),
(148,489,o),
(217,489,cs),
(282,489,o),
(297,455,o),
(300,392,c),
(115,362,o),
(40,230,o),
(40,134,cs),
(40,25,o),
(132,-16,o),
(208,-16,cs)
);
},
{
closed = 1;
nodes = (
(183,10,o),
(150,54,o),
(150,149,cs),
(150,256,o),
(168,346,o),
(301,367,c),
(301,354,o),
(301,342,o),
(301,329,cs),
(301,174,ls),
(303,65,o),
(258,10,o),
(218,10,cs)
);
},
{
closed = 1;
nodes = (
(478,-105,o),
(593,53,o),
(593,255,cs),
(593,456,o),
(478,625,o),
(228,625,cs),
(-21,625,o),
(-138,456,o),
(-138,255,cs),
(-138,53,o),
(-21,-105,o),
(228,-105,cs)
);
},
{
closed = 1;
nodes = (
(36,-80,o),
(-23,50,o),
(-23,255,cs),
(-23,469,o),
(36,600,o),
(228,600,cs),
(418,600,o),
(478,469,o),
(478,255,cs),
(478,50,o),
(418,-80,o),
(228,-80,cs)
);
}
);
width = 600;
},
{
layerId = "52EA2D2A-A4E3-47AA-B963-53B6A9E26FA1";
shapes = (
{
closed = 1;
nodes = (
(639,-105,o),
(689,-94,o),
(729,-68,c),
(717,-36,l),
(681,-61,o),
(635,-70,o),
(578,-70,cs),
(306,-70,o),
(217,70,o),
(217,255,cs),
(217,469,o),
(306,590,o),
(578,590,cs),
(838,590,o),
(928,469,o),
(928,255,cs),
(928,70,o),
(898,22,o),
(870,22,cs),
(846,22,o),
(839,53,o),
(839,90,cs),
(839,321,ls),
(839,466,o),
(707,513,o),
(583,513,cs),
(518,513,o),
(414,498,o),
(346,469,c),
(316,293,l),
(351,293,l),
(402,432,o),
(501,477,o),
(555,477,cs),
(603,477,o),
(609,452,o),
(615,392,c),
(416,373,o),
(303,240,o),
(303,131,cs),
(303,23,o),
(403,-15,o),
(483,-15,cs),
(555,-15,o),
(603,2,o),
(628,41,c),
(648,3,o),
(735,-15,o),
(833,-15,cs),
(1000,-15,o),
(1093,81,o),
(1093,255,cs),
(1093,456,o),
(898,625,o),
(578,625,cs),
(249,625,o),
(52,456,o),
(52,255,cs),
(52,53,o),
(249,-105,o),
(578,-105,cs)
);
},
{
closed = 1;
nodes = (
(560,39,o),
(538,59,o),
(538,137,cs),
(538,218,o),
(556,348,o),
(617,365,c),
(619,345,o),
(619,322,o),
(619,296,cs),
(619,184,ls),
(619,77,o),
(593,39,o),
(575,39,cs)
);
}
);
width = 1145;
},
{
layerId = "ECEC25EE-2268-427F-924A-A8A033D1E43A";
shapes = (
{
closed = 1;
nodes = (
(399,-95,o),
(458,-83,o),
(498,-58,c),
(489,-46,l),
(453,-68,o),
(407,-80,o),
(350,-80,cs),
(164,-80,o),
(59,41,o),
(59,240,cs),
(59,466,o),
(148,610,o),
(350,610,cs),
(550,610,o),
(640,466,o),
(640,240,cs),
(640,61,o),
(589,0,o),
(557,0,cs),
(531,0,o),
(526,26,o),
(526,78,cs),
(526,342,ls),
(526,486,o),
(447,515,o),
(351,515,cs),
(287,515,o),
(238,486,o),
(203,469,c),
(177,313,l),
(187,313,l),
(242,465,o),
(271,500,o),
(367,500,cs),
(395,500,o),
(475,485,o),
(485,392,c),
(296,365,o),
(165,253,o),
(165,143,cs),
(165,42,o),
(253,-14,o),
(342,-14,cs),
(397,-14,o),
(453,8,o),
(487,55,c),
(491,8,o),
(508,-15,o),
(553,-15,cs),
(606,-15,o),
(675,55,o),
(675,240,cs),
(675,446,o),
(600,625,o),
(350,625,cs),
(101,625,o),
(24,446,o),
(24,240,cs),
(24,55,o),
(111,-95,o),
(350,-95,cs)
);
},
{
closed = 1;
nodes = (
(275,1,o),
(210,46,o),
(210,137,cs),
(210,292,o),
(355,354,o),
(486,377,c),
(486,362,o),
(486,346,o),
(486,331,c),
(486,144,ls),
(486,51,o),
(413,1,o),
(342,1,cs)
);
}
);
width = 698;
},
{
layerId = "92782D03-6C32-4A0E-AEF4-B0D65DFAA275";
shapes = (
{
closed = 1;
nodes = (
(782,-103,o),
(876,-89,o),
(963,-59,c),
(951,-26,l),
(874,-54,o),
(782,-68,o),
(681,-68,cs),
(367,-68,o),
(205,55,o),
(205,250,cs),
(205,454,o),
(444,585,o),
(757,585,cs),
(1066,585,o),
(1317,464,o),
(1317,208,cs),
(1317,149,o),
(1305,41,o),
(1249,41,cs),
(1222,41,o),
(1204,70,o),
(1204,134,cs),
(1204,308,ls),
(1204,483,o),
(984,515,o),
(740,515,cs),
(611,515,o),
(497,495,o),
(400,458,c),
(366,292,l),
(396,292,l),
(473,429,o),
(603,480,o),
(732,480,cs),
(825,480,o),
(893,457,o),
(915,377,c),
(408,336,o),
(330,227,o),
(330,121,cs),
(330,12,o),
(487,-15,o),
(638,-15,cs),
(775,-15,o),
(909,14,o),
(944,72,c),
(980,15,o),
(1062,-16,o),
(1174,-16,cs),
(1358,-16,o),
(1477,60,o),
(1477,217,cs),
(1477,486,o),
(1113,620,o),
(757,620,cs),
(399,620,o),
(45,471,o),
(45,250,cs),
(45,61,o),
(293,-103,o),
(681,-103,cs)
);
},
{
closed = 1;
nodes = (
(662,27,o),
(615,60,o),
(615,124,cs),
(615,279,o),
(727,328,o),
(921,343,c),
(923,329,o),
(924,313,o),
(924,296,cs),
(924,188,ls),
(924,80,o),
(824,27,o),
(726,27,cs)
);
}
);
width = 1522;
},
{
guides = (
{
pos = (1011,556);
}
);
layerId = "C70D92E6-6044-4AAB-ADF3-B84826DC9CB7";
shapes = (
{
closed = 1;
nodes = (
(764,-110,o),
(850,-96,o),
(927,-74,c),
(921,-59,l),
(853,-81,o),
(764,-95,o),
(675,-95,cs),
(397,-95,o),
(124,5,o),
(124,250,cs),
(124,464,o),
(397,605,o),
(675,605,cs),
(948,605,o),
(1223,472,o),
(1223,210,cs),
(1223,25,o),
(1164,-1,o),
(1122,-1,cs),
(1079,-1,o),
(1049,35,o),
(1049,119,cs),
(1049,296,ls),
(1049,490,o),
(876,515,o),
(682,515,cs),
(513,515,o),
(397,487,o),
(335,458,c),
(291,282,l),
(301,282,l),
(367,459,o),
(460,500,o),
(685,500,cs),
(817,500,o),
(948,472,o),
(987,392,c),
(470,361,o),
(271,261,o),
(271,148,cs),
(271,35,o),
(402,-15,o),
(593,-15,cs),
(784,-15,o),
(928,34,o),
(1009,118,c),
(1013,24,o),
(1044,-15,o),
(1125,-15,cs),
(1195,-15,o),
(1258,39,o),
(1258,208,cs),
(1258,467,o),
(990,620,o),
(675,620,cs),
(358,620,o),
(89,461,o),
(89,250,cs),
(89,-2,o),
(358,-110,o),
(675,-110,cs)
);
},
{
closed = 1;
nodes = (
(443,0,o),
(321,50,o),
(321,158,cs),
(321,268,o),
(546,351,o),
(995,378,c),
(1004,358,o),
(1009,336,o),
(1009,310,cs),
(1009,218,ls),
(1009,80,o),
(813,0,o),
(620,0,cs)
);
}
);
width = 1357;
},
{
associatedMasterId = "C70D92E6-6044-4AAB-ADF3-B84826DC9CB7";
guides = (
{
pos = (1258,800);
}
);
layerId = "FCB1A657-865E-402B-9DF5-8D643E4739ED";
name = "Aug 29 19, 16:33";
shapes = (
{
closed = 1;
nodes = (
(443,0,o),
(321,50,o),
(321,158,cs),
(321,268,o),
(546,351,o),
(995,378,c),
(1004,358,o),
(1009,336,o),
(1009,310,cs),
(1009,218,ls),
(1009,80,o),
(813,0,o),
(620,0,cs)
);
},
{
closed = 1;
nodes = (
(89,-2,o),
(358,-110,o),
(675,-110,cs),
(764,-110,o),
(850,-96,o),
(927,-74,c),
(921,-59,l),
(853,-81,o),
(764,-95,o),
(675,-95,cs),
(397,-95,o),
(134,5,o),
(134,250,cs),
(134,464,o),
(397,605,o),
(675,605,cs),
(948,605,o),
(1213,469,o),
(1213,243,cs),
(1213,62,o),
(1164,-1,o),
(1115,-1,cs),
(1079,-1,o),
(1049,35,o),
(1049,119,cs),
(1049,296,ls),
(1049,490,o),
(876,515,o),
(682,515,cs),
(513,515,o),
(397,487,o),
(335,458,c),
(291,282,l),
(301,282,l),
(367,459,o),
(460,500,o),
(685,500,cs),
(817,500,o),
(948,472,o),
(987,392,c),
(470,361,o),
(271,261,o),
(271,148,cs),
(271,35,o),
(402,-15,o),
(593,-15,cs),
(784,-15,o),
(928,34,o),
(1009,118,c),
(1013,24,o),
(1044,-15,o),
(1125,-15,cs),
(1195,-15,o),
(1258,49,o),
(1258,243,cs),
(1258,459,o),
(990,620,o),
(675,620,cs),
(358,620,o),
(89,461,o),
(89,250,cs)
);
}
);
width = 1357;
},
{
associatedMasterId = "1127FDDC-7967-4E0A-BDB2-81E1CCE90981";
layerId = "FA7CE79F-43D9-444B-803A-4AD66CE725DC";
name = "Aug 29 19, 16:38";
shapes = (
{
closed = 1;
nodes = (
(764,-110,o),
(850,-97,o),
(927,-74,c),
(914,-43,l),
(846,-71,o),
(764,-85,o),
(675,-85,cs),
(397,-85,o),
(204,55,o),
(204,250,cs),
(204,454,o),
(397,595,o),
(675,595,cs),
(948,595,o),
(1153,437,o),
(1153,181,cs),
(1153,81,o),
(1108,-19,o),
(1071,-19,cs),
(1046,-19,o),
(1025,27,o),
(1025,134,cs),
(1025,296,ls),
(1025,481,o),
(852,515,o),
(678,515,cs),
(549,515,o),
(433,487,o),
(371,458,c),
(327,282,l),
(337,282,l),
(391,419,o),
(508,490,o),
(681,490,cs),
(771,490,o),
(858,460,o),
(900,392,c),
(437,362,o),
(307,230,o),
(307,134,cs),
(307,30,o),
(416,-16,o),
(563,-16,cs),
(689,-16,o),
(841,14,o),
(926,102,c),
(939,1,o),
(1000,-45,o),
(1067,-45,cs),
(1160,-45,o),
(1268,43,o),
(1268,190,cs),
(1268,459,o),
(990,620,o),
(675,620,cs),
(358,620,o),
(89,451,o),
(89,250,cs),
(89,48,o),
(358,-110,o),
(675,-110,cs)
);
},
{
closed = 1;
nodes = (
(494,10,o),
(427,53,o),
(427,141,cs),
(427,256,o),
(516,345,o),
(912,368,c),
(920,347,o),
(925,323,o),
(925,296,cs),
(925,218,ls),
(925,74,o),
(709,10,o),
(606,10,cs)
);
}
);
width = 1361;
}
);
unicode = 64;
}
{
glyphname = A;
kernLeft = A;
kernRight = A;
layers = (
{
anchors = (
{
name = bottom;
pos = (318,0);
},
{
name = ogonek;
pos = (572,10);
},
{
name = top;
pos = (307,686);
}
);
layerId = "B6803316-6B37-45A2-910F-F0CA711B465A";
shapes = (
{
closed = 1;
nodes = (
(245,0,l),
(245,10,l),
(182,17,o),
(154,33,o),
(166,80,cs),
(186,157,l),
(369,157,l),
(391,84,ls),
(406,33,o),
(381,17,o),
(316,10,c),
(316,0,l),
(617,0,l),
(617,10,l),
(554,17,o),
(508,31,o),
(494,79,cs),
(309,715,l),
(304,715,l),
(139,82,ls),
(127,36,o),
(82,17,o),
(18,10,c),
(18,0,l)
);
},
{
closed = 1;
nodes = (
(273,489,l),
(362,182,l),
(193,182,l)
);
}
);
width = 635;
},
{
associatedMasterId = "B6803316-6B37-45A2-910F-F0CA711B465A";
layerId = "207B1338-1A9E-41C6-9A2A-66741B296B47";
name = "Feb 10 19, 17:59";
shapes = (
{
closed = 1;
nodes = (
(499,0,l),
(287,716,l),
(240,504,l),
(390,0,l)
);
},
{
closed = 1;
nodes = (
(367,157,l),
(367,182,l),
(152,182,l),
(152,157,l)
);
},
{
closed = 1;
nodes = (
(127,0,l),
(300,658,l),
(287,716,l),
(100,0,l)
);
},
{
closed = 1;
nodes = (
(127,0,l),
(227,0,l),
(227,10,l),
(162,17,o),
(136,34,o),
(149,84,c)
);
},
{
closed = 1;
nodes = (
(380,33,o),
(355,17,o),
(290,10,c),
(290,0,l),
(390,0,l),
(365,84,l)
);
},
{
closed = 1;
nodes = (
(499,0,l),
(599,0,l),
(599,10,l),
(534,17,o),
(489,33,o),
(474,84,c)
);
},
{
closed = 1;
nodes = (
(109,37,o),
(65,17,o),
(0,10,c),
(0,0,l),
(100,0,l),
(122,84,l)
);
}
);
width = 599;
},
{
anchors = (
{
name = bottom;
pos = (609,0);
},
{
name = ogonek;
pos = (1095,10);
},
{
name = top;
pos = (609,700);
}
);
layerId = "1127FDDC-7967-4E0A-BDB2-81E1CCE90981";
shapes = (
{
closed = 1;
nodes = (
(401,0,l),
(401,10,l),
(319,17,o),
(237,36,o),
(283,118,cs),
(332,200,l),
(801,200,l),
(852,117,ls),
(895,40,o),
(815,17,o),
(733,10,c),
(733,0,l),
(1199,0,l),
(1199,10,l),
(1116,17,o),
(1013,45,o),
(965,124,cs),
(610,715,l),
(605,715,l),
(249,118,ls),
(198,33,o),
(101,17,o),
(18,10,c),
(18,0,l)
);
},
{
closed = 1;
nodes = (
(566,592,l),
(786,225,l),
(347,225,l)
);
}
);
width = 1217;
},
{
associatedMasterId = "1127FDDC-7967-4E0A-BDB2-81E1CCE90981";
layerId = "BEAF720D-B44D-440D-A0F5-7A4B4E0C9663";
name = "Feb 10 19, 15:23";
shapes = (
{
closed = 1;
nodes = (
(1058,0,l),
(623,715,l),
(571,599,l),
(935,0,l)
);
},
{
closed = 1;
nodes = (
(190,0,l),
(264,122,l),
(211,35,o),
(84,17,o),
(0,10,c),
(0,0,l)
);
},
{
closed = 1;
nodes = (
(413,0,l),
(413,10,l),
(329,17,o),
(245,37,o),
(298,124,c),
(223,0,l)
);
},
{
closed = 1;
nodes = (
(223,0,l),
(632,675,l),
(623,715,l),
(190,0,l)
);
},
{
closed = 1;
nodes = (
(829,200,l),
(829,225,l),
(338,225,l),
(338,200,l)
);
},
{
closed = 1;
nodes = (
(935,0,l),
(861,122,l),
(910,41,o),
(829,17,o),
(745,10,c),
(745,0,l)
);
},
{
closed = 1;
nodes = (
(1247,0,l),
(1247,10,l),
(1163,17,o),
(1029,48,o),
(980,128,c),
(1058,0,l)
);
}
);
width = 1247;
},
{
associatedMasterId = "1127FDDC-7967-4E0A-BDB2-81E1CCE90981";
backgroundImage = {
imagePath = "../../Library/CloudStorage/GoogleDrive-collletttivo@gmail.com/Il mio Drive/Progetti/_Archivio/Squarespace/Final Handover/Sprat/SCANS/Image005.jpg";
locked = 1;
pos = (-1615,-4820);
scale = (6.909,6.909);
};
layerId = "4920576D-CC1E-42BD-A1E6-DD2F5C005B13";
name = "Feb 9 19, 16:29";
shapes = (
{
closed = 1;
nodes = (
(1058,0,l),
(623,715,l),
(571,599,l),
(935,0,l)
);
},
{
closed = 1;
nodes = (
(223,0,l),
(632,675,l),
(623,715,l),
(190,0,l)
);
},
{
closed = 1;
nodes = (
(338,200,l),
(829,200,l),
(829,225,l),
(338,225,l)
);
},
{
closed = 1;
nodes = (
(910,41,o),
(829,17,o),
(745,10,c),
(745,0,l),
(935,0,l),
(861,122,l)
);
},
{
closed = 1;
nodes = (
(1058,0,l),
(1247,0,l),
(1247,10,l),
(1163,17,o),
(1029,48,o),
(980,128,c)
);
},
{
closed = 1;
nodes = (
(211,35,o),
(84,17,o),
(0,10,c),
(0,0,l),
(190,0,l),
(264,122,l)
);
},
{
closed = 1;
nodes = (
(223,0,l),
(413,0,l),
(413,10,l),
(329,17,o),
(245,37,o),
(298,124,c)
);
}
);
width = 1247;
},
{
anchors = (
{
name = bottom;
pos = (331,0);
},
{
name = ogonek;
pos = (596,10);
},
{
name = top;
pos = (318,684);
}
);
layerId = "ECEC25EE-2268-427F-924A-A8A033D1E43A";
shapes = (
{
closed = 1;
nodes = (
(249,0,l),
(249,10,l),
(177,17,o),
(155,21,o),
(166,64,cs),
(193,167,l),
(434,167,l),
(466,62,ls),
(479,21,o),
(446,17,o),
(384,10,c),
(384,0,l),
(631,0,l),
(631,10,l),
(558,17,o),
(525,18,o),
(512,63,cs),
(321,725,l),
(316,725,l),
(148,63,ls),
(137,21,o),
(93,17,o),
(31,10,c),
(31,0,l)
);
},
{
closed = 1;
nodes = (
(306,613,l),
(430,182,l),
(197,182,l)
);
}
);
width = 662;
},
{
anchors = (
{
name = bottom;
pos = (320,0);
},
{
name = ogonek;
pos = (576,10);
},
{
name = top;
pos = (316,720);
}
);
layerId = "52EA2D2A-A4E3-47AA-B963-53B6A9E26FA1";
shapes = (
{
closed = 1;
nodes = (
(158,0,l),
(158,20,l),
(134,22,o),
(107,24,o),
(125,75,cs),
(147,137,l),
(295,137,l),
(316,77,ls),
(334,26,o),
(308,22,o),
(284,20,c),
(284,0,l),
(639,0,l),
(639,20,l),
(615,21,o),
(569,23,o),
(550,79,cs),
(322,745,l),
(312,745,l),
(87,73,ls),
(70,21,o),
(25,22,o),
(1,20,c),
(1,0,l)
);
},
{
closed = 1;
nodes = (
(220,347,l),
(282,172,l),
(160,172,l)
);
}
);
width = 640;
},
{
anchors = (
{
name = bottom;
pos = (603,0);
},
{
name = ogonek;
pos = (1085,10);
},
{
name = top;
pos = (603,730);
}
);
layerId = "C70D92E6-6044-4AAB-ADF3-B84826DC9CB7";
shapes = (
{
closed = 1;
nodes = (
(358,0,l),
(358,10,l),
(262,17,o),
(200,18,o),
(251,103,cs),
(315,210,l),
(857,210,l),
(924,99,ls),
(972,19,o),
(908,17,o),
(814,10,c),
(814,0,l),
(1187,0,l),
(1187,10,l),
(1094,17,o),
(1033,17,o),
(979,96,c),
(605,715,l),
(600,715,l),
(232,103,ls),
(180,17,o),
(115,17,o),
(19,10,c),
(19,0,l)
);
},
{
closed = 1;
nodes = (
(586,660,l),
(847,225,l),
(324,225,l)
);
}
);
width = 1206;
},
{
anchors = (
{
name = bottom;
pos = (617,0);
},
{
name = ogonek;
pos = (1110,10);
},
{
name = top;
pos = (617,670);
}
);
layerId = "92782D03-6C32-4A0E-AEF4-B0D65DFAA275";
shapes = (
{
closed = 1;
nodes = (
(362,0,l),
(362,24,l),
(280,28,o),
(229,24,o),
(286,114,cs),
(334,189,l),
(637,189,l),
(679,119,ls),
(736,24,o),
(687,31,o),
(604,24,c),
(604,0,l),
(1213,0,l),
(1213,24,l),
(1130,31,o),
(1069,20,o),
(1009,117,cs),
(638,715,l),
(628,715,l),
(249,122,ls),
(186,23,o),
(104,31,o),
(20,24,c),
(20,0,l)
);
},
{
closed = 1;
nodes = (
(485,429,l),
(615,224,l),
(357,224,l)
);
}
);
width = 1233;
},
{
associatedMasterId = "ECEC25EE-2268-427F-924A-A8A033D1E43A";
layerId = "6E277FCC-2194-437D-A9D2-5E56334D9C1E";
name = "Mar 26 19, 14:50";
shapes = (
{
closed = 1;
nodes = (
(500,0,l),
(288,716,l),
(270,616,l),
(453,0,l)
);
},
{
closed = 1;
nodes = (
(418,167,l),
(418,182,l),
(153,182,l),
(153,167,l)
);
},
{
closed = 1;
nodes = (
(118,0,l),
(291,658,l),
(288,716,l),
(101,0,l)
);
},
{
closed = 1;
nodes = (
(101,0,l),
(119,69,l),
(106,21,o),
(65,17,o),
(0,10,c),
(0,0,l)
);
},
{
closed = 1;
nodes = (
(218,0,l),
(218,10,l),
(143,17,o),
(124,21,o),
(136,69,c),
(118,0,l)
);
},
{
closed = 1;
nodes = (
(453,0,l),
(433,68,l),
(447,20,o),
(418,17,o),
(353,10,c),
(353,0,l)
);
},
{
closed = 1;
nodes = (
(600,0,l),
(600,10,l),
(525,17,o),
(495,19,o),
(480,67,c),
(500,0,l)
);
}
);
width = 600;
},
{
associatedMasterId = "52EA2D2A-A4E3-47AA-B963-53B6A9E26FA1";
layerId = "9773FB00-406F-44E7-A742-218BE6593DAA";
name = "Mar 26 19, 14:51";
shapes = (
{
closed = 1;
nodes = (
(579,0,l),
(317,716,l),
(209,372,l),
(343,0,l)
);
},
{
closed = 1;
nodes = (
(367,137,l),
(367,172,l),
(122,172,l),
(122,137,l)
);
},
{
closed = 1;
nodes = (
(97,0,l),
(334,658,l),
(317,716,l),
(60,0,l)
);
},
{
closed = 1;
nodes = (
(579,0,l),
(639,0,l),
(639,10,l),
(614,17,o),
(571,26,o),
(548,84,c)
);
},
{
closed = 1;
nodes = (
(97,0,l),
(157,0,l),
(157,10,l),
(132,17,o),
(106,24,o),
(126,81,c)
);
},
{
closed = 1;
nodes = (
(68,23,o),
(25,17,o),
(0,10,c),
(0,0,l),
(60,0,l),
(89,80,l)
);
},
{
closed = 1;
nodes = (
(333,26,o),
(308,17,o),
(283,10,c),
(283,0,l),
(343,0,l),
(313,84,l)
);
}
);
width = 639;
},
{
associatedMasterId = "C70D92E6-6044-4AAB-ADF3-B84826DC9CB7";
layerId = "CB1E6052-97A0-4F68-866C-30D5F3EC08A6";
name = "Mar 27 19, 14:03";
shapes = (
{
closed = 1;
nodes = (
(1038,0,l),
(603,715,l),
(585,659,l),
(985,0,l)
);
},
{
closed = 1;
nodes = (
(189,0,l),
(598,675,l),
(603,715,l),
(170,0,l)
);
},
{
closed = 1;
nodes = (
(889,210,l),
(889,225,l),
(318,225,l),
(318,210,l)
);
},
{
closed = 1;
nodes = (
(973,18,o),
(911,17,o),
(815,10,c),
(815,0,l),
(985,0,l),
(922,104,l)
);
},
{
closed = 1;
nodes = (
(179,18,o),
(96,17,o),
(0,10,c),
(0,0,l),
(170,0,l),
(233,104,l)
);
},
{
closed = 1;
nodes = (
(189,0,l),
(359,0,l),
(359,10,l),
(263,17,o),
(202,18,o),
(252,104,c)
);
},
{
closed = 1;
nodes = (
(1038,0,l),
(1208,0,l),
(1208,10,l),
(1112,17,o),
(1029,17,o),
(975,103,c)
);
}
);
width = 1208;
},
{
associatedMasterId = "92782D03-6C32-4A0E-AEF4-B0D65DFAA275";
layerId = "7EA9026A-0693-42D0-A483-BCA20D652A2F";
name = "Mar 27 19, 15:54";
shapes = (
{
closed = 1;
nodes = (
(314,189,l),
(887,189,l),
(887,224,l),
(314,224,l)
);
},
{
closed = 1;
nodes = (
(231,125,l),
(165,25,o),
(85,21,o),
(0,14,c),
(0,0,l),
(150,0,l)
);
},
{
closed = 1;
nodes = (
(1194,0,l),
(1194,14,l),
(1109,21,o),
(1051,24,o),
(985,124,c),
(1063,0,l)
);
},
{
closed = 1;
nodes = (
(342,0,l),
(342,14,l),
(257,18,o),
(208,23,o),
(272,124,c),
(192,0,l)
);
},
{
closed = 1;
nodes = (
(192,0,l),
(611,647,l),
(613,715,l),
(150,0,l)
);
},
{
closed = 1;
nodes = (
(654,124,l),
(716,24,o),
(667,21,o),
(582,14,c),
(582,0,l),
(732,0,l)
);
},
{
closed = 1;
nodes = (
(1063,0,l),
(613,715,l),
(458,435,l),
(732,0,l)
);
}
);
width = 1194;
}
);
unicode = 65;
}
{
glyphname = B;
kernLeft = H;
kernRight = B;
layers = (
{
anchors = (
{
name = bottom;
pos = (280,0);
},
{
name = center;
pos = (280,350);
},
{
name = top;
pos = (280,700);
}
);
layerId = "B6803316-6B37-45A2-910F-F0CA711B465A";
shapes = (
{
closed = 1;
nodes = (
(405,497,o),
(460,534,o),
(460,588,cs),
(460,656,o),
(409,700,o),
(287,700,cs),
(25,700,l),
(25,690,l),
(90,683,o),
(125,664,o),
(125,616,cs),
(125,84,ls),
(125,36,o),
(90,17,o),
(25,10,c),
(25,0,l),
(276,0,ls),
(451,0,o),
(496,112,o),
(496,250,cs),
(496,360,o),
(441,475,o),
(335,487,c)
);
},
{
closed = 1;
nodes = (
(341,675,o),
(360,627,o),
(360,587,cs),
(360,547,o),
(344,500,o),
(251,500,cs),
(220,500,l),
(220,675,l),
(251,675,ls)
);
},
{
closed = 1;
nodes = (
(220,25,l),
(220,475,l),
(241,475,ls),
(383,475,o),
(396,352,o),
(396,243,cs),
(396,122,o),
(383,25,o),
(241,25,cs)
);
}
);
width = 560;
},
{
anchors = (
{
name = bottom;
pos = (347,0);
},
{
name = center;
pos = (347,350);
},
{
name = top;
pos = (347,700);
}
);
layerId = "52EA2D2A-A4E3-47AA-B963-53B6A9E26FA1";
shapes = (
{
closed = 1;
nodes = (
(586,491,o),
(627,522,o),
(627,581,cs),
(627,641,o),
(565,700,o),
(445,700,cs),
(25,700,l),
(25,680,l),
(50,679,o),
(85,674,o),
(85,616,cs),
(85,84,ls),
(85,26,o),
(50,21,o),
(25,20,c),
(25,0,l),
(415,0,ls),
(579,0,o),
(660,125,o),
(660,250,cs),
(660,356,o),
(602,451,o),
(510,476,c)
);
},
{
closed = 1;
nodes = (
(376,665,o),
(401,625,o),
(401,584,cs),
(401,542,o),
(375,500,o),
(324,500,cs),
(305,500,l),
(305,665,l),
(324,665,ls)
);
},
{
closed = 1;
nodes = (
(305,25,l),
(305,464,l),
(314,464,ls),
(393,464,o),
(435,352,o),
(435,240,cs),
(435,132,o),
(395,25,o),
(314,25,cs)
);
}
);
width = 694;
},
{
anchors = (
{
name = bottom;
pos = (306,0);
},
{
name = center;
pos = (306,350);
},
{
name = top;
pos = (306,700);
}
);
layerId = "ECEC25EE-2268-427F-924A-A8A033D1E43A";
shapes = (
{
closed = 1;
nodes = (
(440,498,o),
(501,545,o),
(501,592,cs),
(501,646,o),
(445,700,o),
(336,700,cs),
(44,700,l),
(44,690,l),
(120,683,o),
(144,679,o),
(144,631,cs),
(144,69,ls),
(144,21,o),
(119,17,o),
(44,10,c),
(44,0,l),
(294,0,ls),
(486,0,o),
(539,127,o),
(539,253,cs),
(539,354,o),
(467,461,o),
(359,487,c)
);
},
{
closed = 1;
nodes = (
(410,685,o),
(454,636,o),
(454,589,cs),
(454,544,o),
(410,500,o),
(306,500,cs),
(189,500,l),
(189,685,l),
(296,685,ls)
);
},
{
closed = 1;
nodes = (
(189,15,l),
(189,485,l),
(271,485,ls),
(415,485,o),
(489,365,o),
(489,247,cs),
(489,130,o),
(448,15,o),
(271,15,cs)
);
}
);
width = 612;
},
{
anchors = (
{
name = bottom;
pos = (557,0);
},
{
name = center;
pos = (557,350);
},
{
name = top;
pos = (557,700);
}
);
layerId = "C70D92E6-6044-4AAB-ADF3-B84826DC9CB7";
shapes = (
{
closed = 1;
nodes = (
(934,420,o),
(1008,477,o),
(1008,555,cs),
(1008,643,o),
(903,700,o),
(773,700,cs),
(54,700,l),
(54,690,l),
(150,683,o),
(224,682,o),
(224,596,cs),
(224,104,ls),
(224,18,o),
(150,17,o),
(54,10,c),
(54,0,l),
(762,1,ls),
(946,1,o),
(1034,111,o),
(1034,218,cs),
(1034,314,o),
(964,407,o),
(819,421,c)
);
},
{
closed = 1;
nodes = (
(892,685,o),
(958,630,o),
(958,556,cs),
(958,482,o),
(894,429,o),
(761,429,cs),
(269,429,l),
(269,685,l),
(761,685,ls)
);
},
{
closed = 1;
nodes = (
(269,15,l),
(269,414,l),
(741,414,ls),
(902,414,o),
(984,335,o),
(984,215,cs),
(984,96,o),
(902,16,o),
(741,16,cs)
);
}
);
width = 1113;
},
{
anchors = (
{
name = bottom;
pos = (542,0);
},
{
name = center;
pos = (542,350);
},
{
name = top;
pos = (542,700);
}
);
layerId = "92782D03-6C32-4A0E-AEF4-B0D65DFAA275";
shapes = (
{
closed = 1;
nodes = (
(916,429,o),
(1000,471,o),
(1000,558,cs),
(1000,629,o),
(947,700,o),
(716,700,cs),
(27,700,l),
(27,676,l),
(113,669,o),
(177,676,o),
(177,576,cs),
(177,124,ls),
(177,24,o),
(113,31,o),
(27,24,c),
(27,0,l),
(729,1,ls),
(979,2,o),
(1038,96,o),
(1038,211,cs),
(1038,326,o),
(927,420,o),
(794,421,c)
);
},
{
closed = 1;
nodes = (
(661,665,o),
(715,609,o),
(715,552,cs),
(715,495,o),
(660,438,o),
(551,438,cs),
(457,438,l),
(457,665,l),
(551,665,ls)
);
},
{
closed = 1;
nodes = (
(457,35,l),
(457,403,l),
(490,403,ls),
(659,403,o),
(753,332,o),
(753,221,cs),
(753,110,o),
(659,35,o),
(490,35,cs)
);
}
);
width = 1084;
},
{
associatedMasterId = "B6803316-6B37-45A2-910F-F0CA711B465A";
layerId = "C1D90355-4D85-471B-809B-E2522710E599";
name = "Mar 28 19, 14:27";
shapes = (
{
closed = 1;
nodes = (
(291,0,ls),
(466,0,o),
(516,112,o),
(516,250,cs),
(516,361,o),
(457,477,o),
(350,487,c),
(420,497,o),
(480,534,o),
(480,588,cs),
(480,656,o),
(424,700,o),
(302,700,cs),
(224,700,l),
(224,675,l),
(266,675,ls),
(356,675,o),
(375,627,o),
(375,587,cs),
(375,547,o),
(359,500,o),
(266,500,cs),
(214,500,l),
(214,475,l),
(256,475,ls),
(398,475,o),
(411,352,o),
(411,243,cs),
(411,122,o),
(398,25,o),
(256,25,cs),
(219,25,l),
(219,0,l)
);
},
{
closed = 1;
nodes = (
(140,0,l),
(140,84,l),
(140,36,o),
(105,17,o),
(40,10,c),
(40,0,l)
);
},
{
closed = 1;
nodes = (
(240,0,l),
(240,700,l),
(140,700,l),
(140,0,l)
);
},
{
closed = 1;
nodes = (
(140,700,l),
(40,700,l),
(40,690,l),
(105,683,o),
(140,664,o),
(140,616,c)
);
}
);
width = 556;
},
{
associatedMasterId = "ECEC25EE-2268-427F-924A-A8A033D1E43A";
layerId = "473445BB-1801-4E6C-AA8D-7E3221CBDC00";
name = "Mar 28 19, 14:30";
shapes = (
{
closed = 1;
nodes = (
(50,700,l),
(50,690,l),
(126,683,o),
(150,679,o),
(150,631,cs),
(150,69,ls),
(150,21,o),
(125,17,o),
(50,10,c),
(50,0,l),
(195,0,l),
(195,485,l),
(342,485,ls),
(451,485,o),
(507,538,o),
(507,592,cs),
(507,646,o),
(451,700,o),
(342,700,cs)
);
},
{
closed = 1;
nodes = (
(416,685,o),
(460,636,o),
(460,589,cs),
(460,544,o),
(416,500,o),
(312,500,cs),
(195,500,l),
(195,685,l),
(302,685,ls)
);
},
{
closed = 1;
nodes = (
(300,0,ls),
(492,0,o),
(545,127,o),
(545,253,cs),
(545,377,o),
(464,500,o),
(300,500,cs),
(185,500,l),
(185,485,l),
(277,485,ls),
(421,485,o),
(495,365,o),
(495,247,cs),
(495,130,o),
(454,15,o),
(277,15,cs),
(190,15,l),
(190,0,l)
);
}
);
width = 600;
},
{
associatedMasterId = "52EA2D2A-A4E3-47AA-B963-53B6A9E26FA1";
layerId = "82AAAEB2-262F-4C5B-8EB9-6D51530B4646";
name = "Mar 28 19, 14:51";
shapes = (
{
closed = 1;
nodes = (
(15,700,l),
(15,690,l),
(40,683,o),
(75,674,o),
(75,616,cs),
(75,84,ls),
(75,26,o),
(40,17,o),
(15,10,c),
(15,0,l),
(295,0,l),
(295,464,l),
(435,464,ls),
(566,464,o),
(617,523,o),
(617,581,cs),
(617,641,o),
(555,700,o),
(435,700,cs)
);
},
{
closed = 1;
nodes = (
(366,665,o),
(391,625,o),
(391,584,cs),
(391,542,o),
(365,500,o),
(314,500,cs),
(295,500,l),
(295,665,l),
(314,665,ls)
);
},
{
closed = 1;
nodes = (
(405,0,ls),
(569,0,o),
(650,125,o),
(650,250,cs),
(650,375,o),
(569,499,o),
(405,499,cs),
(286,499,l),
(286,464,l),
(304,464,ls),
(383,464,o),
(425,352,o),
(425,240,cs),
(425,132,o),
(385,25,o),
(304,25,cs),
(285,25,l),
(285,0,l)
);
}
);
width = 690;
},
{
associatedMasterId = "92782D03-6C32-4A0E-AEF4-B0D65DFAA275";
layerId = "168ED5E1-BF96-4F59-ADC2-AF20C6EAC0B9";
name = "Mar 28 19, 15:09";
shapes = (
{
closed = 1;
nodes = (
(450,700,l),
(20,700,l),
(20,686,l),
(106,679,o),
(170,676,o),
(170,576,cs),
(170,124,ls),
(170,24,o),
(106,21,o),
(20,14,c),
(20,0,l),
(450,0,l)
);
},
{
closed = 1;
nodes = (
(722,1,ls),
(972,2,o),
(1031,104,o),
(1031,209,cs),
(1031,327,o),
(920,420,o),
(787,421,c),
(909,429,o),
(993,471,o),
(993,558,cs),
(993,629,o),
(940,700,o),
(709,700,cs),
(404,700,l),
(404,665,l),
(544,665,ls),
(654,665,o),
(708,609,o),
(708,552,cs),
(708,495,o),
(653,438,o),
(544,438,cs),
(394,438,l),
(394,403,l),
(483,403,ls),
(652,403,o),
(746,332,o),
(746,221,cs),
(746,110,o),
(652,35,o),
(483,35,cs),
(394,35,l),
(394,0,l)
);
}
);
width = 1081;
},
{
associatedMasterId = "C70D92E6-6044-4AAB-ADF3-B84826DC9CB7";
layerId = "9CCFDAE1-A62F-4256-8583-B2C2625E7BEA";
name = "Mar 28 19, 15:09";
shapes = (
{
closed = 1;
nodes = (
(265,700,l),
(50,700,l),
(50,690,l),
(146,683,o),
(220,682,o),
(220,596,cs),
(220,104,ls),
(220,18,o),
(146,17,o),
(50,10,c),
(50,0,l),
(265,0,l)
);
},
{
closed = 1;
nodes = (
(758,1,ls),
(942,1,o),
(1030,111,o),
(1030,218,cs),
(1030,314,o),
(960,407,o),
(815,421,c),
(930,420,o),
(1004,477,o),
(1004,555,cs),
(1004,643,o),
(899,700,o),
(769,700,cs),
(244,700,l),
(244,685,l),
(757,685,ls),
(888,685,o),
(954,630,o),
(954,556,cs),
(954,482,o),
(890,429,o),
(757,429,cs),
(234,429,l),
(234,414,l),
(737,414,ls),
(898,414,o),
(980,335,o),
(980,215,cs),
(980,96,o),
(898,16,o),
(737,16,cs),
(234,15,l),
(234,0,l)
);
}
);
width = 1120;
},
{
associatedMasterId = "1127FDDC-7967-4E0A-BDB2-81E1CCE90981";
layerId = "4CBAC4AD-CFC5-437A-BA16-ED3534FA3977";
name = "Mar 28 19, 15:10";
shapes = (
{
closed = 1;
nodes = (
(732,1,ls),
(929,2,o),
(1041,97,o),
(1041,217,cs),
(1041,314,o),
(963,387,o),
(807,421,c),
(914,430,o),
(998,481,o),
(998,554,cs),
(998,626,o),
(943,700,o),
(719,700,cs),
(314,700,l),
(314,675,l),
(657,675,ls),
(855,675,o),
(894,616,o),
(894,556,cs),
(894,496,o),
(854,436,o),
(657,436,cs),
(304,436,l),
(304,411,l),
(673,411,ls),
(846,411,o),
(931,315,o),
(931,218,cs),
(931,123,o),
(846,27,o),
(673,26,cs),
(304,25,l),
(304,0,l)
);
},
{
closed = 1;
nodes = (
(230,0,l),
(230,124,l),
(230,37,o),
(124,17,o),
(40,10,c),
(40,0,l)
);
},
{
closed = 1;
nodes = (
(330,0,l),
(330,700,l),
(230,700,l),
(230,0,l)
);
},
{
closed = 1;
nodes = (
(230,700,l),
(40,700,l),
(40,690,l),
(124,683,o),
(230,663,o),
(230,576,c)
);
}
);
width = 1101;
},
{
associatedMasterId = "1127FDDC-7967-4E0A-BDB2-81E1CCE90981";
layerId = "15A2FA70-C509-4BA9-B677-305654A27081";
name = "May 18 19, 18:00";
shapes = (
{
closed = 1;
nodes = (
(914,430,o),
(998,481,o),
(998,554,cs),
(998,626,o),
(943,700,o),
(719,700,cs),
(40,700,l),
(40,690,l),
(124,683,o),
(230,663,o),
(230,576,cs),
(230,124,ls),
(230,37,o),
(124,17,o),
(40,10,c),
(40,0,l),
(732,1,ls),
(929,2,o),
(1041,97,o),
(1041,217,cs),
(1041,314,o),
(963,387,o),
(807,421,c)
);
},
{
closed = 1;
nodes = (
(855,675,o),
(894,616,o),
(894,556,cs),
(894,496,o),
(854,436,o),
(657,436,cs),
(330,436,l),
(330,675,l),
(657,675,ls)
);
},
{
closed = 1;
nodes = (
(330,25,l),
(330,411,l),
(673,411,ls),
(846,411,o),
(931,315,o),
(931,218,cs),
(931,123,o),
(846,27,o),
(673,26,cs)
);
}
);
width = 1101;
},
{
anchors = (
{
name = bottom;
pos = (569,0);
},
{
name = center;
pos = (569,350);
},
{
name = top;
pos = (569,700);
}
);
layerId = "1127FDDC-7967-4E0A-BDB2-81E1CCE90981";
shapes = (
{
closed = 1;
nodes = (
(861,432,o),
(1007,467,o),
(1007,561,cs),
(1007,644,o),
(932,700,o),
(708,700,cs),
(49,700,l),
(49,690,l),
(133,683,o),
(239,663,o),
(239,576,cs),
(239,124,ls),
(239,37,o),
(133,17,o),
(49,10,c),
(49,0,l),
(711,0,ls),
(908,0,o),
(1050,79,o),
(1050,219,cs),
(1050,336,o),
(927,419,o),
(785,429,c)
);
},
{
closed = 1;
nodes = (
(864,675,o),
(903,617,o),
(903,556,cs),
(903,497,o),
(853,436,o),
(661,436,cs),
(339,436,l),
(339,675,l),
(661,675,ls)
);
},
{
closed = 1;
nodes = (
(339,25,l),
(339,411,l),
(672,411,ls),
(845,411,o),
(940,327,o),
(940,220,cs),
(940,115,o),
(845,25,o),
(672,25,cs)
);
}
);
width = 1137;
}
);
unicode = 66;
}
{
glyphname = C;
kernLeft = O;
kernRight = C;
layers = (
{
anchors = (
{
name = bottom;
pos = (606,0);
},
{
name = top;
pos = (606,700);
}
);
layerId = "1127FDDC-7967-4E0A-BDB2-81E1CCE90981";
shapes = (
{
closed = 1;
nodes = (
(355,715,o),
(66,578,o),
(66,345,cs),
(66,143,o),
(331,-15,o),
(651,-15,cs),
(782,-15,o),
(989,0,o),
(1145,127,c),
(1131,148,l),
(985,30,o),
(793,10,o),
(651,10,cs),
(368,10,o),
(186,150,o),
(186,345,cs),
(186,566,o),
(417,690,o),
(656,690,cs),
(850,690,o),
(1047,621,o),
(1123,470,c),
(1133,470,l),
(1106,637,l),
(981,690,o),
(821,715,o),
(671,715,cs)
);
}
);
width = 1211;
},
{
anchors = (
{
name = bottom;
pos = (305,0);
},
{
name = top;
pos = (305,700);
}
);
layerId = "B6803316-6B37-45A2-910F-F0CA711B465A";
shapes = (
{
closed = 1;
nodes = (
(183,715,o),
(60,574,o),
(60,345,cs),
(60,143,o),
(166,-15,o),
(341,-13,cs),
(451,-12,o),
(523,76,o),
(558,179,c),
(536,191,l),
(498,79,o),
(425,10,o),
(340,12,cs),
(228,14,o),
(160,142,o),
(160,345,cs),
(160,565,o),
(243,690,o),
(344,690,cs),
(420,690,o),
(492,619,o),
(538,470,c),
(548,470,l),
(527,637,l),
(496,679,o),
(433,715,o),
(333,715,cs)
);
}
);
width = 609;
},
{
associatedMasterId = "1127FDDC-7967-4E0A-BDB2-81E1CCE90981";
layerId = "6E4D13E0-BE61-4882-9688-5E3D56BC5952";
name = "Feb 9 19, 17:53";
shapes = (
{
closed = 1;
nodes = (
(844,176,l),
(771,71,o),
(629,10,o),
(503,10,cs),
(309,10,o),
(175,150,o),
(175,350,cs),
(175,549,o),
(310,690,o),
(491,690,cs),
(643,690,o),
(739,620,o),
(811,470,c),
(821,470,l),
(794,637,l),
(717,687,o),
(613,715,o),
(503,715,cs),
(259,715,o),
(60,546,o),
(60,350,cs),
(60,143,o),
(259,-15,o),
(503,-15,cs),
(648,-15,o),
(787,55,o),
(864,161,c)
);
}
);
width = 914;
},
{
associatedMasterId = "1127FDDC-7967-4E0A-BDB2-81E1CCE90981";
layerId = "A9A59328-D1D9-479B-8982-C7B5E6AB17F1";
name = "Feb 18 19, 14:29";
shapes = (
{
closed = 1;
nodes = (
(784,-15,o),
(947,8,o),
(1048,60,c),
(1048,88,l),
(945,33,o),
(798,10,o),
(656,10,cs),
(373,10,o),
(170,150,o),
(170,345,cs),
(170,549,o),
(373,690,o),
(674,690,cs),
(858,690,o),
(1036,633,o),
(1114,470,c),
(1124,470,l),
(1097,637,l),
(957,694,o),
(832,715,o),
(674,715,cs),
(334,715,o),
(60,546,o),
(60,345,cs),
(60,143,o),
(334,-15,o),
(656,-15,cs)
);
}
);
width = 1164;
},
{
anchors = (
{
name = bottom;
pos = (336,0);
},
{
name = top;
pos = (376,700);
}
);
layerId = "52EA2D2A-A4E3-47AA-B963-53B6A9E26FA1";
shapes = (
{
closed = 1;
nodes = (
(179,715,o),
(42,574,o),
(42,345,cs),
(42,107,o),
(220,-14,o),
(399,-14,cs),
(583,-14,o),
(632,107,o),
(641,172,c),
(606,179,l),
(583,102,o),
(530,62,o),
(467,62,cs),
(338,62,o),
(264,189,o),
(264,373,cs),
(264,563,o),
(313,680,o),
(407,680,cs),
(480,680,o),
(544,619,o),
(590,470,c),
(630,470,l),
(609,637,l),
(585,671,o),
(512,715,o),
(384,715,cs)
);
}
);
width = 671;
},
{
anchors = (
{
name = bottom;
pos = (324,0);
},
{
name = top;
pos = (324,700);
}
);
layerId = "ECEC25EE-2268-427F-924A-A8A033D1E43A";
shapes = (
{
closed = 1;
nodes = (
(201,715,o),
(78,574,o),
(78,345,cs),
(78,143,o),
(197,-15,o),
(349,-15,cs),
(522,-15,o),
(565,121,o),
(576,179,c),
(562,184,l),
(543,98,o),
(493,0,o),
(349,0,cs),
(201,0,o),
(128,179,o),
(128,344,cs),
(128,516,o),
(207,700,o),
(362,700,cs),
(438,700,o),
(525,619,o),
(556,470,c),
(566,470,l),
(545,637,l),
(514,679,o),
(451,715,o),
(351,715,cs)
);
}
);
width = 647;
},
{
anchors = (
{
name = bottom;
pos = (612,0);
},
{
name = top;
pos = (612,700);
}
);
layerId = "C70D92E6-6044-4AAB-ADF3-B84826DC9CB7";
shapes = (
{
closed = 1;
nodes = (
(362,715,o),
(73,578,o),
(73,345,cs),
(73,143,o),
(338,-15,o),
(658,-15,cs),
(929,-15,o),
(1077,58,o),
(1152,127,c),
(1144,140,l),
(1079,80,o),
(940,0,o),
(658,0,cs),
(298,0,o),
(123,171,o),
(123,343,cs),
(123,521,o),
(307,700,o),
(663,700,cs),
(897,700,o),
(1085,647,o),
(1130,470,c),
(1140,470,l),
(1113,637,l),
(988,690,o),
(828,715,o),
(678,715,cs)
);
}
);
width = 1223;
},
{
associatedMasterId = "ECEC25EE-2268-427F-924A-A8A033D1E43A";
layerId = "B4E5BBCC-0FA4-4CD9-8AF9-181B86EDFE20";
name = "Mar 26 19, 14:11";
shapes = (
{
closed = 1;
nodes = (
(445,-15,o),
(513,76,o),
(548,179,c),
(534,184,l),
(488,76,o),
(415,0,o),
(321,0,cs),
(173,0,o),
(100,179,o),
(100,344,cs),
(100,516,o),
(179,700,o),
(334,700,cs),
(410,700,o),
(497,619,o),
(528,470,c),
(538,470,l),
(517,637,l),
(486,679,o),
(423,715,o),
(323,715,cs),
(173,715,o),
(50,574,o),
(50,345,cs),
(50,143,o),
(169,-15,o),
(321,-15,cs)
);
}
);
width = 600;
},
{
associatedMasterId = "C70D92E6-6044-4AAB-ADF3-B84826DC9CB7";
layerId = "87E3277C-7F4B-44FF-8158-981FE226DE29";
name = "Mar 27 19, 14:12";
shapes = (
{
closed = 1;
nodes = (
(776,-15,o),
(978,6,o),
(1139,127,c),
(1131,140,l),
(979,30,o),
(787,0,o),
(645,0,cs),
(285,0,o),
(110,171,o),
(110,343,cs),
(110,521,o),
(294,700,o),
(650,700,cs),
(884,700,o),
(1072,647,o),
(1117,470,c),
(1127,470,l),
(1100,637,l),
(975,690,o),
(815,715,o),
(665,715,cs),
(349,715,o),
(60,578,o),
(60,345,cs),
(60,143,o),
(325,-15,o),
(645,-15,cs)
);
}
);
width = 1169;
},
{
anchors = (
{
name = bottom;
pos = (567,0);
},
{
name = top;
pos = (567,700);
}
);
layerId = "92782D03-6C32-4A0E-AEF4-B0D65DFAA275";
shapes = (
{
closed = 1;
nodes = (
(335,715,o),
(44,578,o),
(44,345,cs),
(44,82,o),
(335,-15,o),
(677,-15,cs),
(921,-15,o),
(1050,78,o),
(1093,127,c),
(1067,151,l),
(1022,102,o),
(915,46,o),
(748,46,cs),
(482,46,o),
(324,179,o),
(324,378,cs),
(324,519,o),
(437,680,o),
(677,680,cs),
(800,680,o),
(957,621,o),
(1051,470,c),
(1081,470,l),
(1054,637,l),
(929,690,o),
(769,715,o),
(649,715,cs)
);
}
);
width = 1134;
},
{
associatedMasterId = "52EA2D2A-A4E3-47AA-B963-53B6A9E26FA1";
layerId = "77F6607D-948F-46AD-AFAD-B1EF918C7F51";
name = "May 5 19, 16:37";
shapes = (
{
closed = 1;
nodes = (
(187,715,o),
(50,574,o),
(50,345,cs),
(50,143,o),
(169,-15,o),
(429,-15,cs),
(610,-15,o),
(636,118,o),
(649,172,c),
(614,179,l),
(598,93,o),
(549,21,o),
(453,21,cs),
(334,21,o),
(274,183,o),
(274,347,cs),
(274,513,o),
(335,680,o),
(423,680,cs),
(498,680,o),
(552,619,o),
(598,470,c),
(638,470,l),
(617,637,l),
(586,679,o),
(535,715,o),
(415,715,cs)
);
}
);
width = 688;
},
{
associatedMasterId = "92782D03-6C32-4A0E-AEF4-B0D65DFAA275";
layerId = "3DA4A995-1573-42F8-B7A7-DC2D80CF5DD7";
name = "May 5 19, 16:56";
shapes = (
{
closed = 1;
nodes = (
(329,715,o),
(40,578,o),
(40,345,cs),
(40,117,o),
(332,-15,o),
(673,-15,cs),
(900,-15,o),
(1023,53,o),
(1089,127,c),
(1063,151,l),
(978,49,o),
(804,20,o),
(711,20,cs),
(474,20,o),
(325,140,o),
(325,341,cs),
(325,509,o),
(430,680,o),
(681,680,cs),
(788,680,o),
(953,621,o),
(1047,470,c),
(1077,470,l),
(1050,637,l),
(925,690,o),
(765,715,o),
(645,715,cs)
);
}
);
width = 1119;
}
);
metricLeft = O;
unicode = 67;
}
{
glyphname = D;
kernLeft = H;
kernRight = O;
layers = (
{
anchors = (
{
name = bottom;
pos = (595,0);
},
{
name = center;
pos = (595,350);
},
{
name = top;
pos = (595,700);
}
);
layerId = "1127FDDC-7967-4E0A-BDB2-81E1CCE90981";
shapes = (
{
closed = 1;
nodes = (
(49,700,l),
(49,690,l),
(115,684,o),
(150,665,o),
(149,616,cs),
(149,84,ls),
(149,36,o),
(114,17,o),
(49,10,c),
(49,0,l),
(662,0,ls),
(953,0,o),
(1115,133,o),
(1115,345,cs),
(1115,581,o),
(938,700,o),
(649,700,cs)
);
},
{
closed = 1;
nodes = (
(249,25,l),
(249,675,l),
(631,675,ls),
(888,675,o),
(1005,562,o),
(1005,345,cs),
(1005,150,o),
(889,25,o),
(646,25,cs)
);
}
);
width = 1189;
},
{
anchors = (
{
name = bottom;
pos = (339,0);
},
{
name = center;
pos = (339,350);
},
{
name = top;
pos = (339,700);
}
);
layerId = "B6803316-6B37-45A2-910F-F0CA711B465A";
shapes = (
{
closed = 1;
nodes = (
(25,700,l),
(25,690,l),
(91,684,o),
(126,665,o),
(125,616,cs),
(125,84,ls),
(125,36,o),
(90,17,o),
(25,10,c),
(25,0,l),
(296,0,ls),
(503,0,o),
(618,140,o),
(618,346,cs),
(618,565,o),
(511,700,o),
(287,700,cs)
);
},
{
closed = 1;
nodes = (
(220,25,l),
(220,675,l),
(251,675,ls),
(461,675,o),
(518,537,o),
(518,346,cs),
(518,157,o),
(467,25,o),
(251,25,cs)
);
}
);
width = 677;
},
{
anchors = (
{
name = bottom;
pos = (357,0);
},
{
name = center;
pos = (357,350);
},
{
name = top;
pos = (357,700);
}
);
layerId = "52EA2D2A-A4E3-47AA-B963-53B6A9E26FA1";
shapes = (
{
closed = 1;
nodes = (
(25,700,l),
(25,680,l),
(50,679,o),
(85,674,o),
(85,616,cs),
(85,84,ls),
(85,26,o),
(50,21,o),
(25,20,c),
(25,0,l),
(368,0,ls),
(576,0,o),
(680,175,o),
(680,350,cs),
(680,525,o),
(576,700,o),
(368,700,cs)
);
},
{
closed = 1;
nodes = (
(305,35,l),
(305,665,l),
(316,665,ls),
(411,665,o),
(454,504,o),
(454,345,cs),
(454,189,o),
(413,35,o),
(316,35,cs)
);
}
);
width = 714;
},
{
anchors = (
{
name = bottom;
pos = (356,0);
},
{
name = center;
pos = (356,350);
},
{
name = top;
pos = (356,700);
}
);
layerId = "ECEC25EE-2268-427F-924A-A8A033D1E43A";
shapes = (
{
closed = 1;
nodes = (
(44,700,l),
(44,690,l),
(120,683,o),
(144,679,o),
(144,631,cs),
(144,69,ls),
(144,21,o),
(119,17,o),
(44,10,c),
(44,0,l),
(311,0,ls),
(549,0,o),
(637,175,o),
(637,350,cs),
(637,525,o),
(549,700,o),
(311,700,cs)
);
},
{
closed = 1;
nodes = (
(189,15,l),
(189,685,l),
(270,685,ls),
(499,685,o),
(587,525,o),
(587,346,cs),
(587,170,o),
(503,15,o),
(270,15,cs)
);
}
);
width = 712;
},
{
anchors = (
{
name = bottom;
pos = (585,0);
},
{
name = center;
pos = (585,350);
},
{
name = top;
pos = (585,700);
}
);
layerId = "92782D03-6C32-4A0E-AEF4-B0D65DFAA275";
shapes = (
{
closed = 1;
nodes = (
(27,700,l),
(27,676,l),
(113,669,o),
(177,676,o),
(177,576,cs),
(177,124,ls),
(177,24,o),
(113,31,o),
(27,24,c),
(27,0,l),
(680,0,ls),
(994,0,o),
(1123,174,o),
(1123,348,cs),
(1123,524,o),
(992,700,o),
(667,700,cs)
);
},
{
closed = 1;
nodes = (
(457,25,l),
(457,675,l),
(549,675,ls),
(742,675,o),
(838,509,o),
(838,344,cs),
(838,184,o),
(746,25,o),
(564,25,cs)
);
}
);
width = 1170;
},
{
anchors = (
{
name = bottom;
pos = (598,0);
},
{
name = center;
pos = (598,350);
},
{
name = top;
pos = (598,700);
}
);
layerId = "C70D92E6-6044-4AAB-ADF3-B84826DC9CB7";
shapes = (
{
closed = 1;
nodes = (
(54,700,l),
(54,690,l),
(150,683,o),
(224,682,o),
(224,596,cs),
(224,104,ls),
(224,18,o),
(150,17,o),
(54,10,c),
(54,0,l),
(677,0,ls),
(971,0,o),
(1120,164,o),
(1120,348,cs),
(1120,534,o),
(969,700,o),
(664,700,cs)
);
},
{
closed = 1;
nodes = (
(269,15,l),
(269,685,l),
(646,685,ls),
(929,685,o),
(1070,525,o),
(1070,346,cs),
(1070,170,o),
(933,15,o),
(661,15,cs)
);
}
);
width = 1196;
},
{
associatedMasterId = "B6803316-6B37-45A2-910F-F0CA711B465A";
layerId = "0AC782C4-2677-410D-A218-D459D801D44E";
name = "Mar 28 19, 13:59";
shapes = (
{
closed = 1;
nodes = (
(311,0,ls),
(518,0,o),
(633,140,o),
(633,346,cs),
(633,565,o),
(526,700,o),
(302,700,cs),
(141,700,l),
(141,675,l),
(266,675,ls),
(476,675,o),
(523,537,o),
(523,346,cs),
(523,157,o),
(482,25,o),
(266,25,cs),
(141,25,l),
(141,0,l)
);
},
{
closed = 1;
nodes = (
(140,0,l),
(140,84,l),
(140,36,o),
(105,17,o),
(40,10,c),
(40,0,l)
);
},
{
closed = 1;
nodes = (
(240,0,l),
(240,700,l),
(140,700,l),
(140,0,l)
);
},
{
closed = 1;
nodes = (
(140,700,l),
(40,700,l),
(40,690,l),
(106,684,o),
(141,665,o),
(140,616,c)
);
}
);
width = 678;
},
{
associatedMasterId = "ECEC25EE-2268-427F-924A-A8A033D1E43A";
layerId = "2BB6A533-9BCA-4B87-A4D7-B6D976DCD735";
name = "Mar 28 19, 14:05";
shapes = (
{
closed = 1;
nodes = (
(307,0,ls),
(545,0,o),
(633,175,o),
(633,350,cs),
(633,525,o),
(545,700,o),
(307,700,cs),
(141,700,l),
(141,685,l),
(266,685,ls),
(495,685,o),
(583,525,o),
(583,346,cs),
(583,170,o),
(499,15,o),
(266,15,cs),
(141,15,l),
(141,0,l)
);
},
{
closed = 1;
nodes = (
(140,0,l),
(140,69,l),
(140,21,o),
(115,17,o),
(40,10,c),
(40,0,l)
);
},
{
closed = 1;
nodes = (
(185,0,l),
(185,700,l),
(140,700,l),
(140,0,l)
);
},
{
closed = 1;
nodes = (
(140,700,l),
(40,700,l),
(40,690,l),
(116,683,o),
(140,679,o),
(140,631,c)
);
}
);
width = 693;
},
{
associatedMasterId = "52EA2D2A-A4E3-47AA-B963-53B6A9E26FA1";
layerId = "B3D268A9-B9B9-48F1-87B2-DBB8D47D0067";
name = "Mar 28 19, 14:06";
shapes = (
{
closed = 1;
nodes = (
(290,700,l),
(10,700,l),
(10,690,l),
(35,683,o),
(70,674,o),
(70,616,cs),
(70,84,ls),
(70,26,o),
(35,17,o),
(10,10,c),
(10,0,l),
(290,0,l)
);
},
{
closed = 1;
nodes = (
(353,0,ls),
(561,0,o),
(665,175,o),
(665,350,cs),
(665,525,o),
(561,700,o),
(353,700,cs),
(147,700,l),
(147,665,l),
(301,665,ls),
(396,665,o),
(439,504,o),
(439,345,cs),
(439,189,o),
(398,35,o),
(301,35,cs),
(147,35,l),
(147,0,l)
);
}
);
width = 679;
},
{
associatedMasterId = "C70D92E6-6044-4AAB-ADF3-B84826DC9CB7";
layerId = "FD1859C0-6D14-4BB0-ADA9-0A4BAAF2E60E";
name = "Mar 28 19, 14:08";
shapes = (
{
closed = 1;
nodes = (
(265,700,l),
(50,700,l),
(50,690,l),
(146,683,o),
(220,682,o),
(220,596,cs),
(220,104,ls),
(220,18,o),
(146,17,o),
(50,10,c),
(50,0,l),
(265,0,l)
);
},
{
closed = 1;
nodes = (
(673,0,ls),
(967,0,o),
(1116,164,o),
(1116,348,cs),
(1116,534,o),
(965,700,o),
(660,700,cs),
(230,700,l),
(230,685,l),
(642,685,ls),
(925,685,o),
(1066,525,o),
(1066,346,cs),
(1066,170,o),
(929,15,o),
(657,15,cs),
(230,15,l),
(230,0,l)
);
}
);
width = 1196;
},
{
associatedMasterId = "1127FDDC-7967-4E0A-BDB2-81E1CCE90981";
layerId = "15C7B122-761B-4850-A82C-11B5199D4849";
name = "Mar 28 19, 14:08";
shapes = (
{
closed = 1;
nodes = (
(553,0,ls),
(884,0,o),
(1076,123,o),
(1076,345,cs),
(1076,591,o),
(869,700,o),
(540,700,cs),
(230,700,l),
(230,675,l),
(532,675,ls),
(849,675,o),
(966,572,o),
(966,345,cs),
(966,140,o),
(850,25,o),
(547,25,cs),
(230,25,l),
(230,0,l)
);
},
{
closed = 1;
nodes = (
(140,0,l),
(140,84,l),
(140,36,o),
(105,17,o),
(40,10,c),
(40,0,l)
);
},
{
closed = 1;
nodes = (
(240,0,l),
(240,700,l),
(140,700,l),
(140,0,l)
);
},
{
closed = 1;
nodes = (
(140,700,l),
(40,700,l),
(40,690,l),
(106,684,o),
(141,665,o),
(140,616,c)
);
}
);
width = 1146;
},
{
associatedMasterId = "92782D03-6C32-4A0E-AEF4-B0D65DFAA275";
layerId = "BBA175DA-5296-42FC-B0A8-08758A9775C0";
name = "Mar 28 19, 14:26";
shapes = (
{
closed = 1;
nodes = (
(450,700,l),
(20,700,l),
(20,686,l),
(106,679,o),
(170,676,o),
(170,576,cs),
(170,124,ls),
(170,24,o),
(106,21,o),
(20,14,c),
(20,0,l),
(450,0,l)
);
},
{
closed = 1;
nodes = (
(673,0,ls),
(987,0,o),
(1116,174,o),
(1116,348,cs),
(1116,524,o),
(985,700,o),
(660,700,cs),
(230,700,l),
(230,675,l),
(542,675,ls),
(735,675,o),
(831,509,o),
(831,344,cs),
(831,184,o),
(739,25,o),
(557,25,cs),
(230,25,l),
(230,0,l)
);
}
);
width = 1206;
}
);
unicode = 68;
}
{
glyphname = E;
kernLeft = H;
kernRight = E;
layers = (
{
anchors = (
{
name = bottom;
pos = (285,0);
},
{
name = ogonek;
pos = (512,10);
},
{
name = top;
pos = (285,700);
},
{
name = topleft;
pos = (20,700);
}
);
layerId = "B6803316-6B37-45A2-910F-F0CA711B465A";
shapes = (
{
closed = 1;
nodes = (
(427,675,o),
(470,574,o),
(477,475,c),
(487,475,l),
(487,700,l),
(25,700,l),
(25,690,l),
(90,683,o),
(125,664,o),
(125,616,cs),
(125,84,ls),
(125,36,o),
(90,17,o),
(25,10,c),
(25,0,l),
(487,0,l),
(487,225,l),
(477,225,l),
(470,126,o),
(427,25,o),
(334,25,cs),
(220,25,l),
(220,475,l),
(234,475,ls),
(305,475,o),
(385,381,o),
(414,307,c),
(424,310,l),
(319,620,l),
(309,617,l),
(331,536,o),
(314,500,o),
(234,500,cs),
(220,500,l),
(220,675,l),
(334,675,ls)
);
}
);
width = 569;
},
{
associatedMasterId = "B6803316-6B37-45A2-910F-F0CA711B465A";
layerId = "215F09D6-0B66-4DB9-B491-307CC3E15E8E";
name = "Feb 10 19, 18:09";
shapes = (
{
closed = 1;
nodes = (
(240,0,l),
(240,700,l),
(140,700,l),
(140,0,l)
);
},
{
closed = 1;
nodes = (
(140,0,l),
(140,84,l),
(140,36,o),
(105,17,o),
(40,10,c),
(40,0,l)
);
},
{
closed = 1;
nodes = (
(502,0,l),
(502,25,l),
(209,25,l),
(209,0,l)
);
},
{
closed = 1;
nodes = (
(502,25,l),
(502,225,l),
(492,225,l),
(485,126,o),
(442,25,o),
(349,25,c)
);
},
{
closed = 1;
nodes = (
(140,700,l),
(40,700,l),
(40,690,l),
(105,683,o),
(140,664,o),
(140,616,c)
);
},
{
closed = 1;
nodes = (
(320,475,l),
(320,500,l),
(209,500,l),
(209,475,l)
);
},
{
closed = 1;
nodes = (
(439,310,l),
(334,620,l),
(324,617,l),
(346,536,o),
(329,500,o),
(249,500,c),
(249,475,l),
(320,475,o),
(400,381,o),
(429,307,c)
);
},
{
closed = 1;
nodes = (
(502,475,l),
(502,675,l),
(349,675,l),
(442,675,o),
(485,574,o),
(492,475,c)
);
},
{
closed = 1;
nodes = (
(502,675,l),
(502,700,l),
(220,700,l),
(220,675,l)
);
}
);
width = 552;
},
{
anchors = (
{
name = bottom;
pos = (537,0);
},
{
name = ogonek;
pos = (967,10);
},
{
name = top;
pos = (537,700);
},
{
name = topleft;
pos = (20,700);
}
);
layerId = "1127FDDC-7967-4E0A-BDB2-81E1CCE90981";
shapes = (
{
closed = 1;
nodes = (
(895,675,o),
(954,574,o),
(961,455,c),
(971,455,l),
(971,700,l),
(49,700,l),
(49,690,l),
(132,683,o),
(238,663,o),
(239,576,cs),
(239,124,ls),
(239,37,o),
(133,17,o),
(49,10,c),
(49,0,l),
(971,0,l),
(971,245,l),
(961,245,l),
(954,125,o),
(895,25,o),
(758,25,cs),
(339,25,l),
(339,475,l),
(548,475,ls),
(623,475,o),
(690,415,o),
(747,274,c),
(757,277,l),
(643,620,l),
(633,617,l),
(651,536,o),
(629,500,o),
(548,500,cs),
(339,500,l),
(339,675,l),
(758,675,ls)
);
}
);
width = 1074;
},
{
anchors = (
{
name = bottom;
pos = (315,0);
},
{
name = ogonek;
pos = (566,10);
},
{
name = top;
pos = (315,700);
},
{
name = topleft;
pos = (20,700);
}
);
layerId = "52EA2D2A-A4E3-47AA-B963-53B6A9E26FA1";
shapes = (
{
closed = 1;
nodes = (
(517,665,o),
(540,544,o),
(547,455,c),
(567,455,l),
(567,700,l),
(25,700,l),
(25,680,l),
(50,679,o),
(85,674,o),
(85,616,cs),
(85,84,ls),
(85,26,o),
(50,21,o),
(25,20,c),
(25,0,l),
(567,0,l),
(567,245,l),
(547,245,l),
(540,156,o),
(517,35,o),
(354,35,cs),
(305,35,l),
(305,465,l),
(314,465,ls),
(365,465,o),
(441,395,o),
(486,297,c),
(504,300,l),
(399,620,l),
(381,617,l),
(393,541,o),
(374,500,o),
(314,500,cs),
(305,500,l),
(305,665,l),
(354,665,ls)
);
}
);
width = 629;
},
{
anchors = (
{
name = bottom;
pos = (301,0);
},
{
name = ogonek;
pos = (541,10);
},
{
name = top;
pos = (301,700);
},
{
name = topleft;
pos = (20,700);
}
);
layerId = "ECEC25EE-2268-427F-924A-A8A033D1E43A";
shapes = (
{
closed = 1;
nodes = (
(466,685,o),
(489,635,o),
(496,485,c),
(506,485,l),
(506,700,l),
(44,700,l),
(44,690,l),
(110,683,o),
(144,679,o),
(144,631,cs),
(144,69,ls),
(144,21,o),
(109,17,o),
(44,10,c),
(44,0,l),
(506,0,l),
(506,214,l),
(496,214,l),
(490,76,o),
(470,15,o),
(379,15,cs),
(189,15,l),
(189,485,l),
(198,485,ls),
(339,485,o),
(364,478,o),
(433,307,c),
(443,310,l),
(338,620,l),
(328,617,l),
(355,500,o),
(338,500,o),
(198,500,cs),
(189,500,l),
(189,685,l),
(353,685,ls)
);
}
);
width = 601;
},
{
anchors = (
{
name = bottom;
pos = (519,0);
},
{
name = ogonek;
pos = (933,10);
},
{
name = top;
pos = (519,700);
},
{
name = topleft;
pos = (20,700);
}
);
layerId = "92782D03-6C32-4A0E-AEF4-B0D65DFAA275";
shapes = (
{
closed = 1;
nodes = (
(853,665,o),
(932,574,o),
(939,455,c),
(959,455,l),
(959,700,l),
(27,700,l),
(27,676,l),
(113,669,o),
(177,676,o),
(177,576,cs),
(177,124,ls),
(177,24,o),
(113,31,o),
(27,24,c),
(27,0,l),
(959,0,l),
(959,245,l),
(939,245,l),
(932,125,o),
(853,35,o),
(686,35,cs),
(457,35,l),
(457,465,l),
(524,465,ls),
(601,465,o),
(673,395,o),
(727,274,c),
(745,277,l),
(631,620,l),
(613,617,l),
(623,545,o),
(607,500,o),
(524,500,cs),
(457,500,l),
(457,665,l),
(686,665,ls)
);
}
);
width = 1037;
},
{
anchors = (
{
name = bottom;
pos = (533,0);
},
{
name = ogonek;
pos = (959,10);
},
{
name = top;
pos = (533,700);
},
{
name = topleft;
pos = (20,700);
}
);
layerId = "C70D92E6-6044-4AAB-ADF3-B84826DC9CB7";
shapes = (
{
closed = 1;
nodes = (
(917,685,o),
(940,605,o),
(947,455,c),
(957,455,l),
(957,700,l),
(54,700,l),
(54,690,l),
(150,683,o),
(224,682,o),
(224,596,cs),
(224,104,ls),
(224,18,o),
(150,17,o),
(54,10,c),
(54,0,l),
(957,0,l),
(957,244,l),
(947,244,l),
(941,106,o),
(921,15,o),
(830,15,cs),
(269,15,l),
(269,485,l),
(542,484,ls),
(638,484,o),
(664,453,o),
(724,307,c),
(734,310,l),
(629,620,l),
(619,617,l),
(642,517,o),
(633,500,o),
(542,500,cs),
(269,500,l),
(269,685,l),
(804,685,ls)
);
}
);
width = 1065;
},
{
associatedMasterId = "ECEC25EE-2268-427F-924A-A8A033D1E43A";
layerId = "B8EA55B3-ECF0-4351-B46B-76630A797EDD";
name = "Mar 26 19, 14:25";
shapes = (
{
closed = 1;
nodes = (
(185,0,l),
(185,700,l),
(140,700,l),
(140,0,l)
);
},
{
closed = 1;
nodes = (
(502,0,l),
(502,15,l),
(154,15,l),
(154,0,l)
);
},
{
closed = 1;
nodes = (
(502,485,l),
(502,685,l),
(349,685,l),
(462,685,o),
(485,635,o),
(492,485,c)
);
},
{
closed = 1;
nodes = (
(502,685,l),
(502,700,l),
(165,700,l),
(165,685,l)
);
},
{
closed = 1;
nodes = (
(140,0,l),
(140,69,l),
(140,21,o),
(105,17,o),
(40,10,c),
(40,0,l)
);
},
{
closed = 1;
nodes = (
(140,700,l),
(40,700,l),
(40,690,l),
(106,683,o),
(140,679,o),
(140,631,c)
);
},
{
closed = 1;
nodes = (
(194,485,ls),
(335,485,o),
(360,478,o),
(429,307,c),
(439,310,l),
(334,620,l),
(324,617,l),
(351,500,o),
(334,500,o),
(194,500,cs),
(154,500,l),
(154,485,l)
);
},
{
closed = 1;
nodes = (
(485,64,o),
(462,14,o),
(349,14,c),
(502,14,l),
(502,214,l),
(492,214,l)
);
}
);
width = 602;
},
{
associatedMasterId = "52EA2D2A-A4E3-47AA-B963-53B6A9E26FA1";
layerId = "1182D38C-F736-4F16-A06F-AD55AFF618D1";
name = "Mar 26 19, 14:56";
shapes = (
{
closed = 1;
nodes = (
(290,0,l),
(290,700,l),
(10,700,l),
(10,690,l),
(35,683,o),
(70,674,o),
(70,616,cs),
(70,84,ls),
(70,26,o),
(35,17,o),
(10,10,c),
(10,0,l)
);
},
{
closed = 1;
nodes = (
(552,0,l),
(552,25,l),
(259,25,l),
(259,0,l)
);
},
{
closed = 1;
nodes = (
(552,25,l),
(552,245,l),
(542,245,l),
(535,156,o),
(502,25,o),
(339,25,c)
);
},
{
closed = 1;
nodes = (
(552,455,l),
(552,675,l),
(339,675,l),
(502,675,o),
(535,544,o),
(542,455,c)
);
},
{
closed = 1;
nodes = (
(552,675,l),
(552,700,l),
(270,700,l),
(270,675,l)
);
},
{
closed = 1;
nodes = (
(299,475,ls),
(350,475,o),
(434,406,o),
(479,307,c),
(489,310,l),
(384,620,l),
(374,617,l),
(386,541,o),
(359,500,o),
(299,500,cs),
(259,500,l),
(259,475,l)
);
}
);
width = 600;
},
{
associatedMasterId = "C70D92E6-6044-4AAB-ADF3-B84826DC9CB7";
layerId = "94087BAE-AE4E-4478-9FF2-2534ED250D62";
name = "Mar 27 19, 13:53";
shapes = (
{
closed = 1;
nodes = (
(260,0,l),
(953,0,l),
(953,244,l),
(943,244,l),
(937,106,o),
(917,23,o),
(826,15,c),
(260,15,l)
);
},
{
closed = 1;
nodes = (
(260,485,l),
(538,484,ls),
(634,484,o),
(660,453,o),
(720,307,c),
(730,310,l),
(625,620,l),
(615,617,l),
(638,517,o),
(629,500,o),
(538,500,cs),
(260,500,l)
);
},
{
closed = 1;
nodes = (
(260,685,l),
(800,685,ls),
(913,685,o),
(936,605,o),
(943,455,c),
(953,455,l),
(953,700,l),
(260,700,l)
);
},
{
closed = 1;
nodes = (
(265,700,l),
(50,700,l),
(50,690,l),
(146,683,o),
(220,682,o),
(220,596,cs),
(220,104,ls),
(220,18,o),
(146,17,o),
(50,10,c),
(50,0,l),
(265,0,l)
);
}
);
width = 1103;
},
{
associatedMasterId = "1127FDDC-7967-4E0A-BDB2-81E1CCE90981";
layerId = "AEF2644C-09BC-42F1-9D7F-940D6476D831";
name = "Mar 27 19, 15:15";
shapes = (
{
closed = 1;
nodes = (
(330,0,l),
(962,0,l),
(962,245,l),
(952,245,l),
(945,125,o),
(886,25,o),
(749,25,cs),
(324,25,l)
);
},
{
closed = 1;
nodes = (
(324,675,l),
(749,675,ls),
(886,675,o),
(945,574,o),
(952,455,c),
(962,455,l),
(962,700,l),
(330,700,l)
);
},
{
closed = 1;
nodes = (
(324,475,l),
(539,475,ls),
(614,475,o),
(681,415,o),
(738,274,c),
(748,277,l),
(634,620,l),
(624,617,l),
(642,536,o),
(620,500,o),
(539,500,cs),
(324,500,l)
);
},
{
closed = 1;
nodes = (
(330,681,l),
(330,700,l),
(40,700,l),
(40,690,l),
(123,683,o),
(229,663,o),
(230,576,cs),
(230,124,ls),
(230,37,o),
(124,17,o),
(40,10,c),
(40,0,l),
(330,0,l),
(330,19,l)
);
}
);
width = 1112;
},
{
associatedMasterId = "92782D03-6C32-4A0E-AEF4-B0D65DFAA275";
layerId = "211E878B-43BF-4F51-847E-DC81DE24F448";
name = "Mar 27 19, 15:18";
shapes = (
{
closed = 1;
nodes = (
(460,700,l),
(30,700,l),
(30,686,l),
(116,679,o),
(180,676,o),
(180,576,cs),
(180,124,ls),
(180,24,o),
(116,21,o),
(30,14,c),
(30,0,l),
(460,0,l)
);
},
{
closed = 1;
nodes = (
(330,0,l),
(962,0,l),
(962,245,l),
(952,245,l),
(945,125,o),
(856,35,o),
(689,35,cs),
(324,35,l)
);
},
{
closed = 1;
nodes = (
(324,665,l),
(689,665,ls),
(856,665,o),
(945,574,o),
(952,455,c),
(962,455,l),
(962,700,l),
(330,700,l)
);
},
{
closed = 1;
nodes = (
(324,465,l),
(527,465,ls),
(604,465,o),
(684,395,o),
(738,274,c),
(748,277,l),
(634,620,l),
(624,617,l),
(634,545,o),
(610,500,o),
(527,500,cs),
(324,500,l)
);
}
);
width = 1092;
}
);
unicode = 69;
}
{
glyphname = F;
kernLeft = H;
kernRight = F;
layers = (
{
anchors = (
{
name = bottom;
pos = (521,0);
},
{
name = top;
pos = (521,700);
}
);
layerId = "1127FDDC-7967-4E0A-BDB2-81E1CCE90981";
shapes = (
{
closed = 1;
nodes = (
(49,700,l),
(49,690,l),
(132,683,o),
(238,663,o),
(239,576,cs),
(239,124,ls),
(239,39,o),
(133,19,o),
(49,10,c),
(49,0,l),
(529,0,l),
(529,10,l),
(445,19,o),
(339,39,o),
(339,124,cs),
(339,475,l),
(548,475,ls),
(623,475,o),
(690,415,o),
(747,274,c),
(757,277,l),
(643,620,l),
(633,617,l),
(651,536,o),
(629,500,o),
(548,500,cs),
(339,500,l),
(339,675,l),
(758,675,ls),
(895,675,o),
(954,574,o),
(961,455,c),
(971,455,l),
(971,700,l)
);
}
);
width = 1042;
},
{
anchors = (
{
name = bottom;
pos = (267,0);
},
{
name = top;
pos = (267,700);
}
);
layerId = "B6803316-6B37-45A2-910F-F0CA711B465A";
shapes = (
{
closed = 1;
nodes = (
(25,700,l),
(25,690,l),
(90,683,o),
(125,664,o),
(125,616,cs),
(125,84,ls),
(125,36,o),
(90,17,o),
(25,10,c),
(25,0,l),
(320,0,l),
(320,10,l),
(255,17,o),
(220,36,o),
(220,84,cs),
(220,475,l),
(234,475,ls),
(305,475,o),
(385,381,o),
(414,307,c),
(424,310,l),
(319,620,l),
(309,617,l),
(331,536,o),
(314,500,o),
(234,500,cs),
(220,500,l),
(220,675,l),
(334,675,ls),
(427,675,o),
(470,574,o),
(477,475,c),
(487,475,l),
(487,700,l)
);
}
);
width = 534;
},
{
associatedMasterId = "B6803316-6B37-45A2-910F-F0CA711B465A";
layerId = "2EDD9DE7-E8C5-4C5B-BF86-64CF10F2E998";
name = "Feb 10 19, 18:09";
shapes = (
{
closed = 1;
nodes = (
(240,0,l),
(240,700,l),
(140,700,l),
(140,0,l)
);
},
{
closed = 1;
nodes = (
(140,0,l),
(140,84,l),
(140,36,o),
(105,17,o),
(40,10,c),
(40,0,l)
);
},
{
closed = 1;
nodes = (
(340,0,l),
(340,10,l),
(275,17,o),
(240,36,o),
(240,84,c),
(240,0,l)
);
},
{
closed = 1;
nodes = (
(140,700,l),
(40,700,l),
(40,690,l),
(105,683,o),
(140,664,o),
(140,616,c)
);
},
{
closed = 1;
nodes = (
(330,475,l),
(330,500,l),
(209,500,l),
(209,475,l)
);
},
{
closed = 1;
nodes = (
(449,310,l),
(344,620,l),
(334,617,l),
(356,536,o),
(339,500,o),
(249,500,c),
(249,475,l),
(330,475,o),
(410,381,o),
(439,307,c)
);
},
{
closed = 1;
nodes = (
(512,475,l),
(512,675,l),
(359,675,l),
(452,675,o),
(495,574,o),
(502,475,c)
);
},
{
closed = 1;
nodes = (
(512,675,l),
(512,700,l),
(220,700,l),
(220,675,l)
);
}
);
width = 552;
},
{
associatedMasterId = "1127FDDC-7967-4E0A-BDB2-81E1CCE90981";
layerId = "3FA07D11-59D9-417A-A07F-45DB1DE548BE";
name = "Feb 10 19, 18:09";
shapes = (
{
closed = 1;
nodes = (
(758,277,l),
(644,620,l),
(634,617,l),
(652,536,o),
(630,500,o),
(549,500,c),
(549,475,l),
(624,475,o),
(691,415,o),
(748,274,c)
);
},
{
closed = 1;
nodes = (
(230,0,l),
(230,124,l),
(230,39,o),
(124,19,o),
(40,10,c),
(40,0,l)
);
},
{
closed = 1;
nodes = (
(520,0,l),
(520,10,l),
(436,19,o),
(330,39,o),
(330,124,c),
(330,0,l)
);
},
{
closed = 1;
nodes = (
(330,0,l),
(330,700,l),
(230,700,l),
(230,0,l)
);
},
{
closed = 1;
nodes = (
(230,700,l),
(40,700,l),
(40,690,l),
(123,683,o),
(229,663,o),
(230,576,c)
);
},
{
closed = 1;
nodes = (
(560,475,l),
(560,500,l),
(249,500,l),
(249,475,l)
);
},
{
closed = 1;
nodes = (
(972,675,l),
(972,700,l),
(260,700,l),
(260,675,l)
);
},
{
closed = 1;
nodes = (
(972,455,l),
(972,675,l),
(759,675,l),
(896,675,o),
(955,574,o),
(962,455,c)
);
}
);
width = 1072;
},
{
anchors = (
{
name = bottom;
pos = (298,0);
},
{
name = top;
pos = (298,700);
}
);
layerId = "52EA2D2A-A4E3-47AA-B963-53B6A9E26FA1";
shapes = (
{
closed = 1;
nodes = (
(25,700,l),
(25,680,l),
(50,679,o),
(85,674,o),
(85,616,cs),
(85,84,ls),
(85,26,o),
(50,21,o),
(25,20,c),
(25,0,l),
(365,0,l),
(365,20,l),
(340,21,o),
(305,26,o),
(305,84,cs),
(305,475,l),
(314,475,ls),
(365,475,o),
(441,405,o),
(486,307,c),
(504,310,l),
(399,620,l),
(381,617,l),
(393,541,o),
(374,500,o),
(314,500,cs),
(305,500,l),
(305,675,l),
(354,675,ls),
(517,675,o),
(540,544,o),
(547,455,c),
(567,455,l),
(567,700,l)
);
}
);
width = 595;
},
{
anchors = (
{
name = bottom;
pos = (285,0);
},
{
name = top;
pos = (285,700);
}
);
layerId = "ECEC25EE-2268-427F-924A-A8A033D1E43A";
shapes = (
{
closed = 1;
nodes = (
(44,700,l),
(44,690,l),
(110,683,o),
(144,679,o),
(144,631,cs),
(144,69,ls),
(144,21,o),
(109,17,o),
(44,10,c),
(44,0,l),
(289,0,l),
(289,10,l),
(224,17,o),
(189,21,o),
(189,69,cs),
(189,485,l),
(198,485,ls),
(339,485,o),
(364,478,o),
(433,307,c),
(443,310,l),
(338,620,l),
(328,617,l),
(355,500,o),
(338,500,o),
(198,500,cs),
(189,500,l),
(189,685,l),
(353,685,ls),
(466,685,o),
(489,635,o),
(496,485,c),
(506,485,l),
(506,700,l)
);
}
);
width = 570;
},
{
anchors = (
{
name = bottom;
pos = (503,0);
},
{
name = top;
pos = (503,700);
}
);
layerId = "92782D03-6C32-4A0E-AEF4-B0D65DFAA275";
shapes = (
{
closed = 1;
nodes = (
(27,700,l),
(27,676,l),
(113,669,o),
(177,676,o),
(177,576,cs),
(177,124,ls),
(177,24,o),
(113,31,o),
(27,24,c),
(27,0,l),
(607,0,l),
(607,24,l),
(521,31,o),
(457,24,o),
(457,124,cs),
(457,465,l),
(524,465,ls),
(601,465,o),
(673,395,o),
(727,274,c),
(745,277,l),
(631,620,l),
(613,617,l),
(623,545,o),
(607,500,o),
(524,500,cs),
(457,500,l),
(457,665,l),
(686,665,ls),
(853,665,o),
(932,574,o),
(939,455,c),
(959,455,l),
(959,700,l)
);
}
);
width = 1005;
},
{
anchors = (
{
name = bottom;
pos = (517,0);
},
{
name = top;
pos = (517,700);
}
);
layerId = "C70D92E6-6044-4AAB-ADF3-B84826DC9CB7";
shapes = (
{
closed = 1;
nodes = (
(54,700,l),
(54,690,l),
(150,683,o),
(224,682,o),
(224,596,cs),
(224,104,ls),
(224,18,o),
(150,17,o),
(54,10,c),
(54,0,l),
(439,0,l),
(439,10,l),
(343,17,o),
(269,18,o),
(269,104,cs),
(269,485,l),
(542,484,ls),
(638,484,o),
(664,453,o),
(724,307,c),
(734,310,l),
(629,620,l),
(619,617,l),
(642,517,o),
(633,500,o),
(542,500,cs),
(269,500,l),
(269,685,l),
(804,685,ls),
(917,685,o),
(940,605,o),
(947,455,c),
(957,455,l),
(957,700,l)
);
}
);
width = 1033;
},
{
associatedMasterId = "ECEC25EE-2268-427F-924A-A8A033D1E43A";
layerId = "ACBCCE74-38BC-4199-80EB-211661D74033";
name = "Mar 26 19, 17:25";
shapes = (
{
closed = 1;
nodes = (
(185,0,l),
(185,700,l),
(140,700,l),
(140,0,l)
);
},
{
closed = 1;
nodes = (
(502,485,l),
(502,685,l),
(349,685,l),
(462,685,o),
(485,635,o),
(492,485,c)
);
},
{
closed = 1;
nodes = (
(502,685,l),
(502,700,l),
(165,700,l),
(165,685,l)
);
},
{
closed = 1;
nodes = (
(140,0,l),
(140,69,l),
(140,21,o),
(105,17,o),
(40,10,c),
(40,0,l)
);
},
{
closed = 1;
nodes = (
(140,700,l),
(40,700,l),
(40,690,l),
(106,683,o),
(140,679,o),
(140,631,c)
);
},
{
closed = 1;
nodes = (
(194,485,ls),
(335,485,o),
(360,478,o),
(429,307,c),
(439,310,l),
(334,620,l),
(324,617,l),
(351,500,o),
(334,500,o),
(194,500,cs),
(154,500,l),
(154,485,l)
);
},
{
closed = 1;
nodes = (
(285,10,l),
(220,17,o),
(185,21,o),
(185,69,c),
(185,0,l),
(285,0,l)
);
}
);
width = 600;
},
{
associatedMasterId = "52EA2D2A-A4E3-47AA-B963-53B6A9E26FA1";
layerId = "3242D926-6D69-42CA-88A0-B0B8E591C597";
name = "Mar 26 19, 19:28";
shapes = (
{
closed = 1;
nodes = (
(290,0,l),
(290,700,l),
(10,700,l),
(10,690,l),
(35,683,o),
(70,674,o),
(70,616,cs),
(70,84,ls),
(70,26,o),
(35,17,o),
(10,10,c),
(10,0,l)
);
},
{
closed = 1;
nodes = (
(299,475,ls),
(350,475,o),
(434,406,o),
(479,307,c),
(489,310,l),
(384,620,l),
(374,617,l),
(386,541,o),
(359,500,o),
(299,500,cs),
(259,500,l),
(259,475,l)
);
},
{
closed = 1;
nodes = (
(552,455,l),
(552,675,l),
(339,675,l),
(502,675,o),
(535,544,o),
(542,455,c)
);
},
{
closed = 1;
nodes = (
(552,675,l),
(552,700,l),
(270,700,l),
(270,675,l)
);
},
{
closed = 1;
nodes = (
(290,0,l),
(350,0,l),
(350,10,l),
(326,16,o),
(291,25,o),
(290,84,c)
);
}
);
width = 600;
},
{
associatedMasterId = "C70D92E6-6044-4AAB-ADF3-B84826DC9CB7";
layerId = "D4B2A20A-4C23-48F7-8E06-B12CD27CF460";
name = "Mar 27 19, 14:04";
shapes = (
{
closed = 1;
nodes = (
(260,485,l),
(538,484,ls),
(634,484,o),
(660,453,o),
(720,307,c),
(730,310,l),
(625,620,l),
(615,617,l),
(638,517,o),
(629,500,o),
(538,500,cs),
(260,500,l)
);
},
{
closed = 1;
nodes = (
(260,685,l),
(800,685,ls),
(913,685,o),
(936,635,o),
(943,485,c),
(953,485,l),
(953,700,l),
(260,700,l)
);
},
{
closed = 1;
nodes = (
(220,155,l),
(220,104,ls),
(220,18,o),
(146,17,o),
(50,10,c),
(50,0,l),
(265,0,l),
(265,155,l)
);
},
{
closed = 1;
nodes = (
(265,155,l),
(265,700,l),
(50,700,l),
(50,690,l),
(146,683,o),
(220,682,o),
(220,596,cs),
(220,155,l)
);
},
{
closed = 1;
nodes = (
(220,0,l),
(435,0,l),
(435,10,l),
(339,17,o),
(265,18,o),
(265,104,cs),
(265,155,l),
(220,155,l)
);
}
);
width = 600;
},
{
associatedMasterId = "92782D03-6C32-4A0E-AEF4-B0D65DFAA275";
layerId = "BF5A2E04-15AE-4854-95FA-05B27044BE5A";
name = "Mar 28 19, 15:16";
shapes = (
{
closed = 1;
nodes = (
(324,665,l),
(689,665,ls),
(856,665,o),
(945,574,o),
(952,455,c),
(962,455,l),
(962,700,l),
(330,700,l)
);
},
{
closed = 1;
nodes = (
(324,465,l),
(527,465,ls),
(604,465,o),
(684,395,o),
(738,274,c),
(748,277,l),
(634,620,l),
(624,617,l),
(634,545,o),
(610,500,o),
(527,500,cs),
(324,500,l)
);
},
{
closed = 1;
nodes = (
(610,0,l),
(610,14,l),
(524,21,o),
(460,24,o),
(460,124,cs),
(460,700,l),
(30,700,l),
(30,686,l),
(116,679,o),
(180,676,o),
(180,576,cs),
(180,124,ls),
(180,24,o),
(116,21,o),
(30,14,c),
(30,0,l)
);
}
);
width = 1002;
}
);
unicode = 70;
}
